<svg xmlns="http://www.w3.org/2000/svg" xmlns:xlink="http://www.w3.org/1999/xlink" width="100" zoomAndPan="magnify" viewBox="0 0 75 74.999997" height="100" preserveAspectRatio="xMidYMid meet" version="1.2"><defs><clipPath id="c761de12f8"><path d="M 22 36 L 63.691406 36 L 63.691406 67.347656 L 22 67.347656 Z M 22 36 "/></clipPath><clipPath id="181273d270"><path d="M 22 64 L 63.691406 64 L 63.691406 67.347656 L 22 67.347656 Z M 22 64 "/></clipPath><clipPath id="a7e08f9b3f"><path d="M 22 36 L 63.691406 36 L 63.691406 67.347656 L 22 67.347656 Z M 22 36 "/></clipPath><clipPath id="3ce2a46170"><path d="M 17.191406 37 L 57 37 L 57 67 L 17.191406 67 Z M 17.191406 37 "/></clipPath><clipPath id="5d077b29e9"><path d="M 36 27.597656 L 50 27.597656 L 50 42 L 36 42 Z M 36 27.597656 "/></clipPath><clipPath id="a178e8e063"><path d="M 7.5 10.40625 L 41.25 10.40625 L 41.25 26.90625 L 7.5 26.90625 Z M 7.5 10.40625 "/></clipPath><clipPath id="96c0bb8345"><path d="M 8 11 L 40 11 L 40 26.90625 L 8 26.90625 Z M 8 11 "/></clipPath><clipPath id="e73717ea91"><path d="M 32 34 L 34 34 L 34 34.941406 L 32 34.941406 Z M 32 34 "/></clipPath><clipPath id="1700b26f18"><path d="M 32 33 L 34 33 L 34 34.941406 L 32 34.941406 Z M 32 33 "/></clipPath><clipPath id="6d62ec1284"><path d="M 30.316406 31 L 32 31 L 32 32 L 30.316406 32 Z M 30.316406 31 "/></clipPath><clipPath id="3ff7f68e75"><path d="M 32 28.941406 L 33 28.941406 L 33 30 L 32 30 Z M 32 28.941406 "/></clipPath><clipPath id="a6a095850f"><path d="M 34 31 L 35.566406 31 L 35.566406 32 L 34 32 Z M 34 31 "/></clipPath><clipPath id="4c73406031"><path d="M 17.191406 12.046875 L 27 12.046875 L 27 21 L 17.191406 21 Z M 17.191406 12.046875 "/></clipPath><clipPath id="0407374eba"><path d="M 17.191406 12.046875 L 23 12.046875 L 23 21 L 17.191406 21 Z M 17.191406 12.046875 "/></clipPath><clipPath id="a9decf6876"><path d="M 24 13 L 28.441406 13 L 28.441406 18 L 24 18 Z M 24 13 "/></clipPath><clipPath id="6e00815681"><path d="M 18 19 L 25 19 L 25 25.546875 L 18 25.546875 Z M 18 19 "/></clipPath><clipPath id="06c49ba2cb"><path d="M 17.191406 19 L 20 19 L 20 24 L 17.191406 24 Z M 17.191406 19 "/></clipPath><clipPath id="7bd3d8c6db"><path d="M 17.191406 12.046875 L 28.441406 12.046875 L 28.441406 25.546875 L 17.191406 25.546875 Z M 17.191406 12.046875 "/></clipPath><clipPath id="9d01d54ec7"><path d="M 50.347656 20.046875 L 55 20.046875 L 55 23 L 50.347656 23 Z M 50.347656 20.046875 "/></clipPath><clipPath id="e6e65fc92d"><path d="M 51 20.046875 L 54 20.046875 L 54 22 L 51 22 Z M 51 20.046875 "/></clipPath><clipPath id="fff8149033"><path d="M 55 20.046875 L 56 20.046875 L 56 21 L 55 21 Z M 55 20.046875 "/></clipPath><clipPath id="d99ceca522"><path d="M 51 20.046875 L 58.597656 20.046875 L 58.597656 27 L 51 27 Z M 51 20.046875 "/></clipPath><clipPath id="899760a1f7"><path d="M 51 22 L 58.597656 22 L 58.597656 27.546875 L 51 27.546875 Z M 51 22 "/></clipPath><clipPath id="1800730ab6"><path d="M 52 20.046875 L 58 20.046875 L 58 27 L 52 27 Z M 52 20.046875 "/></clipPath><clipPath id="eb0c9a95f8"><path d="M 55 24 L 58.597656 24 L 58.597656 27.546875 L 55 27.546875 Z M 55 24 "/></clipPath><clipPath id="e9472ddbfd"><path d="M 56 24 L 58.597656 24 L 58.597656 27 L 56 27 Z M 56 24 "/></clipPath><clipPath id="c4bd38a319"><path d="M 51 24 L 54 24 L 54 27.546875 L 51 27.546875 Z M 51 24 "/></clipPath></defs><g id="1d1dd30b18"><rect x="0" width="75" y="0" height="74.999997" style="fill:#ffffff;fill-opacity:1;stroke:none;"/><rect x="0" width="75" y="0" height="74.999997" style="fill:#ffffff;fill-opacity:1;stroke:none;"/><g clip-rule="nonzero" clip-path="url(#c761de12f8)"><path style=" stroke:none;fill-rule:nonzero;fill:#dde5ec;fill-opacity:1;" d="M 63.515625 38.042969 L 63.515625 65.734375 C 63.515625 66.527344 62.871094 67.171875 62.078125 67.171875 L 23.8125 67.171875 C 23.015625 67.171875 22.371094 66.527344 22.371094 65.734375 L 22.371094 38.042969 C 22.371094 37.246094 23.015625 36.601562 23.8125 36.601562 L 62.078125 36.601562 C 62.871094 36.601562 63.515625 37.246094 63.515625 38.042969 Z M 63.515625 38.042969 "/></g><path style=" stroke:none;fill-rule:nonzero;fill:#afc1ce;fill-opacity:1;" d="M 38.710938 47.113281 L 38.71875 46.957031 C 38.71875 46.957031 38.671875 46.957031 38.585938 46.957031 C 37.96875 46.964844 35.414062 46.996094 35.335938 46.957031 C 35.25 46.914062 35.25 46.070312 35.292969 45.980469 C 35.332031 45.90625 37.863281 45.960938 38.550781 45.976562 C 38.65625 45.980469 38.71875 45.980469 38.71875 45.980469 C 38.71875 45.980469 38.71875 45.785156 38.675781 45.699219 C 38.667969 45.683594 38.390625 45.671875 37.945312 45.667969 C 37.96875 45.523438 38.125 44.507812 37.84375 44.386719 L 38.484375 44.386719 L 38.46875 44.136719 C 38.46875 44.136719 37.886719 44.136719 37.824219 44.136719 C 37.375 44.140625 35.5 44.164062 35.441406 44.136719 C 35.378906 44.101562 35.378906 43.402344 35.410156 43.339844 C 35.4375 43.285156 37.292969 43.324219 37.796875 43.335938 C 37.878906 43.339844 38.46875 43.339844 38.46875 43.339844 C 38.46875 43.339844 38.46875 43.167969 38.4375 43.105469 C 38.414062 43.058594 35.066406 43.085938 33.503906 43.117188 C 33.539062 42.882812 33.546875 42.835938 33.519531 42.804688 C 33.355469 42.640625 29.753906 42.75 29.753906 42.75 L 29.535156 43.132812 L 26.261719 43.1875 C 26.261719 43.1875 26.261719 42.859375 26.207031 42.804688 C 26.152344 42.75 23.371094 42.804688 23.152344 42.859375 C 23.03125 42.890625 22.707031 44.261719 22.441406 45.46875 L 22.441406 47.933594 L 22.617188 47.933594 C 22.636719 48.140625 22.675781 48.394531 22.769531 48.425781 C 22.933594 48.480469 25.335938 48.425781 25.335938 48.425781 C 25.335938 48.425781 25.28125 50.605469 25.390625 50.660156 C 25.5 50.714844 26.097656 50.660156 26.097656 50.660156 L 26.097656 47.933594 L 35.769531 47.933594 C 35.785156 48.140625 35.824219 48.394531 35.921875 48.425781 C 36.085938 48.480469 38.484375 48.425781 38.484375 48.425781 C 38.484375 48.425781 38.429688 50.605469 38.539062 50.660156 C 38.648438 50.714844 39.25 50.660156 39.25 50.660156 L 39.25 47.933594 L 42.03125 47.933594 L 42.03125 47.113281 Z M 24.410156 46.851562 C 24.378906 46.96875 24.03125 46.917969 24.054688 46.804688 C 24.304688 45.613281 24.566406 44.425781 24.785156 43.230469 C 24.808594 43.101562 25.179688 43.15625 25.15625 43.28125 C 24.945312 44.476562 24.714844 45.675781 24.410156 46.851562 Z M 26.605469 46.851562 C 26.582031 46.972656 26.222656 46.921875 26.242188 46.800781 C 26.414062 45.863281 26.605469 44.929688 26.785156 43.992188 C 26.808594 43.875 27.164062 43.925781 27.144531 44.042969 C 26.964844 44.980469 26.792969 45.917969 26.605469 46.851562 Z M 28.269531 46.824219 L 29.371094 43.347656 C 29.402344 43.238281 29.832031 43.285156 29.804688 43.394531 L 28.726562 46.875 C 28.683594 46.992188 28.230469 46.945312 28.269531 46.824219 Z M 35.25 45.535156 C 35.195312 45.5625 33.96875 45.566406 33.007812 45.566406 C 32.574219 45.566406 32.191406 45.566406 32 45.566406 L 32.027344 44.476562 C 32.269531 44.46875 32.75 44.453125 33.265625 44.441406 C 34.199219 44.417969 35.257812 44.402344 35.28125 44.453125 C 35.328125 44.539062 35.335938 45.492188 35.25 45.535156 Z M 35.25 45.535156 "/><path style=" stroke:none;fill-rule:nonzero;fill:#afc1ce;fill-opacity:1;" d="M 53.714844 41.953125 L 60.824219 41.953125 L 60.824219 49.109375 L 53.714844 49.109375 Z M 53.714844 41.953125 "/><path style=" stroke:none;fill-rule:nonzero;fill:#c3d1dd;fill-opacity:1;" d="M 54.28125 42.4375 L 59.726562 42.4375 L 59.726562 48.621094 L 54.28125 48.621094 Z M 54.28125 42.4375 "/><path style=" stroke:none;fill-rule:nonzero;fill:#afc1ce;fill-opacity:1;" d="M 25.5 52.71875 L 32.382812 52.71875 L 32.382812 60.988281 L 25.5 60.988281 Z M 25.5 52.71875 "/><path style=" stroke:none;fill-rule:nonzero;fill:#c3d1dd;fill-opacity:1;" d="M 26.003906 53.207031 L 31.492188 53.207031 L 31.492188 60.503906 L 26.003906 60.503906 Z M 26.003906 53.207031 "/><path style=" stroke:none;fill-rule:nonzero;fill:#afc1ce;fill-opacity:1;" d="M 58.648438 63.726562 C 58.648438 63.726562 57.078125 61.957031 57.550781 61.332031 C 58.027344 60.710938 58.898438 62.679688 58.898438 62.679688 C 58.898438 62.679688 57.402344 58.214844 58.476562 57.816406 C 59.546875 57.417969 59.671875 61.90625 59.671875 61.90625 C 59.671875 61.90625 59.722656 60.261719 60.121094 60.234375 C 60.519531 60.210938 60.171875 61.605469 60.171875 61.605469 C 60.171875 61.605469 60.742188 59.214844 61.667969 59.613281 C 62.589844 60.011719 60.417969 63.300781 60.417969 63.300781 C 60.417969 63.300781 60.945312 62.628906 61.269531 62.878906 C 61.589844 63.128906 59.996094 64.148438 59.996094 64.148438 Z M 58.648438 63.726562 "/><path style=" stroke:none;fill-rule:nonzero;fill:#afc1ce;fill-opacity:1;" d="M 61.492188 64.5 C 61.480469 64.515625 61.367188 64.523438 61.183594 64.527344 C 61.128906 65.167969 60.9375 66.601562 60.820312 66.71875 C 60.667969 66.867188 58.351562 66.792969 58.25 66.742188 C 58.175781 66.703125 57.96875 65.308594 57.863281 64.578125 C 57.855469 64.53125 57.847656 64.484375 57.84375 64.441406 C 57.839844 64.433594 57.839844 64.429688 57.839844 64.421875 C 57.714844 64.414062 57.636719 64.40625 57.628906 64.398438 C 57.550781 64.347656 57.503906 63.527344 57.503906 63.527344 C 57.503906 63.527344 61.417969 63.527344 61.566406 63.574219 C 61.714844 63.625 61.566406 64.398438 61.492188 64.5 Z M 61.492188 64.5 "/><g clip-rule="nonzero" clip-path="url(#181273d270)"><path style=" stroke:none;fill-rule:nonzero;fill:#afc1ce;fill-opacity:1;" d="M 63.515625 65.730469 L 63.515625 65.734375 C 63.515625 66.527344 62.871094 67.171875 62.078125 67.171875 L 23.8125 67.171875 C 23.015625 67.171875 22.371094 66.527344 22.371094 65.734375 L 22.371094 64.660156 L 22.519531 64.339844 L 35.777344 64.324219 C 35.777344 64.324219 35.707031 65.714844 35.847656 65.851562 C 35.964844 65.96875 56.957031 65.789062 63.515625 65.730469 Z M 63.515625 65.730469 "/></g><g clip-rule="nonzero" clip-path="url(#a7e08f9b3f)"><path style=" stroke:none;fill-rule:nonzero;fill:#ffffff;fill-opacity:1;" d="M 62.078125 36.429688 L 23.8125 36.429688 C 22.921875 36.429688 22.199219 37.152344 22.199219 38.042969 L 22.199219 65.734375 C 22.199219 66.621094 22.921875 67.347656 23.8125 67.347656 L 62.078125 67.347656 C 62.96875 67.347656 63.691406 66.621094 63.691406 65.734375 L 63.691406 38.042969 C 63.691406 37.152344 62.96875 36.429688 62.078125 36.429688 Z M 24.585938 37.117188 C 25.667969 37.117188 25.667969 38.796875 24.585938 38.796875 C 23.503906 38.796875 23.503906 37.117188 24.585938 37.117188 Z M 29.542969 37.117188 C 30.625 37.117188 30.625 38.796875 29.542969 38.796875 C 28.460938 38.796875 28.460938 37.117188 29.542969 37.117188 Z M 27.066406 37.117188 C 28.148438 37.117188 28.144531 38.796875 27.066406 38.796875 C 25.980469 38.796875 25.984375 37.117188 27.066406 37.117188 Z M 63.34375 65.734375 C 63.34375 66.429688 62.773438 67 62.078125 67 L 23.8125 67 C 23.113281 67 22.546875 66.429688 22.546875 65.734375 L 22.546875 39.382812 L 63.34375 39.382812 Z M 63.34375 65.734375 "/></g><path style=" stroke:none;fill-rule:nonzero;fill:#4d4d4d;fill-opacity:1;" d="M 55.535156 66.984375 C 55.738281 65.789062 56.023438 64.308594 56.355469 62.996094 C 56.792969 61.257812 59.453125 54.738281 60.191406 50.605469 C 60.925781 46.476562 59.304688 44.558594 57.828125 44.410156 C 56.355469 44.265625 44.539062 44.351562 44.539062 44.351562 L 43.84375 66.984375 Z M 55.535156 66.984375 "/><path style=" stroke:none;fill-rule:nonzero;fill:#1a1a1a;fill-opacity:1;" d="M 51.238281 66.984375 C 51.382812 63.496094 53.046875 60.222656 54.042969 56.855469 C 54.613281 54.914062 54.933594 52.867188 55.296875 50.878906 C 55.605469 49.1875 55.902344 46.527344 57.589844 45.847656 C 57.902344 45.722656 57.625 45.285156 57.335938 45.410156 C 55.75 46.09375 55.355469 48.171875 55.054688 49.667969 C 54.617188 51.839844 54.332031 54.183594 53.726562 56.316406 C 52.726562 59.835938 50.914062 63.308594 50.707031 66.984375 Z M 51.238281 66.984375 "/><g clip-rule="nonzero" clip-path="url(#3ce2a46170)"><path style=" stroke:none;fill-rule:nonzero;fill:#b4ab78;fill-opacity:1;" d="M 44.199219 43.804688 L 38.710938 43.160156 C 38.710938 43.160156 37.65625 43.675781 34.613281 44.453125 C 32.558594 44.976562 31.117188 45.75 30.339844 46.007812 C 29.160156 46.402344 25.417969 47.367188 25.417969 47.367188 C 25.417969 47.367188 25.796875 46.445312 26.636719 43.984375 C 27.480469 41.527344 26.570312 41.394531 26.832031 40.488281 C 27.089844 39.582031 27.671875 39.128906 26.765625 38.09375 C 25.859375 37.058594 23.140625 37.316406 22.945312 38.09375 C 22.75 38.871094 22.558594 39.519531 21.910156 39.90625 C 21.261719 40.296875 20.484375 40.425781 19.773438 43.273438 C 19.0625 46.121094 19.136719 44.90625 18.167969 47.753906 C 17.195312 50.605469 17.90625 54.746094 21.921875 55.136719 C 25.9375 55.523438 29.886719 54.035156 30.277344 53.90625 C 30.664062 53.777344 28.722656 65.558594 28.65625 66.980469 L 46.917969 66.980469 C 46.917969 66.980469 47.371094 64.070312 47.5 63.292969 C 47.5 63.292969 50.347656 66.59375 53.003906 66.789062 C 55.660156 66.980469 56.695312 63.484375 55.59375 60.25 C 54.492188 57.011719 52.183594 50.773438 51.816406 49.78125 C 51.199219 48.113281 49.964844 46.808594 47.683594 45.765625 C 45.402344 44.722656 44.441406 43.914062 44.441406 43.914062 "/></g><g clip-rule="nonzero" clip-path="url(#5d077b29e9)"><path style=" stroke:none;fill-rule:nonzero;fill:#4e0c09;fill-opacity:1;" d="M 49.164062 33.773438 C 49.105469 33.648438 49.039062 33.527344 48.964844 33.414062 C 49 33.214844 49.011719 33.011719 48.996094 32.8125 C 48.929688 31.929688 48.511719 30.886719 47.683594 30.460938 C 47.535156 30.386719 47.382812 30.335938 47.226562 30.308594 C 46.902344 29.332031 46.015625 28.511719 44.949219 28.554688 C 44.664062 28.566406 44.382812 28.632812 44.121094 28.742188 C 44.074219 28.683594 44.027344 28.628906 43.980469 28.574219 C 43.660156 28.234375 43.214844 27.980469 42.75 27.929688 C 42.414062 27.894531 42.113281 27.996094 41.851562 28.171875 C 41.3125 27.769531 40.601562 27.59375 39.929688 27.753906 C 39.03125 27.964844 38.351562 28.75 38.199219 29.644531 C 37.722656 29.773438 37.316406 30.207031 37.101562 30.628906 C 36.863281 31.101562 36.785156 31.652344 36.921875 32.164062 C 37.203125 33.226562 38.34375 33.902344 39.40625 33.6875 C 39.484375 33.671875 39.558594 33.652344 39.632812 33.628906 C 39.925781 34.152344 40.464844 34.519531 41.097656 34.539062 C 41.3125 34.546875 41.535156 34.515625 41.738281 34.445312 C 41.84375 34.410156 41.945312 34.367188 42.042969 34.3125 C 42.085938 34.289062 42.125 34.261719 42.164062 34.234375 C 42.195312 34.214844 42.28125 34.171875 42.269531 34.144531 C 42.300781 34.167969 42.328125 34.226562 42.347656 34.253906 C 42.382812 34.300781 42.421875 34.351562 42.460938 34.398438 C 42.546875 34.507812 42.636719 34.609375 42.730469 34.710938 C 42.894531 34.882812 43.074219 35.054688 43.273438 35.1875 C 43.335938 35.226562 43.398438 35.261719 43.464844 35.289062 C 43.414062 35.734375 43.457031 36.1875 43.597656 36.613281 C 43.683594 36.875 43.851562 37.296875 44.097656 37.574219 C 43.910156 37.648438 43.738281 37.757812 43.59375 37.902344 C 43.433594 38.058594 43.316406 38.253906 43.191406 38.4375 C 43.0625 38.628906 42.917969 38.800781 42.777344 38.984375 C 42.515625 39.316406 42.285156 39.71875 42.351562 40.15625 C 42.382812 40.386719 42.507812 40.597656 42.691406 40.730469 C 42.695312 40.777344 42.722656 40.824219 42.777344 40.859375 C 43.703125 41.46875 44.859375 41.117188 45.699219 40.53125 C 46.453125 40.011719 47.199219 39.308594 47.429688 38.398438 C 48.347656 37.957031 49 36.832031 49.261719 35.910156 C 49.464844 35.207031 49.464844 34.453125 49.164062 33.773438 Z M 49.164062 33.773438 "/></g><path style=" stroke:none;fill-rule:nonzero;fill:#a54b22;fill-opacity:1;" d="M 44.082031 39.34375 C 44.082031 39.34375 44.082031 40.234375 43.964844 41.597656 C 43.847656 42.964844 44.441406 43.914062 44.441406 43.914062 C 44.441406 43.914062 41.800781 44.746094 39.246094 43.8125 C 39.175781 43.785156 38.785156 43.578125 38.722656 43.503906 C 38.367188 43.082031 39.257812 43.179688 39.511719 40.707031 C 39.808594 37.800781 44.082031 39.34375 44.082031 39.34375 Z M 44.082031 39.34375 "/><path style=" stroke:none;fill-rule:nonzero;fill:#1a1a1a;fill-opacity:1;" d="M 40.1875 42.683594 C 40.71875 42.636719 41.242188 42.488281 41.695312 42.199219 C 42.199219 41.871094 42.601562 41.367188 42.824219 40.808594 C 43.046875 40.238281 43.0625 39.648438 42.988281 39.054688 C 41.699219 38.808594 39.710938 38.757812 39.511719 40.707031 C 39.410156 41.695312 39.207031 42.273438 39.023438 42.636719 C 39.40625 42.695312 39.800781 42.714844 40.1875 42.683594 Z M 40.1875 42.683594 "/><path style=" stroke:none;fill-rule:nonzero;fill:#a54b22;fill-opacity:1;" d="M 47.136719 36.546875 C 46.832031 35.484375 46.019531 35.488281 45.386719 35.886719 C 45.214844 35.996094 44.921875 36.386719 44.921875 36.386719 C 44.921875 36.386719 44.777344 35.96875 44.710938 35.105469 C 44.710938 35.105469 44.710938 35.101562 44.710938 35.101562 C 44.703125 35.019531 44.699219 34.9375 44.695312 34.847656 C 44.480469 34.707031 44.328125 34.464844 44.222656 34.238281 C 44.128906 34.027344 44.0625 33.804688 44.011719 33.578125 C 43.40625 33.789062 42.746094 33.769531 42.171875 33.460938 C 41.640625 33.179688 41.191406 32.6875 40.957031 32.128906 C 40.542969 32.203125 40.117188 32.171875 39.710938 32.03125 C 39.421875 31.933594 39.121094 31.78125 38.871094 31.574219 C 38.511719 32.195312 38.097656 32.949219 37.914062 33.453125 C 37.664062 34.148438 37.109375 35.734375 36.839844 37.652344 C 36.703125 38.648438 36.824219 39.609375 37.054688 40.21875 C 37.523438 41.464844 38.8125 41.996094 39.664062 42.125 C 40.449219 42.238281 41.464844 42.160156 42.082031 41.941406 C 43.539062 41.429688 44.171875 40.125 45.234375 39.160156 C 45.234375 39.160156 47.730469 38.632812 47.136719 36.546875 Z M 47.136719 36.546875 "/><path style=" stroke:none;fill-rule:nonzero;fill:#952d16;fill-opacity:1;" d="M 39.144531 37.890625 C 39.136719 37.855469 39.121094 37.828125 39.097656 37.804688 C 39.03125 37.75 38.96875 37.695312 38.902344 37.640625 C 38.886719 37.621094 38.867188 37.609375 38.84375 37.601562 C 38.820312 37.589844 38.796875 37.585938 38.769531 37.585938 C 38.742188 37.585938 38.71875 37.589844 38.695312 37.601562 C 38.671875 37.609375 38.652344 37.621094 38.636719 37.640625 C 38.601562 37.675781 38.578125 37.726562 38.578125 37.773438 C 38.582031 37.792969 38.582031 37.808594 38.585938 37.824219 C 38.59375 37.859375 38.609375 37.886719 38.636719 37.910156 C 38.699219 37.964844 38.761719 38.019531 38.828125 38.074219 C 38.84375 38.09375 38.863281 38.105469 38.886719 38.113281 C 38.910156 38.125 38.933594 38.128906 38.960938 38.128906 C 38.988281 38.128906 39.011719 38.125 39.035156 38.113281 C 39.058594 38.105469 39.078125 38.09375 39.097656 38.074219 C 39.128906 38.039062 39.152344 37.988281 39.152344 37.9375 C 39.148438 37.921875 39.148438 37.90625 39.144531 37.890625 Z M 39.144531 37.890625 "/><path style=" stroke:none;fill-rule:nonzero;fill:#4e0c09;fill-opacity:1;" d="M 43.097656 35.890625 C 42.785156 35.484375 42.441406 35.101562 42.058594 34.753906 C 41.988281 34.6875 41.863281 34.675781 41.789062 34.753906 C 41.722656 34.828125 41.710938 34.953125 41.789062 35.023438 C 41.972656 35.1875 42.148438 35.363281 42.3125 35.542969 C 42.394531 35.632812 42.476562 35.722656 42.550781 35.816406 C 42.589844 35.859375 42.628906 35.90625 42.667969 35.957031 C 42.6875 35.980469 42.707031 36.003906 42.722656 36.027344 C 42.75 36.058594 42.742188 36.050781 42.769531 36.082031 C 42.828125 36.160156 42.933594 36.210938 43.027344 36.152344 C 43.105469 36.101562 43.160156 35.976562 43.097656 35.890625 Z M 43.097656 35.890625 "/><path style=" stroke:none;fill-rule:nonzero;fill:#4e0c09;fill-opacity:1;" d="M 38.414062 33.8125 C 38.179688 33.765625 37.949219 33.761719 37.710938 33.800781 C 37.667969 33.808594 37.621094 33.851562 37.597656 33.890625 C 37.574219 33.929688 37.566406 33.992188 37.578125 34.035156 C 37.59375 34.082031 37.625 34.125 37.667969 34.148438 C 37.714844 34.175781 37.761719 34.179688 37.8125 34.167969 C 37.820312 34.167969 37.824219 34.167969 37.832031 34.167969 C 37.964844 34.148438 38.097656 34.148438 38.230469 34.167969 C 38.257812 34.171875 38.285156 34.175781 38.3125 34.179688 C 38.363281 34.191406 38.414062 34.1875 38.457031 34.160156 C 38.496094 34.136719 38.535156 34.09375 38.546875 34.046875 C 38.566406 33.953125 38.515625 33.835938 38.414062 33.8125 Z M 38.414062 33.8125 "/><path style=" stroke:none;fill-rule:nonzero;fill:#1a1a1a;fill-opacity:1;" d="M 42.007812 37.035156 C 42.007812 37.035156 42.101562 37.082031 42.144531 36.988281 C 42.195312 36.871094 42.082031 36.507812 41.675781 36.328125 C 41.359375 36.191406 40.972656 36.328125 40.945312 36.503906 C 40.925781 36.640625 41.03125 36.703125 41.167969 36.695312 C 41.304688 36.683594 41.355469 36.652344 41.566406 36.707031 C 41.773438 36.761719 41.898438 36.976562 42.007812 37.035156 Z M 42.007812 37.035156 "/><path style=" stroke:none;fill-rule:nonzero;fill:#1a1a1a;fill-opacity:1;" d="M 37.453125 35.648438 C 37.453125 35.648438 37.351562 35.636719 37.367188 35.542969 C 37.382812 35.425781 37.660156 35.1875 38.074219 35.25 C 38.394531 35.296875 38.636719 35.601562 38.570312 35.753906 C 38.519531 35.875 38.402344 35.871094 38.296875 35.796875 C 38.191406 35.722656 38.167969 35.671875 37.972656 35.609375 C 37.777344 35.546875 37.570312 35.65625 37.453125 35.648438 Z M 37.453125 35.648438 "/><path style=" stroke:none;fill-rule:nonzero;fill:#ffffff;fill-opacity:1;" d="M 37.851562 38.757812 C 37.851562 38.757812 39.40625 39.339844 40.398438 39.359375 C 40.398438 39.359375 39.925781 40.203125 39.296875 40.222656 C 38.671875 40.246094 38.089844 39.835938 37.851562 38.757812 Z M 37.851562 38.757812 "/><path style=" stroke:none;fill-rule:nonzero;fill:#1a1a1a;fill-opacity:1;" d="M 43.722656 57.054688 C 43.722656 57.054688 43.378906 57.941406 43.703125 58.351562 C 44.023438 58.761719 44.785156 58.394531 44.785156 58.394531 C 44.785156 58.394531 43.980469 57.140625 43.722656 57.054688 Z M 43.722656 57.054688 "/><path style=" stroke:none;fill-rule:nonzero;fill:#953b16;fill-opacity:1;" d="M 42.683594 52.152344 C 42.683594 52.152344 42.132812 51.992188 41.675781 51.453125 C 41.183594 50.871094 40.570312 51.105469 40.605469 51.519531 C 40.644531 51.96875 41.042969 52.609375 41.042969 52.609375 Z M 42.683594 52.152344 "/><path style=" stroke:none;fill-rule:nonzero;fill:#4a3333;fill-opacity:1;" d="M 39.84375 49.09375 C 39.722656 49.003906 39.609375 48.957031 39.511719 48.953125 C 39.472656 48.871094 39.429688 48.785156 39.394531 48.699219 C 39.34375 48.585938 39.175781 48.675781 39.222656 48.785156 C 39.253906 48.863281 39.289062 48.941406 39.328125 49.019531 C 39.246094 49.09375 39.195312 49.230469 39.195312 49.421875 C 39.199219 49.886719 40.472656 52.621094 40.472656 52.621094 C 40.472656 52.621094 42.167969 56.394531 42.351562 56.300781 C 42.539062 56.207031 42.054688 52.980469 42.054688 52.980469 C 42.054688 52.980469 40.21875 49.371094 39.84375 49.09375 Z M 39.84375 49.09375 "/><path style=" stroke:none;fill-rule:nonzero;fill:#a54b22;fill-opacity:1;" d="M 44.785156 58.394531 C 44.785156 58.394531 45.558594 57.585938 45.789062 56.734375 C 46.023438 55.886719 45.328125 54.917969 44.746094 54.300781 C 44.167969 53.683594 43.753906 52.304688 43.257812 52.15625 C 42.757812 52.011719 41.449219 51.992188 41.074219 52.011719 C 40.703125 52.03125 39.984375 52.273438 39.878906 52.503906 C 39.773438 52.730469 39.792969 52.929688 39.933594 53.21875 C 39.847656 53.238281 39.6875 53.570312 39.726562 53.816406 C 39.796875 54.265625 40.117188 54.375 40.117188 54.375 C 40.117188 54.375 40.011719 54.625 40.097656 54.996094 C 40.179688 55.371094 40.40625 55.496094 40.40625 55.496094 C 40.40625 55.496094 40.367188 55.789062 40.492188 56.097656 C 40.617188 56.410156 41.128906 56.523438 41.6875 56.523438 C 42.25 56.523438 42.863281 57.039062 43.382812 57.289062 C 43.902344 57.535156 44.785156 58.394531 44.785156 58.394531 Z M 44.785156 58.394531 "/><path style=" stroke:none;fill-rule:nonzero;fill:#953b16;fill-opacity:1;" d="M 41.808594 55.273438 C 41.398438 55.253906 41.144531 55.34375 40.753906 55.390625 C 40.65625 55.402344 40.386719 55.425781 40.417969 55.523438 C 40.453125 55.621094 40.679688 55.617188 40.785156 55.621094 C 41.09375 55.628906 41.417969 55.636719 41.808594 55.652344 C 41.90625 55.65625 42 55.5625 41.996094 55.460938 C 41.992188 55.355469 41.914062 55.277344 41.808594 55.273438 Z M 41.808594 55.273438 "/><path style=" stroke:none;fill-rule:nonzero;fill:#953b16;fill-opacity:1;" d="M 41.796875 54.113281 C 41.769531 54.003906 41.664062 53.960938 41.5625 53.980469 C 41.140625 54.054688 40.941406 54.160156 40.515625 54.238281 C 40.414062 54.257812 40.109375 54.289062 40.136719 54.378906 C 40.164062 54.488281 40.578125 54.464844 40.679688 54.460938 C 40.996094 54.457031 41.238281 54.421875 41.664062 54.347656 C 41.765625 54.328125 41.824219 54.203125 41.796875 54.113281 Z M 41.796875 54.113281 "/><path style=" stroke:none;fill-rule:nonzero;fill:#953b16;fill-opacity:1;" d="M 39.933594 53.230469 C 39.953125 53.324219 40.246094 53.277344 40.347656 53.261719 C 40.839844 53.179688 41.230469 53.148438 41.78125 53.207031 C 41.882812 53.21875 41.976562 53.125 41.980469 53.027344 C 41.988281 52.921875 41.902344 52.839844 41.800781 52.828125 C 41.222656 52.765625 40.855469 52.832031 40.300781 53.015625 C 40.203125 53.046875 39.910156 53.125 39.933594 53.230469 Z M 39.933594 53.230469 "/><path style=" stroke:none;fill-rule:nonzero;fill:#1a1a1a;fill-opacity:1;" d="M 26.039062 39.921875 C 26.425781 39.917969 27.132812 39.734375 27.089844 39.171875 C 27.054688 38.644531 26.210938 38.039062 25.796875 37.949219 C 25.378906 37.855469 26.039062 39.921875 26.039062 39.921875 Z M 26.039062 39.921875 "/><path style=" stroke:none;fill-rule:nonzero;fill:#a54b22;fill-opacity:1;" d="M 26.039062 39.921875 C 26.039062 39.921875 26.59375 38.105469 26.90625 37.578125 C 27.21875 37.046875 28.71875 35.59375 28.96875 34.933594 C 29.214844 34.277344 28.796875 33.769531 28.558594 33.378906 C 28.320312 32.992188 28.179688 32.667969 27.976562 32.710938 C 27.769531 32.753906 28.558594 30.066406 28.160156 29.582031 C 27.757812 29.097656 27.382812 29.679688 27.230469 30.457031 C 27.078125 31.234375 26.992188 32.097656 26.9375 32.160156 C 26.886719 32.226562 26.570312 32.28125 26.496094 32.429688 C 26.421875 32.582031 26.03125 32.375 25.785156 32.496094 C 25.535156 32.613281 25.515625 32.777344 25.429688 32.851562 C 25.34375 32.925781 24.75 32.808594 24.261719 32.980469 C 23.777344 33.152344 23.378906 34.058594 23.476562 34.632812 C 23.570312 35.203125 23.789062 37.1875 23.625 37.480469 C 23.464844 37.769531 23.140625 38.449219 23.285156 38.886719 C 23.429688 39.324219 24.757812 40.019531 26.039062 39.921875 Z M 26.039062 39.921875 "/><path style=" stroke:none;fill-rule:nonzero;fill:#953b16;fill-opacity:1;" d="M 28.4375 34.335938 C 28.246094 34.101562 28.035156 33.890625 27.929688 33.601562 C 27.878906 33.464844 27.847656 33.320312 27.851562 33.171875 C 27.855469 33.148438 27.855469 33.09375 27.867188 33.042969 C 27.871094 33.039062 27.871094 33.03125 27.871094 33.023438 C 27.886719 32.976562 27.90625 32.941406 27.945312 32.945312 C 28.097656 32.957031 28.128906 32.710938 27.980469 32.675781 C 27.910156 32.660156 27.847656 32.667969 27.792969 32.695312 C 27.769531 32.632812 27.742188 32.570312 27.710938 32.507812 C 27.652344 32.386719 27.578125 32.261719 27.480469 32.164062 C 27.378906 32.066406 27.242188 31.996094 27.097656 32 C 26.957031 32.003906 26.828125 32.070312 26.75 32.1875 C 26.710938 32.246094 26.71875 32.285156 26.777344 32.320312 C 26.847656 32.359375 27.007812 32.234375 27.175781 32.308594 C 27.339844 32.386719 27.371094 32.519531 27.386719 32.542969 C 27.414062 32.597656 27.492188 32.765625 27.496094 32.773438 C 27.507812 32.800781 27.519531 32.832031 27.53125 32.863281 C 27.546875 32.90625 27.554688 33.363281 27.59375 33.53125 C 27.636719 33.703125 27.714844 33.867188 27.808594 34.015625 C 27.851562 34.09375 27.832031 34.375 27.777344 34.496094 C 27.632812 34.824219 27.484375 34.726562 27.480469 34.722656 C 27.410156 34.675781 27.394531 34.628906 27.390625 34.617188 C 27.386719 34.613281 27.375 34.5625 27.375 34.5625 C 27.375 34.558594 27.375 34.558594 27.375 34.558594 C 27.371094 34.515625 27.363281 34.492188 27.34375 34.453125 C 27.316406 34.398438 27.242188 34.371094 27.183594 34.378906 C 27.113281 34.390625 27.050781 34.453125 27.042969 34.496094 C 27.007812 34.664062 26.949219 34.855469 26.820312 34.972656 C 26.710938 35.070312 26.574219 35.023438 26.59375 34.867188 C 26.613281 34.691406 26.339844 34.628906 26.265625 34.777344 C 26.160156 34.984375 25.992188 35.21875 25.734375 35.21875 C 25.421875 35.214844 25.421875 34.914062 25.421875 34.675781 C 25.425781 34.464844 25.515625 34.03125 25.238281 33.960938 C 25.097656 33.925781 24.980469 34.023438 24.847656 34.050781 C 24.710938 34.074219 24.570312 34.054688 24.445312 33.996094 C 24.238281 33.894531 24.082031 34.167969 24.265625 34.304688 C 24.539062 34.5 25.0625 35 25.089844 35.007812 C 25.101562 35.097656 25.125 35.179688 25.167969 35.257812 C 25.308594 35.511719 25.621094 35.609375 25.894531 35.554688 C 26.089844 35.511719 26.25 35.394531 26.378906 35.246094 C 26.5 35.363281 26.675781 35.417969 26.847656 35.359375 C 26.871094 35.351562 26.890625 35.34375 26.910156 35.332031 C 26.871094 35.378906 26.832031 35.421875 26.792969 35.46875 C 26.660156 35.625 26.511719 35.792969 26.441406 35.988281 C 26.421875 36.054688 26.457031 36.132812 26.515625 36.167969 C 26.582031 36.207031 26.65625 36.191406 26.710938 36.144531 C 26.847656 36.027344 26.945312 35.855469 27.058594 35.71875 C 27.175781 35.578125 27.300781 35.441406 27.433594 35.3125 C 27.558594 35.191406 27.691406 35.074219 27.824219 34.964844 C 27.828125 34.960938 27.832031 34.957031 27.835938 34.957031 C 27.90625 34.898438 27.976562 34.847656 28.050781 34.792969 C 28.132812 34.730469 28.539062 34.457031 28.4375 34.335938 Z M 28.4375 34.335938 "/><path style=" stroke:none;fill-rule:nonzero;fill:#988c54;fill-opacity:1;" d="M 54.5 60.308594 C 53.667969 59.503906 52.8125 58.726562 51.957031 57.945312 C 52.066406 58 52.171875 58.054688 52.28125 58.109375 C 52.445312 58.191406 52.613281 58.269531 52.777344 58.351562 C 52.9375 58.429688 53.105469 58.53125 53.277344 58.585938 C 53.390625 58.621094 53.445312 58.46875 53.355469 58.40625 C 53.207031 58.304688 53.027344 58.238281 52.863281 58.160156 C 52.699219 58.082031 52.535156 58 52.371094 57.921875 C 52.070312 57.777344 51.769531 57.636719 51.464844 57.496094 C 51.375 57.414062 51.28125 57.328125 51.1875 57.246094 C 50.738281 56.832031 50.277344 56.40625 49.703125 56.171875 C 49.394531 56.046875 49.078125 56.007812 48.746094 56.019531 C 48.421875 56.03125 48.105469 56.058594 47.78125 56 C 47.097656 55.875 46.539062 55.515625 46.0625 55.023438 C 45.957031 54.917969 45.757812 55.058594 45.851562 55.1875 C 46.191406 55.660156 46.699219 55.996094 47.242188 56.191406 C 47.519531 56.289062 47.8125 56.347656 48.105469 56.367188 C 48.460938 56.390625 48.820312 56.320312 49.175781 56.378906 C 49.789062 56.476562 50.289062 56.90625 50.730469 57.3125 C 51.277344 57.816406 51.816406 58.328125 52.359375 58.839844 C 52.980469 59.421875 53.601562 60.003906 54.238281 60.570312 C 54.414062 60.730469 54.675781 60.476562 54.5 60.308594 Z M 54.5 60.308594 "/><path style=" stroke:none;fill-rule:nonzero;fill:#4d4d4d;fill-opacity:1;" d="M 50.207031 65.703125 C 49.988281 65.496094 49.734375 65.328125 49.503906 65.136719 C 49.277344 64.949219 49.054688 64.761719 48.835938 64.566406 C 48.390625 64.171875 47.960938 63.757812 47.554688 63.324219 C 47.15625 62.90625 46.757812 62.472656 46.414062 62.007812 C 46.246094 61.78125 46.105469 61.539062 46.058594 61.253906 C 46.015625 60.980469 46.015625 60.703125 45.882812 60.449219 C 45.730469 60.171875 45.464844 59.960938 45.238281 59.746094 C 44.96875 59.488281 44.695312 59.238281 44.414062 58.996094 C 44.28125 58.882812 44.105469 59.054688 44.222656 59.183594 C 44.445312 59.429688 44.675781 59.664062 44.910156 59.898438 C 45.117188 60.101562 45.359375 60.296875 45.519531 60.542969 C 45.679688 60.792969 45.660156 61.09375 45.710938 61.378906 C 45.757812 61.644531 45.878906 61.890625 46.03125 62.109375 C 46.359375 62.585938 46.761719 63.019531 47.152344 63.445312 C 47.558594 63.878906 47.980469 64.300781 48.417969 64.699219 C 48.671875 64.929688 48.925781 65.152344 49.191406 65.367188 C 49.445312 65.578125 49.707031 65.8125 49.992188 65.980469 C 50.164062 66.082031 50.359375 65.84375 50.207031 65.703125 Z M 50.207031 65.703125 "/><path style=" stroke:none;fill-rule:nonzero;fill:#988c54;fill-opacity:1;" d="M 25.796875 46.449219 C 25.546875 47.15625 25.296875 47.859375 25.058594 48.574219 C 24.847656 49.210938 24.625 49.84375 24.234375 50.394531 C 24.089844 50.597656 24.425781 50.792969 24.566406 50.589844 C 24.960938 50.027344 25.195312 49.375 25.402344 48.722656 C 25.632812 47.992188 25.847656 47.257812 26.0625 46.523438 C 26.113281 46.351562 25.855469 46.285156 25.796875 46.449219 Z M 25.796875 46.449219 "/><path style=" stroke:none;fill-rule:nonzero;fill:#988c54;fill-opacity:1;" d="M 46.246094 45.050781 C 45.648438 45.367188 45.039062 45.644531 44.390625 45.851562 C 43.539062 46.121094 42.65625 46.28125 41.765625 46.292969 C 40.191406 46.316406 38.628906 45.851562 37.359375 44.914062 C 36.988281 44.640625 36.648438 44.328125 36.351562 43.980469 C 36.292969 43.996094 36.234375 44.011719 36.175781 44.03125 C 36.914062 44.925781 37.898438 45.605469 38.992188 46.023438 C 40.625 46.648438 42.429688 46.628906 44.101562 46.160156 C 44.917969 45.929688 45.734375 45.605469 46.472656 45.171875 C 46.394531 45.132812 46.320312 45.089844 46.246094 45.050781 Z M 46.246094 45.050781 "/><path style=" stroke:none;fill-rule:nonzero;fill:#988c54;fill-opacity:1;" d="M 50.472656 47.640625 C 49.582031 48.707031 48.832031 49.894531 48.25 51.136719 C 47.921875 51.84375 47.65625 52.574219 47.4375 53.320312 C 47.410156 53.40625 47.546875 53.445312 47.574219 53.355469 C 48.203125 51.328125 49.25 49.425781 50.617188 47.792969 C 50.570312 47.742188 50.523438 47.691406 50.472656 47.640625 Z M 50.472656 47.640625 "/><path style=" stroke:none;fill-rule:nonzero;fill:#988c54;fill-opacity:1;" d="M 25.59375 42.816406 C 25.167969 42.800781 24.988281 42.457031 24.679688 42.226562 C 24.378906 41.996094 24.023438 42.011719 23.664062 42.03125 C 23.253906 42.054688 22.914062 41.972656 22.566406 41.746094 C 22.398438 41.636719 22.246094 41.507812 22.09375 41.378906 C 21.941406 41.246094 21.78125 41.121094 21.664062 40.957031 C 21.609375 40.878906 21.480469 40.949219 21.53125 41.03125 C 21.746094 41.351562 22.078125 41.625 22.386719 41.847656 C 22.710938 42.085938 23.074219 42.234375 23.476562 42.230469 C 23.691406 42.230469 23.902344 42.203125 24.117188 42.21875 C 24.355469 42.238281 24.535156 42.351562 24.703125 42.515625 C 24.9375 42.75 25.242188 43.105469 25.617188 43.007812 C 25.726562 42.976562 25.699219 42.820312 25.59375 42.816406 Z M 25.59375 42.816406 "/><path style=" stroke:none;fill-rule:nonzero;fill:#988c54;fill-opacity:1;" d="M 49.296875 57.425781 C 49.195312 57.582031 49.121094 57.742188 48.988281 57.882812 C 48.863281 58.011719 48.714844 58.089844 48.582031 58.199219 C 48.457031 58.300781 48.425781 58.433594 48.421875 58.585938 C 48.421875 58.777344 48.398438 58.957031 48.328125 59.136719 C 48.191406 59.488281 47.9375 59.777344 47.683594 60.050781 C 47.4375 60.316406 47.101562 60.726562 46.691406 60.640625 C 46.605469 60.621094 46.566406 60.753906 46.65625 60.777344 C 47.035156 60.871094 47.363281 60.632812 47.625 60.378906 C 47.910156 60.105469 48.195312 59.800781 48.394531 59.453125 C 48.488281 59.292969 48.5625 59.117188 48.597656 58.933594 C 48.636719 58.738281 48.566406 58.46875 48.742188 58.339844 C 49.042969 58.121094 49.371094 57.882812 49.480469 57.503906 C 49.515625 57.390625 49.355469 57.328125 49.296875 57.425781 Z M 49.296875 57.425781 "/><path style=" stroke:none;fill-rule:nonzero;fill:#988c54;fill-opacity:1;" d="M 32.128906 50.722656 C 31.988281 48.890625 32.027344 47.050781 32.25 45.230469 C 32.171875 45.257812 32.097656 45.289062 32.023438 45.320312 C 31.902344 46.359375 31.84375 47.402344 31.84375 48.449219 C 31.84375 49.207031 31.878906 49.964844 31.945312 50.722656 C 31.957031 50.839844 32.140625 50.839844 32.128906 50.722656 Z M 32.128906 50.722656 "/><path style=" stroke:none;fill-rule:nonzero;fill:#dde5ec;fill-opacity:1;" d="M 38.269531 63.945312 L 41.46875 64.535156 L 41.46875 65.25 L 38.269531 65.214844 Z M 38.269531 63.945312 "/><path style=" stroke:none;fill-rule:nonzero;fill:#ffffff;fill-opacity:1;" d="M 38.269531 65.214844 C 38.269531 65.214844 38.296875 64.324219 38.269531 63.945312 C 38.269531 63.945312 37.890625 63.96875 37.382812 64.300781 C 36.871094 64.632812 36.542969 64.730469 34.863281 64.554688 C 33.15625 64.378906 32.472656 64.273438 31.25 64.328125 C 30.027344 64.378906 29.238281 65.113281 29.238281 65.113281 C 29.238281 65.113281 28.5 64.199219 26.671875 64.148438 C 24.839844 64.097656 23.007812 64.632812 22.804688 64.65625 C 22.597656 64.683594 22.542969 64.636719 22.542969 64.636719 L 22.542969 65.230469 L 38.28125 65.230469 "/><path style=" stroke:none;fill-rule:nonzero;fill:#dde5ec;fill-opacity:1;" d="M 28.613281 64.824219 C 27.671875 64.371094 26.601562 64.332031 25.574219 64.421875 C 25.5 64.425781 25.5 64.542969 25.574219 64.539062 C 26.578125 64.449219 27.632812 64.480469 28.554688 64.925781 C 28.625 64.957031 28.683594 64.859375 28.613281 64.824219 Z M 28.613281 64.824219 "/><path style=" stroke:none;fill-rule:nonzero;fill:#dde5ec;fill-opacity:1;" d="M 25.035156 64.417969 C 24.296875 64.582031 23.554688 64.730469 22.808594 64.859375 C 22.734375 64.871094 22.765625 64.984375 22.839844 64.972656 C 23.585938 64.84375 24.328125 64.695312 25.0625 64.53125 C 25.136719 64.511719 25.105469 64.398438 25.035156 64.417969 Z M 25.035156 64.417969 "/><path style=" stroke:none;fill-rule:nonzero;fill:#dde5ec;fill-opacity:1;" d="M 27.589844 64.835938 C 26.542969 64.652344 25.464844 64.679688 24.429688 64.917969 C 24.355469 64.933594 24.386719 65.046875 24.460938 65.027344 C 25.476562 64.800781 26.53125 64.769531 27.558594 64.949219 C 27.632812 64.960938 27.664062 64.847656 27.589844 64.835938 Z M 27.589844 64.835938 "/><path style=" stroke:none;fill-rule:nonzero;fill:#dde5ec;fill-opacity:1;" d="M 35.714844 64.730469 C 34.492188 64.789062 33.289062 64.476562 32.070312 64.46875 C 31.730469 64.46875 31.386719 64.492188 31.050781 64.554688 C 30.976562 64.566406 31.007812 64.679688 31.082031 64.667969 C 32.285156 64.449219 33.5 64.730469 34.699219 64.828125 C 35.035156 64.851562 35.375 64.863281 35.714844 64.847656 C 35.789062 64.84375 35.789062 64.726562 35.714844 64.730469 Z M 35.714844 64.730469 "/><path style=" stroke:none;fill-rule:nonzero;fill:#dde5ec;fill-opacity:1;" d="M 37.878906 64.238281 C 37.480469 64.484375 37.035156 64.644531 36.570312 64.710938 C 36.496094 64.722656 36.527344 64.835938 36.601562 64.824219 C 37.074219 64.753906 37.53125 64.589844 37.9375 64.339844 C 38.003906 64.300781 37.945312 64.199219 37.878906 64.238281 Z M 37.878906 64.238281 "/><path style=" stroke:none;fill-rule:nonzero;fill:#82272c;fill-opacity:1;" d="M 39.523438 64.9375 L 45.140625 64.9375 C 45.796875 64.164062 46.28125 63.007812 45.683594 62.210938 C 45.207031 61.582031 44.496094 61.523438 43.855469 61.761719 C 43.671875 61.636719 43.460938 61.550781 43.222656 61.519531 C 42.308594 61.398438 41.324219 61.941406 40.660156 62.527344 C 40.035156 63.078125 39.359375 63.945312 39.539062 64.828125 C 39.519531 64.859375 39.515625 64.898438 39.523438 64.9375 Z M 39.523438 64.9375 "/><path style=" stroke:none;fill-rule:nonzero;fill:#641301;fill-opacity:1;" d="M 44.234375 61.8125 C 44.039062 61.648438 43.765625 61.910156 43.949219 62.101562 C 44.761719 62.9375 44.300781 64 43.6875 64.785156 C 43.515625 65.003906 43.789062 65.300781 43.996094 65.097656 C 44.832031 64.261719 45.265625 62.683594 44.234375 61.8125 Z M 44.234375 61.8125 "/><path style=" stroke:none;fill-rule:nonzero;fill:#641301;fill-opacity:1;" d="M 42.933594 62.347656 C 42.933594 62.320312 42.929688 62.292969 42.925781 62.265625 C 42.917969 62.246094 42.90625 62.222656 42.898438 62.203125 C 42.894531 62.195312 42.890625 62.183594 42.890625 62.179688 C 42.890625 62.179688 42.890625 62.179688 42.890625 62.175781 C 42.890625 62.175781 42.890625 62.171875 42.890625 62.167969 C 42.890625 62.164062 42.890625 62.15625 42.890625 62.148438 C 42.917969 62.027344 42.855469 61.882812 42.722656 61.851562 C 42.597656 61.824219 42.457031 61.890625 42.425781 62.019531 C 42.402344 62.113281 42.402344 62.199219 42.417969 62.292969 C 42.425781 62.328125 42.4375 62.359375 42.453125 62.394531 C 42.480469 62.464844 42.515625 62.503906 42.578125 62.550781 C 42.714844 62.652344 42.957031 62.519531 42.933594 62.347656 Z M 42.933594 62.347656 "/><path style=" stroke:none;fill-rule:nonzero;fill:#641301;fill-opacity:1;" d="M 41.226562 63.886719 C 41.167969 63.78125 41.0625 63.714844 40.960938 63.65625 C 40.859375 63.601562 40.730469 63.625 40.660156 63.714844 C 40.597656 63.800781 40.589844 63.945312 40.679688 64.019531 C 40.726562 64.0625 40.777344 64.097656 40.832031 64.132812 C 40.898438 64.179688 40.964844 64.195312 41.042969 64.203125 C 41.117188 64.210938 41.191406 64.15625 41.226562 64.101562 C 41.265625 64.03125 41.261719 63.957031 41.226562 63.886719 Z M 41.226562 63.886719 "/><path style=" stroke:none;fill-rule:nonzero;fill:#641301;fill-opacity:1;" d="M 43.855469 63.480469 C 43.835938 63.425781 43.816406 63.367188 43.769531 63.328125 C 43.695312 63.265625 43.605469 63.238281 43.511719 63.277344 C 43.429688 63.3125 43.359375 63.402344 43.367188 63.492188 C 43.371094 63.558594 43.390625 63.609375 43.425781 63.664062 C 43.492188 63.761719 43.605469 63.804688 43.71875 63.757812 C 43.820312 63.714844 43.890625 63.59375 43.855469 63.480469 Z M 43.855469 63.480469 "/><path style=" stroke:none;fill-rule:nonzero;fill:#641301;fill-opacity:1;" d="M 45.730469 62.433594 C 45.636719 62.394531 45.546875 62.417969 45.472656 62.480469 C 45.425781 62.523438 45.398438 62.578125 45.375 62.636719 C 45.355469 62.6875 45.371094 62.777344 45.402344 62.824219 C 45.425781 62.863281 45.457031 62.894531 45.5 62.914062 C 45.617188 62.976562 45.769531 62.925781 45.832031 62.8125 C 45.859375 62.761719 45.871094 62.707031 45.875 62.648438 C 45.878906 62.554688 45.808594 62.46875 45.730469 62.433594 Z M 45.730469 62.433594 "/><path style=" stroke:none;fill-rule:nonzero;fill:#5f7ab1;fill-opacity:1;" d="M 39.242188 64.085938 C 39.242188 64.085938 39.410156 65.597656 39.578125 65.683594 C 39.746094 65.769531 45.636719 65.769531 45.722656 65.769531 C 45.808594 65.769531 46.058594 64.421875 46.058594 64.253906 C 46.058594 64.085938 39.242188 64.085938 39.242188 64.085938 Z M 39.242188 64.085938 "/><path style=" stroke:none;fill-rule:nonzero;fill:#333a74;fill-opacity:1;" d="M 43.359375 64.378906 C 43.355469 64.28125 43.199219 64.277344 43.203125 64.378906 C 43.222656 64.820312 43.132812 65.210938 43.003906 65.628906 C 42.980469 65.710938 43.109375 65.769531 43.148438 65.6875 C 43.328125 65.285156 43.382812 64.820312 43.359375 64.378906 Z M 43.359375 64.378906 "/><path style=" stroke:none;fill-rule:nonzero;fill:#4a3333;fill-opacity:1;" d="M 23.8125 67 L 48.378906 67 C 48.390625 66.328125 48.375 65.351562 48.175781 65.230469 C 47.886719 65.058594 25.625 65.207031 22.546875 65.230469 L 22.546875 65.734375 C 22.546875 66.429688 23.113281 67 23.8125 67 Z M 23.8125 67 "/><g clip-rule="nonzero" clip-path="url(#a178e8e063)"><path style=" stroke:none;fill-rule:nonzero;fill:#000000;fill-opacity:1;" d="M 24.929688 11.089844 C 25.355469 11.089844 25.753906 11.101562 26.121094 11.117188 C 29.667969 11.273438 32.152344 11.773438 33.574219 12.621094 C 33.582031 12.625 33.59375 12.632812 33.605469 12.636719 C 34.660156 13.105469 35.445312 14.101562 35.960938 15.628906 C 35.96875 15.648438 35.980469 15.671875 35.992188 15.691406 C 36.316406 16.199219 36.433594 18.449219 36.347656 22.445312 C 36.347656 22.457031 36.347656 22.46875 36.351562 22.484375 C 36.414062 23.03125 36.523438 23.449219 36.6875 23.742188 C 37.027344 24.359375 37.355469 24.769531 37.675781 24.980469 C 37.910156 25.203125 38.585938 25.617188 39.699219 26.230469 C 36.046875 25.921875 33.480469 25.578125 32.003906 25.203125 C 31.980469 25.199219 31.957031 25.195312 31.929688 25.195312 C 31.917969 25.195312 31.902344 25.195312 31.890625 25.199219 C 27.1875 25.851562 22.9375 26.179688 19.148438 26.179688 C 17.988281 26.179688 16.875 26.148438 15.804688 26.089844 C 12.9375 25.8125 11.050781 25.167969 10.136719 24.160156 L 10.136719 24.15625 C 8.832031 22.726562 8.148438 20.851562 8.089844 18.527344 L 8.085938 18.527344 C 8.125 16.152344 8.804688 14.328125 10.117188 13.054688 C 11.171875 12.132812 12.464844 11.546875 13.996094 11.304688 C 13.90625 11.363281 13.847656 11.46875 13.863281 11.582031 C 13.878906 11.730469 14.007812 11.839844 14.152344 11.839844 C 14.164062 11.839844 14.175781 11.839844 14.1875 11.839844 C 18.160156 11.398438 21.375 11.152344 23.832031 11.097656 C 24.132812 11.113281 24.433594 11.128906 24.742188 11.144531 C 24.746094 11.144531 24.753906 11.144531 24.757812 11.144531 C 24.820312 11.144531 24.878906 11.125 24.925781 11.089844 Z M 19.382812 10.410156 C 17.445312 10.410156 15.855469 10.488281 14.609375 10.644531 C 12.65625 10.824219 11.027344 11.480469 9.726562 12.621094 C 9.722656 12.625 9.71875 12.628906 9.714844 12.628906 C 8.28125 14.015625 7.542969 15.976562 7.5 18.515625 C 7.5 18.523438 7.5 18.527344 7.5 18.53125 C 7.5625 21 8.296875 23.007812 9.699219 24.546875 C 10.714844 25.667969 12.734375 26.375 15.75 26.667969 C 15.753906 26.667969 15.757812 26.667969 15.761719 26.667969 C 16.847656 26.730469 17.976562 26.761719 19.144531 26.761719 C 22.949219 26.761719 27.207031 26.433594 31.914062 25.78125 C 33.578125 26.195312 36.515625 26.566406 40.734375 26.894531 C 40.742188 26.894531 40.75 26.894531 40.753906 26.894531 C 40.773438 26.894531 40.789062 26.894531 40.804688 26.890625 C 40.824219 26.890625 40.835938 26.886719 40.851562 26.882812 C 40.960938 26.855469 41.039062 26.804688 41.089844 26.726562 C 41.195312 26.5625 41.160156 26.410156 40.988281 26.273438 C 40.96875 26.257812 40.945312 26.242188 40.917969 26.226562 C 40.914062 26.222656 40.90625 26.21875 40.902344 26.214844 C 39.222656 25.324219 38.28125 24.773438 38.074219 24.554688 C 38.058594 24.535156 38.039062 24.519531 38.015625 24.507812 C 37.777344 24.355469 37.503906 24.007812 37.203125 23.464844 C 37.078125 23.242188 36.992188 22.902344 36.9375 22.441406 C 37.023438 18.417969 36.882812 16.078125 36.511719 15.417969 C 35.941406 13.753906 35.058594 12.652344 33.863281 12.113281 C 32.355469 11.222656 29.78125 10.695312 26.148438 10.535156 C 25.726562 10.515625 25.273438 10.507812 24.785156 10.507812 C 24.484375 10.507812 24.167969 10.511719 23.84375 10.519531 C 22.195312 10.445312 20.707031 10.410156 19.382812 10.410156 Z M 19.382812 10.410156 "/></g><g clip-rule="nonzero" clip-path="url(#96c0bb8345)"><path style=" stroke:none;fill-rule:nonzero;fill:#fefefe;fill-opacity:1;" d="M 24.925781 11.058594 C 24.921875 11.058594 24.914062 11.0625 24.910156 11.066406 C 24.867188 11.09375 24.8125 11.113281 24.757812 11.113281 C 24.753906 11.113281 24.746094 11.113281 24.742188 11.113281 C 24.433594 11.097656 24.132812 11.082031 23.835938 11.070312 L 23.832031 11.070312 C 21.375 11.121094 18.15625 11.367188 14.183594 11.808594 C 14.171875 11.808594 14.164062 11.8125 14.152344 11.8125 C 14.019531 11.8125 13.90625 11.710938 13.890625 11.578125 C 13.878906 11.476562 13.929688 11.382812 14.011719 11.328125 C 14.023438 11.324219 14.027344 11.3125 14.027344 11.300781 C 14.023438 11.289062 14.015625 11.277344 14.003906 11.277344 L 14 11.277344 L 13.992188 11.273438 C 12.453125 11.519531 11.15625 12.105469 10.097656 13.03125 C 10.09375 13.035156 10.09375 13.035156 10.089844 13.039062 C 8.773438 14.316406 8.097656 16.144531 8.058594 18.527344 C 8.058594 18.527344 8.058594 18.53125 8.058594 18.535156 C 8.121094 20.863281 8.804688 22.742188 10.113281 24.179688 C 11.03125 25.195312 12.929688 25.839844 15.800781 26.117188 L 15.804688 26.117188 L 15.800781 26.117188 C 16.875 26.179688 17.988281 26.210938 19.148438 26.210938 C 22.941406 26.210938 27.1875 25.882812 31.894531 25.226562 C 31.90625 25.226562 31.917969 25.226562 31.929688 25.226562 C 31.953125 25.226562 31.976562 25.226562 31.996094 25.234375 C 33.476562 25.609375 36.042969 25.949219 39.695312 26.257812 C 39.695312 26.257812 39.699219 26.257812 39.699219 26.257812 C 39.710938 26.257812 39.722656 26.25 39.726562 26.238281 C 39.730469 26.222656 39.726562 26.210938 39.714844 26.203125 C 38.609375 25.597656 37.941406 25.1875 37.703125 24.964844 C 37.699219 24.960938 37.695312 24.957031 37.691406 24.957031 C 37.378906 24.75 37.050781 24.339844 36.710938 23.726562 C 36.554688 23.441406 36.441406 23.023438 36.378906 22.480469 C 36.378906 22.46875 36.378906 22.457031 36.378906 22.445312 C 36.464844 18.445312 36.34375 16.1875 36.015625 15.675781 C 36.007812 15.65625 35.996094 15.636719 35.988281 15.617188 C 35.472656 14.082031 34.679688 13.082031 33.617188 12.609375 C 33.605469 12.605469 33.597656 12.601562 33.589844 12.59375 C 32.164062 11.746094 29.675781 11.242188 26.125 11.085938 C 25.753906 11.070312 25.355469 11.0625 24.929688 11.058594 Z M 24.925781 11.058594 "/></g><g clip-rule="nonzero" clip-path="url(#e73717ea91)"><path style=" stroke:none;fill-rule:nonzero;fill:#000000;fill-opacity:1;" d="M 33.460938 34.121094 L 32.371094 34.121094 L 32.371094 34.21875 C 32.371094 34.234375 32.371094 34.253906 32.371094 34.277344 C 32.371094 34.277344 32.371094 34.285156 32.371094 34.285156 L 33.460938 34.285156 C 33.460938 34.234375 33.460938 34.1875 33.460938 34.136719 C 33.460938 34.128906 33.460938 34.121094 33.460938 34.121094 Z M 33.460938 34.121094 "/><path style=" stroke:none;fill-rule:nonzero;fill:#000000;fill-opacity:1;" d="M 32.390625 34.46875 C 32.433594 34.578125 32.542969 34.660156 32.6875 34.699219 C 32.6875 34.734375 32.699219 34.792969 32.734375 34.84375 C 32.777344 34.890625 32.835938 34.917969 32.90625 34.917969 C 32.980469 34.917969 33.042969 34.898438 33.078125 34.851562 C 33.121094 34.808594 33.136719 34.75 33.144531 34.710938 C 33.171875 34.703125 33.203125 34.699219 33.230469 34.691406 C 33.316406 34.652344 33.378906 34.585938 33.421875 34.5 C 33.4375 34.46875 33.445312 34.441406 33.453125 34.410156 L 32.371094 34.410156 C 32.378906 34.417969 32.378906 34.445312 32.390625 34.46875 Z M 32.878906 34.71875 C 32.902344 34.71875 32.914062 34.71875 32.9375 34.71875 L 32.972656 34.71875 C 32.992188 34.71875 33.015625 34.71875 33.035156 34.71875 C 33.03125 34.734375 33.023438 34.75 33.015625 34.765625 C 32.992188 34.785156 32.964844 34.800781 32.921875 34.800781 C 32.878906 34.800781 32.851562 34.792969 32.835938 34.769531 C 32.820312 34.757812 32.820312 34.742188 32.816406 34.71875 C 32.828125 34.71875 32.851562 34.71875 32.878906 34.71875 Z M 32.878906 34.71875 "/></g><g clip-rule="nonzero" clip-path="url(#1700b26f18)"><path style=" stroke:none;fill-rule:nonzero;fill:#000000;fill-opacity:1;" d="M 32.371094 33.894531 L 32.371094 34.003906 L 33.460938 34.003906 L 33.460938 33.894531 Z M 32.371094 33.894531 "/></g><g clip-rule="nonzero" clip-path="url(#6d62ec1284)"><path style=" stroke:none;fill-rule:nonzero;fill:#000000;fill-opacity:1;" d="M 31.109375 31.285156 L 30.480469 31.054688 C 30.421875 31.035156 30.359375 31.070312 30.335938 31.128906 C 30.316406 31.1875 30.351562 31.253906 30.40625 31.277344 L 31.039062 31.507812 C 31.050781 31.511719 31.058594 31.511719 31.074219 31.511719 C 31.125 31.511719 31.167969 31.484375 31.179688 31.433594 C 31.203125 31.367188 31.175781 31.300781 31.109375 31.285156 Z M 31.109375 31.285156 "/></g><path style=" stroke:none;fill-rule:nonzero;fill:#000000;fill-opacity:1;" d="M 31.566406 30.335938 C 31.589844 30.363281 31.617188 30.371094 31.652344 30.371094 C 31.683594 30.371094 31.703125 30.363281 31.726562 30.339844 C 31.777344 30.296875 31.777344 30.222656 31.738281 30.179688 L 31.304688 29.65625 C 31.261719 29.605469 31.1875 29.605469 31.144531 29.640625 C 31.09375 29.6875 31.09375 29.757812 31.132812 29.804688 Z M 31.566406 30.335938 "/><g clip-rule="nonzero" clip-path="url(#3ff7f68e75)"><path style=" stroke:none;fill-rule:nonzero;fill:#000000;fill-opacity:1;" d="M 32.886719 29.890625 C 32.949219 29.890625 33 29.839844 33 29.773438 L 32.992188 29.082031 C 32.992188 29.015625 32.945312 28.964844 32.878906 28.964844 C 32.816406 28.964844 32.765625 29.015625 32.765625 29.082031 L 32.773438 29.773438 C 32.773438 29.839844 32.820312 29.890625 32.886719 29.890625 Z M 32.886719 29.890625 "/></g><path style=" stroke:none;fill-rule:nonzero;fill:#000000;fill-opacity:1;" d="M 34.648438 29.632812 C 34.597656 29.597656 34.527344 29.605469 34.492188 29.65625 L 34.082031 30.210938 C 34.046875 30.261719 34.054688 30.335938 34.105469 30.371094 C 34.125 30.386719 34.148438 30.394531 34.175781 30.394531 C 34.210938 30.394531 34.238281 30.378906 34.269531 30.347656 L 34.675781 29.796875 C 34.707031 29.746094 34.699219 29.671875 34.648438 29.632812 Z M 34.648438 29.632812 "/><g clip-rule="nonzero" clip-path="url(#a6a095850f)"><path style=" stroke:none;fill-rule:nonzero;fill:#000000;fill-opacity:1;" d="M 35.550781 31.183594 C 35.535156 31.121094 35.472656 31.078125 35.414062 31.09375 L 34.761719 31.261719 C 34.707031 31.277344 34.664062 31.34375 34.675781 31.402344 C 34.691406 31.453125 34.734375 31.492188 34.785156 31.492188 C 34.792969 31.492188 34.804688 31.492188 34.8125 31.492188 L 35.464844 31.320312 C 35.527344 31.308594 35.566406 31.25 35.550781 31.183594 Z M 35.550781 31.183594 "/></g><path style=" stroke:none;fill-rule:nonzero;fill:#000000;fill-opacity:1;" d="M 32.945312 30.40625 C 32.140625 30.40625 31.480469 31.085938 31.480469 31.910156 C 31.480469 32.339844 31.660156 32.746094 31.96875 33.03125 C 31.96875 33.03125 31.976562 33.039062 31.976562 33.039062 C 31.976562 33.039062 32.085938 33.121094 32.070312 33.261719 C 32.070312 33.289062 32.0625 33.3125 32.054688 33.339844 C 32.035156 33.464844 32.011719 33.628906 32.113281 33.746094 L 32.785156 33.746094 C 32.792969 33.738281 32.980469 33.527344 32.878906 33.023438 C 32.871094 32.980469 32.902344 32.9375 32.945312 32.921875 C 32.988281 32.914062 33.035156 32.945312 33.042969 32.988281 C 33.121094 33.371094 33.050781 33.621094 32.980469 33.753906 L 33.71875 33.753906 C 33.824219 33.652344 33.867188 33.496094 33.832031 33.296875 C 33.796875 33.105469 33.933594 33.015625 33.945312 33.003906 C 33.953125 32.996094 33.960938 32.988281 33.96875 32.980469 C 34.246094 32.691406 34.398438 32.316406 34.398438 31.917969 C 34.40625 31.078125 33.746094 30.40625 32.945312 30.40625 Z M 32.894531 31.441406 C 32.886719 31.433594 32.871094 31.433594 32.859375 31.441406 C 32.722656 31.476562 32.644531 31.320312 32.636719 31.316406 C 32.621094 31.285156 32.585938 31.277344 32.558594 31.292969 C 32.527344 31.308594 32.519531 31.34375 32.535156 31.375 C 32.570312 31.445312 32.671875 31.566406 32.816406 31.566406 C 32.835938 31.566406 32.859375 31.566406 32.886719 31.558594 C 32.886719 31.558594 32.886719 31.558594 32.894531 31.558594 L 32.894531 32.863281 C 32.851562 32.898438 32.714844 32.996094 32.601562 32.945312 C 32.464844 32.878906 32.464844 32.722656 32.464844 32.714844 C 32.464844 32.714844 32.464844 32.707031 32.464844 32.707031 L 32.636719 32.472656 C 32.664062 32.433594 32.730469 32.472656 32.730469 32.472656 C 32.757812 32.488281 32.792969 32.480469 32.808594 32.449219 C 32.820312 32.421875 32.816406 32.382812 32.785156 32.367188 C 32.75 32.347656 32.691406 32.324219 32.636719 32.339844 C 32.628906 32.265625 32.601562 32.175781 32.550781 32.140625 C 32.527344 32.117188 32.492188 32.125 32.472656 32.15625 C 32.449219 32.183594 32.457031 32.214844 32.484375 32.234375 C 32.515625 32.257812 32.527344 32.355469 32.535156 32.421875 L 32.363281 32.648438 C 32.363281 32.65625 32.355469 32.65625 32.355469 32.664062 C 32.3125 32.664062 32.242188 32.65625 32.191406 32.566406 C 32.121094 32.425781 32.175781 32.292969 32.183594 32.289062 C 32.199219 32.257812 32.183594 32.226562 32.164062 32.214844 C 32.097656 32.175781 32.027344 32.109375 32.042969 31.933594 C 32.046875 31.808594 32.171875 31.726562 32.214844 31.699219 C 32.277344 31.707031 32.398438 31.742188 32.457031 31.808594 C 32.40625 31.84375 32.378906 31.890625 32.355469 31.933594 C 32.34375 31.964844 32.355469 32 32.386719 32.007812 C 32.390625 32.015625 32.398438 32.015625 32.40625 32.015625 C 32.429688 32.015625 32.449219 32 32.457031 31.984375 C 32.464844 31.96875 32.527344 31.835938 32.65625 31.890625 C 32.6875 31.902344 32.722656 31.890625 32.730469 31.859375 C 32.742188 31.832031 32.730469 31.792969 32.699219 31.785156 C 32.648438 31.765625 32.605469 31.765625 32.5625 31.773438 C 32.484375 31.644531 32.292969 31.609375 32.226562 31.59375 C 32.214844 31.574219 32.175781 31.519531 32.21875 31.402344 C 32.277344 31.25 32.464844 31.234375 32.472656 31.234375 C 32.492188 31.234375 32.515625 31.21875 32.519531 31.195312 C 32.5625 31.085938 32.628906 31.027344 32.691406 31.003906 C 32.773438 30.984375 32.859375 31.027344 32.894531 31.054688 Z M 33.882812 32.007812 C 33.875 32.035156 33.859375 32.066406 33.839844 32.101562 C 33.824219 32.117188 33.761719 32.15625 33.703125 32.175781 C 33.675781 32.183594 33.660156 32.207031 33.660156 32.226562 C 33.660156 32.257812 33.679688 32.289062 33.695312 32.316406 C 33.710938 32.339844 33.722656 32.359375 33.730469 32.375 C 33.746094 32.441406 33.730469 32.515625 33.695312 32.566406 C 33.667969 32.613281 33.617188 32.632812 33.566406 32.640625 C 33.550781 32.640625 33.546875 32.640625 33.539062 32.640625 C 33.53125 32.574219 33.503906 32.488281 33.421875 32.425781 C 33.445312 32.390625 33.464844 32.355469 33.488281 32.300781 C 33.503906 32.273438 33.488281 32.234375 33.460938 32.226562 C 33.429688 32.214844 33.394531 32.226562 33.386719 32.257812 C 33.316406 32.421875 33.257812 32.457031 33.222656 32.472656 C 33.195312 32.480469 33.179688 32.472656 33.171875 32.472656 C 33.144531 32.457031 33.117188 32.464844 33.09375 32.492188 C 33.078125 32.523438 33.085938 32.558594 33.117188 32.574219 C 33.121094 32.574219 33.152344 32.597656 33.195312 32.597656 C 33.207031 32.597656 33.230469 32.597656 33.25 32.589844 C 33.289062 32.574219 33.316406 32.554688 33.351562 32.523438 C 33.4375 32.582031 33.429688 32.679688 33.429688 32.691406 C 33.429688 32.699219 33.429688 32.707031 33.429688 32.707031 C 33.417969 32.730469 33.410156 32.75 33.394531 32.773438 C 33.359375 32.839844 33.34375 32.882812 33.273438 32.914062 C 33.164062 32.964844 33.058594 32.882812 33.015625 32.855469 L 33.015625 32.082031 C 33.085938 32.183594 33.164062 32.234375 33.257812 32.234375 C 33.265625 32.234375 33.265625 32.234375 33.273438 32.234375 C 33.292969 32.234375 33.308594 32.222656 33.316406 32.207031 C 33.324219 32.191406 33.332031 32.167969 33.316406 32.15625 C 33.316406 32.15625 33.246094 31.984375 33.308594 31.890625 C 33.332031 31.859375 33.324219 31.832031 33.292969 31.808594 C 33.265625 31.785156 33.238281 31.792969 33.214844 31.824219 C 33.152344 31.910156 33.160156 32.023438 33.179688 32.101562 C 33.101562 32.058594 33.058594 31.949219 33.035156 31.902344 L 33.03125 31.890625 C 33.023438 31.867188 33.015625 31.859375 33.007812 31.859375 L 33.007812 31.027344 C 33.109375 30.910156 33.246094 30.976562 33.25 30.984375 C 33.335938 31.042969 33.359375 31.109375 33.335938 31.195312 C 33.332031 31.226562 33.34375 31.253906 33.367188 31.261719 C 33.386719 31.277344 33.421875 31.269531 33.4375 31.25 C 33.453125 31.226562 33.480469 31.21875 33.503906 31.21875 C 33.582031 31.226562 33.667969 31.320312 33.6875 31.402344 C 33.695312 31.433594 33.695312 31.535156 33.6875 31.585938 C 33.625 31.574219 33.539062 31.574219 33.472656 31.617188 C 33.410156 31.550781 33.332031 31.527344 33.324219 31.519531 C 33.292969 31.511719 33.257812 31.527344 33.25 31.558594 C 33.246094 31.585938 33.257812 31.625 33.289062 31.632812 C 33.289062 31.632812 33.375 31.660156 33.421875 31.734375 C 33.445312 31.765625 33.453125 31.792969 33.460938 31.824219 C 33.460938 31.851562 33.488281 31.875 33.515625 31.875 C 33.515625 31.875 33.515625 31.875 33.523438 31.875 C 33.550781 31.875 33.582031 31.84375 33.574219 31.816406 C 33.574219 31.777344 33.558594 31.742188 33.546875 31.707031 C 33.589844 31.683594 33.660156 31.691406 33.6875 31.707031 C 33.71875 31.726562 33.789062 31.800781 33.796875 31.808594 C 33.867188 31.890625 33.894531 31.949219 33.882812 32.007812 Z M 33.882812 32.007812 "/><g clip-rule="nonzero" clip-path="url(#4c73406031)"><path style=" stroke:none;fill-rule:evenodd;fill:#8399fe;fill-opacity:1;" d="M 21.929688 20.992188 C 24.335938 20.992188 26.296875 19.019531 26.296875 16.597656 C 26.296875 14.179688 24.335938 12.207031 21.929688 12.207031 C 19.527344 12.207031 17.566406 14.179688 17.566406 16.597656 C 17.566406 19.019531 19.527344 20.992188 21.929688 20.992188 Z M 21.929688 20.992188 "/></g><g clip-rule="nonzero" clip-path="url(#0407374eba)"><path style=" stroke:none;fill-rule:evenodd;fill:#728bf1;fill-opacity:1;" d="M 21.929688 12.207031 C 22.078125 12.207031 22.226562 12.214844 22.371094 12.230469 C 20.167969 12.453125 18.445312 14.324219 18.445312 16.597656 C 18.445312 18.875 20.167969 20.75 22.371094 20.96875 C 22.226562 20.984375 22.078125 20.992188 21.929688 20.992188 C 19.519531 20.992188 17.566406 19.027344 17.566406 16.597656 C 17.566406 14.171875 19.519531 12.207031 21.929688 12.207031 Z M 21.929688 12.207031 "/></g><path style=" stroke:none;fill-rule:evenodd;fill:#00d696;fill-opacity:1;" d="M 24.554688 20.109375 C 23.824219 20.664062 22.914062 20.992188 21.929688 20.992188 C 20.945312 20.992188 20.039062 20.664062 19.308594 20.109375 C 19.308594 20.089844 19.304688 20.070312 19.304688 20.046875 C 19.304688 18.957031 20.480469 18.074219 21.929688 18.074219 C 23.382812 18.074219 24.554688 18.957031 24.554688 20.046875 C 24.554688 20.070312 24.554688 20.089844 24.554688 20.109375 Z M 24.554688 20.109375 "/><path style=" stroke:none;fill-rule:evenodd;fill:#ffe0cc;fill-opacity:1;" d="M 21.929688 18.078125 C 22.917969 18.078125 23.726562 17.265625 23.726562 16.269531 C 23.726562 15.277344 22.917969 14.464844 21.929688 14.464844 C 20.941406 14.464844 20.136719 15.277344 20.136719 16.269531 C 20.136719 17.265625 20.941406 18.078125 21.929688 18.078125 Z M 21.929688 18.078125 "/><g clip-rule="nonzero" clip-path="url(#a9decf6876)"><path style=" stroke:none;fill-rule:evenodd;fill:#ffca28;fill-opacity:1;" d="M 26.394531 17.742188 C 27.429688 17.742188 28.277344 16.890625 28.277344 15.84375 C 28.277344 14.800781 27.429688 13.949219 26.394531 13.949219 C 25.355469 13.949219 24.507812 14.800781 24.507812 15.84375 C 24.507812 16.890625 25.355469 17.742188 26.394531 17.742188 Z M 26.394531 17.742188 "/></g><path style=" stroke:none;fill-rule:evenodd;fill:#fcb73e;fill-opacity:1;" d="M 26.566406 17.734375 C 25.609375 17.644531 24.855469 16.832031 24.855469 15.84375 C 24.855469 14.855469 25.609375 14.042969 26.566406 13.957031 C 26.511719 13.953125 26.453125 13.949219 26.394531 13.949219 C 25.351562 13.949219 24.507812 14.796875 24.507812 15.84375 C 24.507812 16.894531 25.351562 17.742188 26.394531 17.742188 C 26.453125 17.742188 26.511719 17.738281 26.566406 17.734375 Z M 26.566406 17.734375 "/><path style=" stroke:none;fill-rule:evenodd;fill:#3bbf61;fill-opacity:1;" d="M 19.820312 20.445312 C 19.640625 20.347656 19.46875 20.234375 19.308594 20.109375 C 19.308594 20.089844 19.304688 20.070312 19.304688 20.046875 C 19.304688 18.957031 20.480469 18.074219 21.929688 18.074219 C 22.109375 18.074219 22.28125 18.089844 22.445312 18.113281 C 20.964844 18.3125 19.839844 19.277344 19.820312 20.445312 Z M 19.820312 20.445312 "/><g clip-rule="nonzero" clip-path="url(#6e00815681)"><path style=" stroke:none;fill-rule:evenodd;fill:#ffb89e;fill-opacity:1;" d="M 24.84375 23.179688 C 24.84375 23.289062 24.808594 23.398438 24.734375 23.492188 C 24.5625 23.710938 24.246094 23.75 24.023438 23.578125 C 24.152344 23.679688 24.21875 23.828125 24.21875 23.980469 C 24.21875 24.089844 24.183594 24.199219 24.109375 24.292969 C 23.9375 24.515625 23.621094 24.554688 23.398438 24.378906 L 23.070312 24.121094 C 23.199219 24.222656 23.265625 24.371094 23.265625 24.523438 C 23.265625 24.632812 23.230469 24.742188 23.15625 24.835938 C 22.984375 25.054688 22.667969 25.09375 22.449219 24.921875 L 21.882812 24.476562 C 22.007812 24.578125 22.074219 24.726562 22.074219 24.878906 C 22.074219 24.988281 22.039062 25.097656 21.96875 25.191406 C 21.796875 25.410156 21.476562 25.449219 21.257812 25.277344 L 18.679688 23.246094 L 18.386719 22.816406 L 18.992188 20.28125 L 21.179688 19.972656 L 22.628906 21.183594 L 24.648438 22.777344 C 24.777344 22.878906 24.84375 23.027344 24.84375 23.179688 Z M 24.84375 23.179688 "/></g><g clip-rule="nonzero" clip-path="url(#06c49ba2cb)"><path style=" stroke:none;fill-rule:evenodd;fill:#5b5e8b;fill-opacity:1;" d="M 18.304688 19.511719 L 17.359375 23.171875 L 18.550781 23.484375 L 19.496094 19.820312 Z M 18.304688 19.511719 "/></g><path style=" stroke:none;fill-rule:evenodd;fill:#f2a183;fill-opacity:1;" d="M 24.640625 20.253906 L 21.765625 19.644531 C 21.421875 19.570312 21.089844 19.699219 20.882812 19.984375 L 19.949219 21.273438 C 19.851562 21.40625 19.828125 21.371094 19.957031 21.472656 C 20.148438 21.625 20.59375 21.902344 21.042969 21.65625 C 21.433594 21.4375 21.679688 21.089844 21.84375 20.914062 C 21.996094 20.75 21.914062 20.742188 22.101562 20.875 L 24.839844 23.144531 C 25.066406 23.234375 25.289062 23.269531 25.503906 23.21875 Z M 24.640625 20.253906 "/><path style=" stroke:none;fill-rule:evenodd;fill:#5b5e8b;fill-opacity:1;" d="M 25.558594 19.511719 L 26.503906 23.171875 L 25.308594 23.484375 L 24.363281 19.820312 Z M 25.558594 19.511719 "/><g clip-rule="nonzero" clip-path="url(#7bd3d8c6db)"><path style=" stroke:none;fill-rule:nonzero;fill:#000000;fill-opacity:1;" d="M 19.359375 19.195312 C 19.3125 19.28125 19.34375 19.394531 19.429688 19.445312 C 19.519531 19.496094 19.632812 19.464844 19.679688 19.375 C 20.054688 18.707031 20.917969 18.273438 21.894531 18.261719 C 21.910156 18.261719 21.921875 18.265625 21.933594 18.265625 C 21.945312 18.265625 21.960938 18.261719 21.972656 18.261719 C 22.949219 18.273438 23.816406 18.707031 24.1875 19.375 C 24.21875 19.433594 24.28125 19.46875 24.347656 19.46875 C 24.378906 19.46875 24.40625 19.460938 24.4375 19.445312 C 24.523438 19.394531 24.554688 19.28125 24.507812 19.195312 C 24.195312 18.636719 23.597656 18.21875 22.878906 18.019531 C 23.492188 17.683594 23.90625 17.027344 23.90625 16.28125 C 23.90625 15.1875 23.019531 14.296875 21.933594 14.296875 C 20.847656 14.296875 19.964844 15.1875 19.964844 16.28125 C 19.964844 17.027344 20.378906 17.683594 20.988281 18.019531 C 20.269531 18.21875 19.671875 18.636719 19.359375 19.195312 Z M 20.328125 16.28125 C 20.328125 15.390625 21.050781 14.664062 21.933594 14.664062 C 22.820312 14.664062 23.539062 15.390625 23.539062 16.28125 C 23.539062 17.15625 22.839844 17.875 21.972656 17.894531 C 21.957031 17.894531 21.945312 17.894531 21.933594 17.894531 C 21.921875 17.894531 21.910156 17.894531 21.894531 17.894531 C 21.027344 17.875 20.328125 17.15625 20.328125 16.28125 Z M 25.722656 19.460938 C 25.710938 19.414062 25.679688 19.375 25.640625 19.347656 C 25.597656 19.324219 25.546875 19.316406 25.5 19.328125 L 24.3125 19.640625 C 24.214844 19.664062 24.15625 19.765625 24.179688 19.863281 L 24.207031 19.96875 L 21.808594 19.460938 C 21.40625 19.375 21.011719 19.519531 20.761719 19.839844 L 19.652344 20 L 19.6875 19.863281 C 19.714844 19.765625 19.652344 19.664062 19.554688 19.640625 L 18.367188 19.328125 C 18.320312 19.316406 18.269531 19.324219 18.226562 19.347656 C 18.1875 19.375 18.15625 19.414062 18.144531 19.460938 L 17.203125 23.109375 C 17.191406 23.15625 17.195312 23.207031 17.222656 23.25 C 17.246094 23.292969 17.285156 23.324219 17.332031 23.335938 L 18.523438 23.644531 C 18.539062 23.648438 18.554688 23.652344 18.570312 23.652344 C 18.648438 23.652344 18.722656 23.597656 18.746094 23.511719 L 18.75 23.503906 L 21.148438 25.398438 C 21.273438 25.496094 21.417969 25.546875 21.574219 25.546875 C 21.601562 25.546875 21.628906 25.542969 21.65625 25.539062 C 21.839844 25.519531 22.003906 25.425781 22.113281 25.28125 C 22.183594 25.191406 22.230469 25.085938 22.25 24.976562 L 22.320312 25.03125 L 22.335938 25.042969 C 22.632812 25.28125 23.066406 25.226562 23.300781 24.925781 C 23.378906 24.828125 23.421875 24.714844 23.441406 24.597656 C 23.71875 24.714844 24.054688 24.636719 24.25 24.386719 C 24.371094 24.230469 24.417969 24.035156 24.386719 23.851562 C 24.570312 23.835938 24.75 23.746094 24.871094 23.589844 C 24.921875 23.523438 24.960938 23.449219 24.984375 23.371094 C 25.019531 23.378906 25.054688 23.386719 25.089844 23.394531 L 25.121094 23.511719 C 25.144531 23.597656 25.21875 23.652344 25.300781 23.652344 C 25.316406 23.652344 25.332031 23.648438 25.347656 23.644531 L 26.535156 23.335938 C 26.582031 23.324219 26.621094 23.292969 26.648438 23.25 C 26.671875 23.207031 26.679688 23.15625 26.667969 23.109375 Z M 17.601562 23.023438 L 18.453125 19.734375 L 19.285156 19.949219 L 18.4375 23.242188 Z M 24.132812 23.414062 L 21.980469 21.714844 C 21.898438 21.652344 21.785156 21.667969 21.722656 21.746094 C 21.660156 21.828125 21.671875 21.941406 21.753906 22.007812 L 23.90625 23.707031 C 24.046875 23.816406 24.070312 24.019531 23.960938 24.160156 C 23.851562 24.300781 23.652344 24.324219 23.511719 24.214844 L 23.183594 23.957031 L 21.34375 22.503906 C 21.261719 22.441406 21.148438 22.453125 21.085938 22.535156 C 21.023438 22.613281 21.035156 22.730469 21.117188 22.792969 L 22.957031 24.246094 C 23.097656 24.355469 23.121094 24.558594 23.011719 24.699219 C 22.902344 24.839844 22.699219 24.863281 22.5625 24.753906 L 22 24.3125 C 22 24.308594 22 24.308594 22 24.308594 C 21.996094 24.308594 21.996094 24.308594 21.992188 24.304688 L 20.707031 23.289062 C 20.625 23.226562 20.511719 23.242188 20.449219 23.320312 C 20.386719 23.402344 20.398438 23.515625 20.480469 23.578125 L 21.777344 24.605469 C 21.839844 24.65625 21.882812 24.730469 21.890625 24.816406 C 21.902344 24.902344 21.878906 24.984375 21.828125 25.054688 C 21.773438 25.121094 21.699219 25.164062 21.613281 25.171875 C 21.527344 25.183594 21.445312 25.160156 21.375 25.109375 L 18.847656 23.113281 L 19.554688 20.386719 L 20.460938 20.257812 L 19.808594 21.15625 C 19.792969 21.175781 19.78125 21.191406 19.769531 21.207031 C 19.734375 21.25 19.6875 21.308594 19.695312 21.402344 C 19.707031 21.496094 19.769531 21.542969 19.828125 21.589844 L 19.855469 21.609375 C 20.058594 21.769531 20.59375 22.109375 21.140625 21.804688 C 21.476562 21.617188 21.710938 21.347656 21.878906 21.152344 C 21.917969 21.105469 21.949219 21.066406 21.980469 21.035156 C 21.988281 21.027344 21.992188 21.019531 21.996094 21.015625 L 24.648438 23.210938 C 24.640625 23.257812 24.625 23.308594 24.582031 23.359375 C 24.472656 23.5 24.273438 23.527344 24.132812 23.414062 Z M 24.929688 22.964844 L 22.222656 20.722656 C 22.21875 20.71875 22.210938 20.714844 22.207031 20.714844 C 22.179688 20.695312 22.160156 20.675781 22.140625 20.664062 C 22.042969 20.589844 21.910156 20.527344 21.777344 20.703125 C 21.761719 20.722656 21.742188 20.75 21.714844 20.78125 C 21.679688 20.820312 21.640625 20.863281 21.601562 20.910156 C 21.449219 21.085938 21.242188 21.324219 20.960938 21.480469 C 20.644531 21.660156 20.3125 21.488281 20.121094 21.351562 L 21.035156 20.089844 C 21.199219 19.863281 21.460938 19.761719 21.730469 19.820312 L 24.3125 20.371094 L 24.988281 22.988281 C 24.96875 22.980469 24.949219 22.972656 24.929688 22.964844 Z M 25.429688 23.242188 L 24.582031 19.949219 L 25.414062 19.734375 L 26.265625 23.023438 Z M 26.378906 13.78125 C 26.105469 13.78125 25.84375 13.835938 25.605469 13.933594 C 24.753906 12.75 23.390625 12.046875 21.933594 12.046875 C 19.433594 12.046875 17.402344 14.09375 17.402344 16.609375 C 17.402344 17.460938 17.636719 18.296875 18.085938 19.019531 C 18.121094 19.074219 18.179688 19.105469 18.242188 19.105469 C 18.273438 19.105469 18.308594 19.09375 18.339844 19.078125 C 18.425781 19.023438 18.449219 18.910156 18.398438 18.824219 C 17.984375 18.160156 17.769531 17.394531 17.769531 16.609375 C 17.769531 14.296875 19.636719 12.417969 21.933594 12.417969 C 23.253906 12.417969 24.492188 13.042969 25.277344 14.105469 C 24.703125 14.476562 24.320312 15.121094 24.320312 15.855469 C 24.320312 16.835938 24.996094 17.65625 25.90625 17.875 C 25.800781 18.203125 25.65625 18.523438 25.472656 18.824219 C 25.417969 18.910156 25.445312 19.023438 25.53125 19.078125 C 25.5625 19.09375 25.59375 19.105469 25.628906 19.105469 C 25.6875 19.105469 25.75 19.074219 25.78125 19.015625 C 25.996094 18.675781 26.160156 18.308594 26.273438 17.925781 C 26.308594 17.929688 26.34375 17.929688 26.378906 17.929688 C 27.515625 17.929688 28.441406 17 28.441406 15.855469 C 28.441406 14.710938 27.515625 13.78125 26.378906 13.78125 Z M 26.378906 17.5625 C 25.445312 17.5625 24.6875 16.796875 24.6875 15.855469 C 24.6875 14.917969 25.445312 14.152344 26.378906 14.152344 C 27.3125 14.152344 28.074219 14.917969 28.074219 15.855469 C 28.074219 16.796875 27.3125 17.5625 26.378906 17.5625 Z M 26.925781 15.257812 C 27.027344 15.257812 27.109375 15.175781 27.109375 15.074219 C 27.109375 14.972656 27.027344 14.890625 26.925781 14.890625 L 26.5625 14.890625 L 26.5625 14.75 C 26.5625 14.648438 26.480469 14.5625 26.378906 14.5625 C 26.277344 14.5625 26.195312 14.648438 26.195312 14.75 L 26.195312 14.898438 C 25.886719 14.941406 25.652344 15.179688 25.652344 15.464844 C 25.652344 15.753906 25.886719 15.992188 26.195312 16.035156 L 26.195312 16.453125 L 25.84375 16.453125 C 25.742188 16.453125 25.660156 16.535156 25.660156 16.636719 C 25.660156 16.738281 25.742188 16.824219 25.84375 16.824219 L 26.195312 16.824219 L 26.195312 16.964844 C 26.195312 17.066406 26.277344 17.148438 26.378906 17.148438 C 26.480469 17.148438 26.5625 17.066406 26.5625 16.964844 L 26.5625 16.816406 C 26.871094 16.773438 27.109375 16.535156 27.109375 16.246094 C 27.109375 15.960938 26.871094 15.722656 26.5625 15.679688 L 26.5625 15.257812 Z M 26.019531 15.464844 C 26.019531 15.378906 26.09375 15.304688 26.195312 15.273438 L 26.195312 15.65625 C 26.09375 15.625 26.019531 15.550781 26.019531 15.464844 Z M 26.742188 16.246094 C 26.742188 16.332031 26.667969 16.40625 26.5625 16.4375 L 26.5625 16.054688 C 26.667969 16.085938 26.742188 16.160156 26.742188 16.246094 Z M 26.742188 16.246094 "/></g><g clip-rule="nonzero" clip-path="url(#9d01d54ec7)"><path style=" stroke:none;fill-rule:nonzero;fill:#e0e0e0;fill-opacity:1;" d="M 54.105469 21.925781 C 54.144531 21.746094 54.113281 21.828125 53.859375 21.453125 C 53.632812 21.113281 53.679688 20.628906 53.410156 20.390625 C 53.246094 20.242188 53.039062 20.078125 52.269531 20.476562 C 52 20.613281 51.464844 21.066406 50.859375 21.273438 C 50.371094 21.441406 50.640625 21.644531 50.746094 21.679688 C 51.117188 21.8125 51.605469 21.527344 51.605469 21.527344 C 51.605469 21.527344 50.902344 21.996094 51.316406 22.105469 C 51.648438 22.195312 52.070312 21.785156 52.070312 21.785156 C 52.070312 21.785156 51.660156 22.234375 51.996094 22.347656 C 52.226562 22.425781 52.6875 21.976562 52.6875 21.976562 C 52.6875 21.976562 52.367188 22.433594 52.523438 22.53125 C 52.757812 22.675781 53.144531 22.300781 53.144531 22.300781 C 53.144531 22.300781 52.835938 22.757812 53 22.832031 C 53.238281 22.945312 53.59375 22.628906 53.59375 22.628906 C 53.59375 22.628906 54.035156 22.246094 54.105469 21.925781 Z M 54.105469 21.925781 "/></g><g clip-rule="nonzero" clip-path="url(#e6e65fc92d)"><path style=" stroke:none;fill-rule:nonzero;fill:#bdbdbd;fill-opacity:1;" d="M 52.746094 20.445312 C 52.746094 20.445312 52.324219 20.695312 52.171875 20.898438 C 52.152344 20.925781 52.027344 21.054688 52.136719 21.128906 C 52.164062 21.148438 52.25 21.136719 52.296875 21.105469 C 52.523438 20.964844 52.921875 20.632812 52.96875 20.648438 C 53.011719 20.667969 52.609375 20.9375 52.480469 21.265625 C 52.433594 21.386719 52.527344 21.476562 52.773438 21.328125 C 53.039062 21.167969 53.265625 20.882812 53.304688 20.886719 C 53.304688 20.886719 53.199219 21.078125 53.0625 21.226562 C 52.921875 21.382812 52.824219 21.539062 52.925781 21.589844 C 53.054688 21.652344 53.335938 21.480469 53.335938 21.480469 C 53.335938 21.480469 53.15625 21.703125 52.925781 21.753906 C 52.84375 21.769531 52.78125 21.757812 52.742188 21.714844 C 52.683594 21.644531 52.703125 21.539062 52.703125 21.539062 C 52.582031 21.585938 52.367188 21.667969 52.242188 21.558594 C 52.144531 21.472656 52.277344 21.222656 52.277344 21.222656 C 52.277344 21.222656 52.039062 21.359375 51.902344 21.316406 C 51.832031 21.296875 51.726562 21.191406 51.882812 20.972656 C 52.132812 20.625 52.746094 20.445312 52.746094 20.445312 Z M 52.746094 20.445312 "/></g><path style=" stroke:none;fill-rule:nonzero;fill:#bdbdbd;fill-opacity:1;" d="M 53.25 22.875 C 53.519531 22.511719 53.792969 22.148438 54.066406 21.789062 L 54.042969 21.683594 C 54.03125 21.648438 53.921875 21.640625 53.773438 21.730469 C 53.675781 21.789062 53.492188 22 53.375 21.882812 C 53.296875 21.804688 53.527344 21.515625 53.527344 21.515625 C 53.496094 21.515625 53.238281 21.695312 53.199219 21.871094 C 53.160156 22.019531 53.195312 22.199219 53.527344 22.027344 C 53.539062 22.019531 53.546875 22.015625 53.558594 22.007812 C 53.515625 22.074219 53.476562 22.148438 53.445312 22.21875 C 53.351562 22.425781 53.296875 22.648438 53.25 22.875 Z M 53.25 22.875 "/><g clip-rule="nonzero" clip-path="url(#fff8149033)"><path style=" stroke:none;fill-rule:nonzero;fill:#66bb6a;fill-opacity:1;" d="M 55.730469 20.269531 L 55.734375 20.273438 "/></g><g clip-rule="nonzero" clip-path="url(#d99ceca522)"><path style=" stroke:none;fill-rule:nonzero;fill:#66bb6a;fill-opacity:1;" d="M 56.105469 24.253906 C 55.449219 25.261719 54.898438 26.371094 53.644531 26.707031 C 53.628906 26.710938 53.617188 26.707031 53.605469 26.699219 L 51.554688 24.382812 C 51.496094 24.316406 51.527344 24.207031 51.613281 24.175781 C 52.453125 23.894531 52.980469 23.21875 53.449219 22.5 C 54.097656 21.511719 54.648438 20.421875 55.867188 20.0625 C 55.910156 20.042969 55.964844 20.054688 56 20.09375 C 56.273438 20.402344 58.328125 22.402344 58.332031 22.40625 C 58.332031 22.40625 56.609375 23.484375 56.105469 24.253906 Z M 56.105469 24.253906 "/></g><path style=" stroke:none;fill-rule:nonzero;fill:#ffffff;fill-opacity:1;" d="M 54.210938 24.714844 C 54.167969 24.667969 54.113281 24.648438 54.050781 24.648438 C 53.992188 24.648438 53.910156 24.671875 53.8125 24.722656 C 53.679688 24.796875 53.5625 24.832031 53.464844 24.828125 C 53.367188 24.824219 53.28125 24.78125 53.203125 24.703125 C 53.125 24.621094 53.082031 24.53125 53.078125 24.433594 C 53.074219 24.332031 53.105469 24.238281 53.179688 24.144531 L 53.054688 24.019531 C 53.03125 23.996094 53.03125 23.972656 53.054688 23.949219 L 53.09375 23.90625 C 53.113281 23.890625 53.140625 23.890625 53.160156 23.90625 L 53.285156 24.035156 C 53.378906 23.964844 53.476562 23.9375 53.578125 23.949219 C 53.667969 23.960938 53.757812 24.003906 53.847656 24.089844 C 53.863281 24.105469 53.863281 24.132812 53.847656 24.148438 L 53.773438 24.226562 C 53.757812 24.242188 53.734375 24.242188 53.714844 24.226562 C 53.65625 24.171875 53.597656 24.144531 53.535156 24.136719 C 53.460938 24.128906 53.398438 24.152344 53.34375 24.207031 C 53.285156 24.269531 53.257812 24.328125 53.257812 24.386719 C 53.253906 24.449219 53.28125 24.507812 53.335938 24.5625 C 53.382812 24.613281 53.4375 24.636719 53.5 24.632812 C 53.5625 24.632812 53.640625 24.605469 53.738281 24.554688 C 53.835938 24.503906 53.917969 24.472656 53.988281 24.457031 C 54.058594 24.445312 54.125 24.449219 54.179688 24.46875 C 54.238281 24.488281 54.292969 24.523438 54.34375 24.574219 C 54.425781 24.660156 54.464844 24.75 54.46875 24.851562 C 54.46875 24.953125 54.429688 25.050781 54.347656 25.152344 L 54.453125 25.257812 C 54.472656 25.277344 54.472656 25.308594 54.453125 25.328125 L 54.414062 25.367188 C 54.394531 25.386719 54.363281 25.386719 54.347656 25.367188 L 54.242188 25.261719 C 54.144531 25.34375 54.042969 25.382812 53.933594 25.378906 C 53.839844 25.375 53.75 25.332031 53.664062 25.253906 C 53.640625 25.234375 53.640625 25.214844 53.664062 25.191406 L 53.738281 25.117188 C 53.753906 25.101562 53.777344 25.101562 53.792969 25.113281 C 53.851562 25.164062 53.910156 25.191406 53.972656 25.191406 C 54.046875 25.195312 54.113281 25.160156 54.175781 25.09375 C 54.242188 25.03125 54.277344 24.964844 54.28125 24.898438 C 54.285156 24.828125 54.261719 24.769531 54.210938 24.714844 Z M 54.210938 24.714844 "/><path style=" stroke:none;fill-rule:nonzero;fill:#ffffff;fill-opacity:1;" d="M 54.378906 25.183594 L 54.242188 25.261719 L 53.179688 24.148438 L 53.144531 24.113281 L 53.285156 24.039062 L 54.347656 25.152344 Z M 54.378906 25.183594 "/><path style=" stroke:none;fill-rule:nonzero;fill:#2e7d32;fill-opacity:0.5;" d="M 56.3125 22.566406 C 56.3125 22.832031 56.222656 23.058594 56.035156 23.25 C 55.851562 23.4375 55.632812 23.53125 55.371094 23.53125 C 55.109375 23.53125 54.890625 23.4375 54.707031 23.25 C 54.523438 23.058594 54.429688 22.832031 54.429688 22.566406 C 54.429688 22.300781 54.523438 22.074219 54.707031 21.886719 C 54.890625 21.699219 55.109375 21.605469 55.371094 21.605469 C 55.632812 21.605469 55.851562 21.699219 56.035156 21.886719 C 56.222656 22.074219 56.3125 22.300781 56.3125 22.566406 Z M 56.3125 22.566406 "/><g clip-rule="nonzero" clip-path="url(#899760a1f7)"><path style=" stroke:none;fill-rule:nonzero;fill:#2e7d32;fill-opacity:1;" d="M 56.433594 24.761719 C 56.097656 25.277344 55.613281 26.261719 54.945312 26.804688 C 54.332031 27.300781 53.5625 27.542969 53.5625 27.542969 L 51.433594 25 L 51.523438 24.300781 L 53.609375 26.699219 C 53.617188 26.707031 53.628906 26.710938 53.640625 26.710938 C 54.898438 26.371094 55.449219 25.261719 56.105469 24.257812 C 56.609375 23.484375 57.363281 22.660156 58.332031 22.40625 C 58.410156 22.496094 58.375 23.222656 58.289062 23.25 C 57.429688 23.542969 56.90625 24.039062 56.433594 24.761719 Z M 56.433594 24.761719 "/></g><path style=" stroke:none;fill-rule:nonzero;fill:#ffc06c;fill-opacity:1;" d="M 55.566406 25.101562 L 55.761719 25.847656 C 55.761719 25.847656 56.363281 24.949219 56.460938 24.730469 L 56.242188 24.058594 C 55.949219 24.429688 55.566406 25.101562 55.566406 25.101562 Z M 55.566406 25.101562 "/><g clip-rule="nonzero" clip-path="url(#1800730ab6)"><path style=" stroke:none;fill-rule:nonzero;fill:#2e7d32;fill-opacity:1;" d="M 55.515625 20.660156 C 55.566406 20.734375 55.652344 20.8125 55.792969 20.855469 C 55.84375 20.871094 55.898438 20.882812 55.949219 20.882812 C 56.0625 20.882812 56.15625 20.84375 56.21875 20.8125 C 56.378906 20.976562 56.578125 21.175781 56.769531 21.367188 C 56.957031 21.554688 57.152344 21.75 57.308594 21.910156 C 57.257812 21.988281 57.214844 22.109375 57.234375 22.273438 C 57.242188 22.347656 57.292969 22.421875 57.347656 22.484375 C 57 22.714844 56.332031 23.21875 55.648438 24.117188 C 55.503906 24.304688 55.363281 24.515625 55.230469 24.714844 C 54.890625 25.21875 54.542969 25.738281 54.078125 26.058594 C 54.019531 25.964844 53.921875 25.855469 53.738281 25.808594 C 53.695312 25.796875 53.652344 25.792969 53.613281 25.792969 C 53.496094 25.792969 53.402344 25.835938 53.339844 25.886719 L 52.351562 24.730469 C 52.433594 24.664062 52.511719 24.550781 52.519531 24.375 C 52.523438 24.292969 52.480469 24.21875 52.433594 24.164062 C 52.914062 23.800781 53.421875 23.21875 53.695312 22.804688 C 53.734375 22.742188 53.777344 22.679688 53.820312 22.613281 C 54.246094 21.953125 54.824219 21.066406 55.515625 20.660156 M 55.566406 20.503906 C 54.734375 20.925781 54.074219 22.023438 53.601562 22.738281 C 53.292969 23.207031 52.738281 23.820312 52.257812 24.152344 C 52.257812 24.152344 52.414062 24.265625 52.410156 24.371094 C 52.398438 24.648438 52.175781 24.695312 52.175781 24.695312 L 53.335938 26.054688 C 53.335938 26.054688 53.421875 25.902344 53.609375 25.902344 C 53.640625 25.902344 53.675781 25.90625 53.710938 25.917969 C 53.972656 25.984375 54.027344 26.21875 54.027344 26.21875 C 54.769531 25.78125 55.214844 24.867188 55.734375 24.183594 C 56.445312 23.257812 57.148438 22.730469 57.527344 22.5 C 57.527344 22.5 57.351562 22.355469 57.34375 22.257812 C 57.316406 22 57.460938 21.90625 57.460938 21.90625 C 57.125 21.558594 56.570312 21.015625 56.238281 20.667969 C 56.238281 20.667969 56.113281 20.765625 55.949219 20.765625 C 55.910156 20.765625 55.867188 20.761719 55.828125 20.746094 C 55.585938 20.671875 55.566406 20.503906 55.566406 20.503906 Z M 55.566406 20.503906 "/></g><path style=" stroke:none;fill-rule:nonzero;fill:#ffecb3;fill-opacity:1;" d="M 53.929688 21.75 L 53.296875 22.734375 L 55.566406 25.101562 C 55.566406 25.101562 55.9375 24.503906 56.242188 24.058594 Z M 53.929688 21.75 "/><path style=" stroke:none;fill-rule:nonzero;fill:#d69136;fill-opacity:0.68;" d="M 56.332031 24.34375 C 56.332031 24.34375 55.886719 24.574219 55.765625 25.285156 C 55.71875 25.554688 55.761719 25.847656 55.761719 25.847656 L 56.132812 25.265625 L 56.398438 24.457031 Z M 56.332031 24.34375 "/><g clip-rule="nonzero" clip-path="url(#eb0c9a95f8)"><path style=" stroke:none;fill-rule:nonzero;fill:#e0e0e0;fill-opacity:1;" d="M 56.207031 24.496094 C 56.335938 24.367188 56.378906 24.328125 56.785156 24.300781 C 57.183594 24.269531 57.371094 24.089844 57.875 24.195312 C 58.089844 24.242188 58.429688 24.441406 58.34375 25.242188 C 58.3125 25.546875 58.320312 26.25 58.460938 26.886719 C 58.574219 27.402344 58.261719 27.269531 58.179688 27.199219 C 57.875 26.941406 57.863281 26.367188 57.863281 26.367188 C 57.863281 26.367188 57.832031 27.222656 57.527344 26.921875 C 57.28125 26.675781 57.402344 26.09375 57.402344 26.09375 C 57.402344 26.09375 57.242188 26.6875 56.972656 26.449219 C 56.785156 26.289062 56.925781 25.652344 56.925781 25.652344 C 56.925781 25.652344 56.707031 26.171875 56.546875 26.085938 C 56.300781 25.953125 56.417969 25.417969 56.417969 25.417969 C 56.417969 25.417969 56.195312 25.925781 56.046875 25.824219 C 55.828125 25.671875 55.910156 25.195312 55.910156 25.195312 C 55.910156 25.195312 55.972656 24.722656 56.207031 24.496094 Z M 56.207031 24.496094 "/></g><g clip-rule="nonzero" clip-path="url(#e9472ddbfd)"><path style=" stroke:none;fill-rule:nonzero;fill:#bdbdbd;fill-opacity:1;" d="M 58.144531 24.820312 C 58.144531 24.820312 58.175781 25.234375 58.148438 25.480469 C 58.128906 25.632812 58.121094 25.773438 57.984375 25.75 C 57.953125 25.746094 57.875 25.679688 57.859375 25.425781 C 57.84375 25.15625 57.898438 24.800781 57.863281 24.773438 C 57.824219 24.746094 57.820312 25.214844 57.628906 25.507812 C 57.558594 25.617188 57.4375 25.628906 57.417969 25.339844 C 57.398438 25.023438 57.558594 24.648438 57.535156 24.617188 C 57.535156 24.617188 57.398438 24.785156 57.320312 25.027344 C 57.242188 25.269531 57.207031 25.382812 57.117188 25.3125 C 56.953125 25.1875 57.195312 24.695312 57.195312 24.695312 C 57.195312 24.695312 57.015625 24.855469 56.9375 25.082031 C 56.890625 25.226562 56.917969 25.464844 57.042969 25.523438 C 57.191406 25.59375 57.277344 25.46875 57.277344 25.46875 C 57.277344 25.46875 57.308594 25.875 57.5 25.863281 C 57.683594 25.855469 57.730469 25.644531 57.730469 25.644531 C 57.730469 25.644531 57.722656 25.847656 57.910156 25.988281 C 58 26.058594 58.210938 26.070312 58.238281 25.796875 C 58.28125 25.355469 58.144531 24.820312 58.144531 24.820312 Z M 58.144531 24.820312 "/></g><path style=" stroke:none;fill-rule:nonzero;fill:#bdbdbd;fill-opacity:1;" d="M 56.625 24.675781 C 56.585938 24.664062 56.527344 24.847656 56.457031 24.953125 C 56.429688 24.992188 56.367188 25.070312 56.277344 25.0625 C 56.1875 25.058594 56.261719 24.785156 56.238281 24.800781 C 56.21875 24.816406 56.132812 24.960938 56.167969 25.128906 C 56.175781 25.175781 56.222656 25.230469 56.269531 25.238281 C 56.441406 25.265625 56.515625 25.050781 56.515625 25.050781 C 56.515625 25.050781 56.488281 25.308594 56.660156 25.335938 C 56.863281 25.367188 56.90625 25.039062 56.886719 25.027344 C 56.867188 25.015625 56.800781 25.234375 56.65625 25.140625 C 56.535156 25.0625 56.664062 24.6875 56.625 24.675781 Z M 56.625 24.675781 "/><g clip-rule="nonzero" clip-path="url(#c4bd38a319)"><path style=" stroke:none;fill-rule:nonzero;fill:#206022;fill-opacity:1;" d="M 51.433594 25 L 53.554688 27.535156 C 53.554688 27.535156 53.648438 27.390625 53.667969 27.167969 C 53.6875 26.972656 53.621094 26.714844 53.621094 26.714844 L 51.523438 24.300781 Z M 51.433594 25 "/></g></g></svg>