<svg xmlns="http://www.w3.org/2000/svg" xmlns:xlink="http://www.w3.org/1999/xlink" width="150" zoomAndPan="magnify" viewBox="0 0 112.5 74.999997" height="100" preserveAspectRatio="xMidYMid meet" version="1.2"><defs><clipPath id="68167538a2"><path d="M 0 0.164062 L 112.003906 0.164062 L 112.003906 74.832031 L 0 74.832031 Z M 0 0.164062 "/></clipPath><clipPath id="56c143812b"><path d="M 13.082031 60 L 95 60 L 95 68 L 13.082031 68 Z M 13.082031 60 "/></clipPath><clipPath id="f352d8737b"><path d="M 13.082031 60 L 95 60 L 95 69.261719 L 13.082031 69.261719 Z M 13.082031 60 "/></clipPath><clipPath id="b0bdd54836"><path d="M 13.082031 59 L 95 59 L 95 68 L 13.082031 68 Z M 13.082031 59 "/></clipPath><clipPath id="3c16f59882"><path d="M 72 23 L 98.949219 23 L 98.949219 36 L 72 36 Z M 72 23 "/></clipPath></defs><g id="5f903d8aba"><g clip-rule="nonzero" clip-path="url(#68167538a2)"><path style=" stroke:none;fill-rule:nonzero;fill:#ffffff;fill-opacity:1;" d="M 0 0.164062 L 112.003906 0.164062 L 112.003906 74.835938 L 0 74.835938 Z M 0 0.164062 "/><path style=" stroke:none;fill-rule:nonzero;fill:#ffffff;fill-opacity:1;" d="M 0 0.164062 L 112.003906 0.164062 L 112.003906 74.835938 L 0 74.835938 Z M 0 0.164062 "/></g><path style=" stroke:none;fill-rule:nonzero;fill:#e4e7f3;fill-opacity:1;" d="M 41.296875 55.96875 C 44.0625 56.542969 46.917969 56.824219 49.820312 56.941406 C 57.1875 57.25 64.933594 56.601562 72 54.441406 C 81.398438 51.5625 85.316406 40.117188 79.226562 32.238281 C 77.453125 29.941406 75.101562 28.601562 72.828125 26.902344 C 70.148438 24.898438 67.691406 22.597656 65.804688 19.816406 C 64.152344 17.394531 63.066406 14.617188 61.265625 12.292969 C 59.273438 9.730469 56.296875 8.128906 53.113281 7.621094 C 41.6875 5.796875 29.039062 12.394531 22.125 21.304688 C 14.503906 31.121094 21.003906 44.484375 29.800781 50.996094 C 33.335938 53.609375 37.21875 55.113281 41.296875 55.96875 Z M 41.296875 55.96875 "/><path style=" stroke:none;fill-rule:nonzero;fill:#9f635f;fill-opacity:1;" d="M 43.097656 31.222656 C 43.128906 31.121094 44.164062 23.191406 44.1875 23.09375 C 44.1875 23.09375 44.707031 23.152344 44.707031 23.152344 C 46.535156 24.339844 48.667969 26.109375 50.5 27.300781 C 50.5 27.300781 49.910156 29.554688 50.171875 30.789062 C 50.261719 31.230469 50.472656 31.644531 50.472656 31.644531 C 50.472656 31.644531 52.210938 34.042969 52.148438 34.484375 C 51.917969 36.019531 43.203125 39.109375 43.097656 31.222656 Z M 43.097656 31.222656 "/><path style=" stroke:none;fill-rule:nonzero;fill:#9f635f;fill-opacity:1;" d="M 77.480469 36.703125 C 77.480469 36.703125 76.773438 39.503906 75.207031 43.085938 C 73.636719 46.667969 70.132812 56.40625 67.449219 57.078125 C 65.546875 57.554688 60.871094 51.019531 58.304688 47.160156 C 57.242188 45.566406 56.539062 44.429688 56.539062 44.429688 L 56.722656 43.828125 L 59.335938 35.195312 C 59.335938 35.195312 61.21875 36.480469 63.195312 39.054688 C 63.480469 39.421875 63.765625 39.8125 64.046875 40.207031 C 64.074219 40.242188 64.101562 40.28125 64.125 40.316406 C 65.574219 42.335938 66.886719 44.429688 66.886719 44.429688 L 73.976562 35.289062 Z M 77.480469 36.703125 "/><path style=" stroke:none;fill-rule:nonzero;fill:#282a50;fill-opacity:1;" d="M 64.203125 40.171875 C 64.203125 40.171875 64.175781 40.222656 64.125 40.3125 C 63.691406 41.117188 61.402344 45.164062 58.300781 47.15625 C 57.238281 45.566406 56.539062 44.425781 56.539062 44.425781 L 56.71875 43.828125 C 56.765625 43.75 56.789062 43.707031 56.789062 43.707031 L 61.050781 40.804688 L 64.046875 40.203125 Z M 64.203125 40.171875 "/><path style=" stroke:none;fill-rule:nonzero;fill:#ecbf48;fill-opacity:1;" d="M 43.175781 30.59375 C 43.175781 30.59375 34.214844 31.140625 32.117188 32.964844 C 32.117188 32.964844 32.238281 37.6875 32.394531 42.386719 C 32.550781 47.085938 32.289062 56.015625 31.558594 58.3125 C 30.828125 60.609375 30.046875 63.222656 30.046875 63.222656 C 30.046875 63.222656 44.34375 66.925781 56.605469 62.960938 C 56.605469 62.960938 56.085938 56.589844 56.503906 52.308594 C 56.921875 48.027344 60.296875 36.167969 57.992188 34.015625 C 56.949219 33.039062 50.421875 31.515625 50.421875 31.515625 C 50.421875 31.515625 51.390625 35.601562 47.320312 35.183594 C 43.25 34.765625 43.175781 30.59375 43.175781 30.59375 Z M 43.175781 30.59375 "/><path style=" stroke:none;fill-rule:nonzero;fill:#282a50;fill-opacity:1;" d="M 47.8125 35.941406 C 47.648438 35.941406 47.484375 35.9375 47.3125 35.921875 C 42.804688 35.519531 42.640625 31.191406 42.640625 31.148438 C 42.640625 31.113281 42.667969 31.082031 42.703125 31.082031 C 42.734375 31.082031 42.769531 31.109375 42.769531 31.144531 C 42.769531 31.1875 42.933594 35.398438 47.324219 35.792969 C 48.496094 35.898438 49.410156 35.636719 50.039062 35.011719 C 51.132812 33.929688 51 32.117188 51 32.097656 C 50.996094 32.0625 51.023438 32.03125 51.058594 32.027344 C 51.09375 32.027344 51.125 32.054688 51.128906 32.089844 C 51.132812 32.105469 51.265625 33.980469 50.132812 35.101562 C 49.570312 35.660156 48.789062 35.941406 47.8125 35.941406 Z M 47.8125 35.941406 "/><path style=" stroke:none;fill-rule:nonzero;fill:#ecbf48;fill-opacity:1;" d="M 57.992188 34.015625 C 57.992188 34.015625 61.722656 36.664062 64.203125 40.171875 C 64.203125 40.171875 58.945312 46.085938 57.488281 46.5 C 56.03125 46.910156 57.5625 39.652344 57.5625 39.652344 Z M 57.992188 34.015625 "/><path style=" stroke:none;fill-rule:nonzero;fill:#282a50;fill-opacity:1;" d="M 57.488281 46.5625 C 57.488281 46.5625 57.484375 46.5625 57.480469 46.5625 C 57.445312 46.558594 57.421875 46.523438 57.425781 46.488281 L 57.925781 42.277344 C 57.929688 42.242188 57.964844 42.214844 58 42.222656 C 58.035156 42.226562 58.0625 42.257812 58.054688 42.292969 L 57.554688 46.507812 C 57.550781 46.539062 57.519531 46.5625 57.488281 46.5625 Z M 57.488281 46.5625 "/><g clip-rule="nonzero" clip-path="url(#56c143812b)"><path style=" stroke:none;fill-rule:nonzero;fill:#e4e7f3;fill-opacity:1;" d="M 25.730469 67.457031 L 13.121094 60 L 81.582031 60 L 94.191406 67.457031 Z M 25.730469 67.457031 "/></g><path style=" stroke:none;fill-rule:nonzero;fill:#282a50;fill-opacity:1;" d="M 33.089844 59.628906 L 32.964844 59.972656 C 32.851562 60.292969 32.976562 60.65625 33.269531 60.835938 L 41.21875 65.800781 L 42.503906 65.800781 L 43.28125 64.996094 L 34.410156 60.210938 Z M 33.089844 59.628906 "/><path style=" stroke:none;fill-rule:nonzero;fill:#282a50;fill-opacity:1;" d="M 41.933594 65.304688 L 33.089844 59.628906 L 47.3125 59.628906 Z M 41.933594 65.304688 "/><path style=" stroke:none;fill-rule:nonzero;fill:#e4e7f3;fill-opacity:1;" d="M 41.90625 65.347656 L 33.0625 59.667969 L 33.113281 59.585938 L 41.960938 65.265625 Z M 41.90625 65.347656 "/><path style=" stroke:none;fill-rule:nonzero;fill:#9f635f;fill-opacity:1;" d="M 38.09375 56.714844 C 38.09375 56.714844 40.996094 56.894531 41.371094 56.863281 C 43.035156 56.714844 44.433594 57.160156 44.882812 57.351562 C 45.332031 57.542969 46.601562 58.335938 46.789062 58.746094 C 46.976562 59.160156 46.628906 60.023438 46.238281 60.140625 C 46.238281 60.140625 46.128906 60.960938 45.648438 61.109375 C 45.648438 61.109375 45.761719 61.539062 45.898438 61.953125 C 46.035156 62.367188 45.898438 62.691406 45.898438 62.691406 C 45.898438 62.691406 46.261719 62.933594 46.046875 63.246094 C 45.835938 63.558594 44.441406 62.910156 43.585938 62.574219 C 42.734375 62.242188 40.945312 61.582031 40.28125 61.449219 C 39.621094 61.320312 38.480469 60.664062 38.480469 60.664062 Z M 38.09375 56.714844 "/><path style=" stroke:none;fill-rule:nonzero;fill:#282a50;fill-opacity:1;" d="M 46.238281 60.203125 C 46.207031 60.203125 46.179688 60.179688 46.175781 60.148438 C 46.175781 60.140625 46.09375 59.613281 45.742188 59.363281 C 45.371094 59.097656 43.597656 58.128906 43.582031 58.117188 C 43.546875 58.101562 43.539062 58.0625 43.554688 58.03125 C 43.570312 58 43.609375 57.988281 43.640625 58.003906 C 43.714844 58.046875 45.4375 58.988281 45.816406 59.257812 C 46.214844 59.542969 46.300781 60.105469 46.300781 60.128906 C 46.308594 60.164062 46.28125 60.199219 46.246094 60.203125 C 46.246094 60.203125 46.242188 60.203125 46.238281 60.203125 Z M 46.238281 60.203125 "/><path style=" stroke:none;fill-rule:nonzero;fill:#282a50;fill-opacity:1;" d="M 45.648438 61.171875 C 45.632812 61.171875 45.613281 61.164062 45.601562 61.152344 C 45.597656 61.148438 45.105469 60.652344 44.691406 60.402344 C 44.273438 60.152344 43.027344 59.367188 43.015625 59.359375 C 42.988281 59.34375 42.976562 59.300781 42.996094 59.273438 C 43.015625 59.242188 43.054688 59.234375 43.085938 59.25 C 43.097656 59.257812 44.339844 60.042969 44.761719 60.292969 C 45.1875 60.550781 45.675781 61.042969 45.695312 61.066406 C 45.71875 61.089844 45.71875 61.132812 45.695312 61.15625 C 45.683594 61.164062 45.664062 61.171875 45.648438 61.171875 Z M 45.648438 61.171875 "/><path style=" stroke:none;fill-rule:nonzero;fill:#282a50;fill-opacity:1;" d="M 45.894531 62.753906 C 45.878906 62.753906 45.863281 62.75 45.851562 62.738281 C 45.847656 62.734375 45.480469 62.40625 44.722656 62.089844 C 43.941406 61.769531 42.304688 60.667969 42.234375 60.621094 C 42.207031 60.601562 42.199219 60.5625 42.21875 60.53125 C 42.238281 60.503906 42.28125 60.496094 42.308594 60.515625 C 42.324219 60.527344 44.003906 61.65625 44.769531 61.972656 C 45.554688 62.300781 45.925781 62.628906 45.941406 62.640625 C 45.964844 62.667969 45.96875 62.707031 45.945312 62.734375 C 45.929688 62.746094 45.914062 62.753906 45.894531 62.753906 Z M 45.894531 62.753906 "/><path style=" stroke:none;fill-rule:nonzero;fill:#9f635f;fill-opacity:1;" d="M 38.761719 60.648438 C 38.761719 60.648438 27.960938 60.269531 25.664062 57.695312 C 24.078125 55.921875 25.492188 49.460938 26.890625 44.171875 C 27.164062 43.136719 27.4375 42.152344 27.6875 41.253906 C 27.714844 41.152344 27.742188 41.050781 27.769531 40.953125 C 27.832031 41.011719 27.90625 41.089844 28.003906 41.183594 C 28.820312 41.984375 30.964844 43.917969 35.050781 43.3125 L 34.429688 45.582031 L 32.179688 53.753906 L 39.71875 56.917969 C 40.148438 57.410156 38.761719 60.648438 38.761719 60.648438 Z M 38.761719 60.648438 "/><path style=" stroke:none;fill-rule:nonzero;fill:#282a50;fill-opacity:1;" d="M 35.050781 43.3125 L 34.582031 44.949219 C 31.214844 45.902344 27.835938 44.757812 26.890625 44.167969 C 27.164062 43.136719 27.4375 42.148438 27.6875 41.25 C 27.796875 41.226562 27.902344 41.203125 28.003906 41.183594 C 28.820312 41.984375 30.964844 43.914062 35.050781 43.3125 Z M 35.050781 43.3125 "/><path style=" stroke:none;fill-rule:nonzero;fill:#ecbf48;fill-opacity:1;" d="M 36.539062 38.121094 L 34.921875 44.839844 C 30.359375 45.511719 27.445312 43.59375 26.867188 43.046875 C 29.179688 34.726562 32.082031 32.925781 32.082031 32.925781 Z M 36.539062 38.121094 "/><path style=" stroke:none;fill-rule:nonzero;fill:#282a50;fill-opacity:1;" d="M 34.535156 44.9375 L 35.703125 40.847656 L 35.796875 40.875 L 34.632812 44.960938 Z M 34.535156 44.9375 "/><path style=" stroke:none;fill-rule:nonzero;fill:#282a50;fill-opacity:1;" d="M 67.875 65.304688 L 41.933594 65.304688 L 47.039062 49.648438 C 47.140625 49.34375 47.425781 49.136719 47.746094 49.136719 L 72.125 49.136719 C 72.628906 49.136719 72.988281 49.628906 72.832031 50.113281 Z M 67.875 65.304688 "/><path style=" stroke:none;fill-rule:nonzero;fill:#282a50;fill-opacity:1;" d="M 68.441406 65.800781 L 42.5 65.800781 L 47.578125 50.226562 C 47.695312 49.871094 48.023438 49.632812 48.394531 49.632812 L 72.53125 49.632812 C 73.113281 49.632812 73.527344 50.203125 73.347656 50.757812 Z M 68.441406 65.800781 "/><path style=" stroke:none;fill-rule:nonzero;fill:#e4e7f3;fill-opacity:1;" d="M 59.433594 55.894531 C 59.617188 55.957031 59.777344 56.058594 59.914062 56.207031 C 60.054688 56.351562 60.160156 56.53125 60.234375 56.738281 C 60.304688 56.949219 60.339844 57.171875 60.339844 57.410156 C 60.335938 57.652344 60.292969 57.886719 60.214844 58.121094 C 60.136719 58.355469 60.027344 58.570312 59.882812 58.761719 C 59.742188 58.953125 59.578125 59.113281 59.394531 59.234375 C 59.207031 59.355469 59.015625 59.433594 58.816406 59.464844 C 58.621094 59.5 58.429688 59.484375 58.246094 59.421875 C 58.066406 59.363281 57.90625 59.257812 57.765625 59.113281 C 57.628906 58.964844 57.523438 58.789062 57.449219 58.578125 C 57.375 58.371094 57.339844 58.144531 57.34375 57.90625 C 57.347656 57.667969 57.386719 57.429688 57.464844 57.195312 C 57.542969 56.960938 57.65625 56.75 57.796875 56.554688 C 57.941406 56.363281 58.105469 56.207031 58.289062 56.085938 C 58.472656 55.960938 58.664062 55.886719 58.863281 55.851562 C 59.0625 55.820312 59.253906 55.832031 59.433594 55.894531 Z M 59.433594 55.894531 "/><path style=" stroke:none;fill-rule:nonzero;fill:#e4e7f3;fill-opacity:1;" d="M 42.550781 65.816406 L 42.453125 65.785156 L 47.53125 50.207031 C 47.65625 49.832031 48 49.582031 48.394531 49.582031 L 72.53125 49.582031 L 72.53125 49.679688 L 48.394531 49.679688 C 48.042969 49.679688 47.738281 49.90625 47.628906 50.238281 Z M 42.550781 65.816406 "/><g clip-rule="nonzero" clip-path="url(#f352d8737b)"><path style=" stroke:none;fill-rule:nonzero;fill:#282a50;fill-opacity:1;" d="M 94.191406 69.265625 L 94.191406 67.457031 L 25.730469 67.457031 L 13.121094 60 L 13.121094 61.808594 L 25.730469 69.265625 Z M 94.191406 69.265625 "/></g><g clip-rule="nonzero" clip-path="url(#b0bdd54836)"><path style=" stroke:none;fill-rule:nonzero;fill:#282a50;fill-opacity:1;" d="M 94.191406 67.507812 L 25.714844 67.507812 L 25.707031 67.5 L 13.097656 60.042969 L 13.144531 59.957031 L 25.742188 67.40625 L 94.191406 67.40625 Z M 94.191406 67.507812 "/></g><path style=" stroke:none;fill-rule:nonzero;fill:#9f635f;fill-opacity:1;" d="M 53.144531 24.769531 C 53.105469 28.082031 52.523438 31.523438 49.363281 31.714844 C 47.15625 31.847656 44.453125 29.324219 43.402344 26.703125 C 42.863281 25.351562 42.375 24.175781 42.179688 23.25 C 42.027344 22.519531 41.964844 22.054688 41.964844 22.054688 L 42.148438 20.355469 L 42.257812 19.359375 C 42.257812 19.359375 42.824219 18.652344 43.457031 17.863281 C 44.246094 16.871094 45.96875 17.6875 45.980469 17.625 C 46.003906 17.535156 50.167969 16.007812 51.894531 17.433594 C 51.898438 17.4375 51.902344 17.441406 51.902344 17.445312 C 52.058594 17.574219 52.191406 17.714844 52.285156 17.863281 C 52.363281 17.988281 52.417969 18.121094 52.449219 18.257812 C 52.503906 18.523438 52.578125 18.921875 52.671875 19.429688 C 52.707031 19.640625 52.75 19.871094 52.785156 20.117188 C 52.847656 20.535156 52.914062 20.992188 52.96875 21.476562 C 53.078125 22.484375 53.160156 23.625 53.144531 24.769531 Z M 53.144531 24.769531 "/><path style=" stroke:none;fill-rule:nonzero;fill:#282a50;fill-opacity:1;" d="M 43.078125 26.515625 C 43.109375 26.667969 38.300781 21.378906 39.160156 18.242188 C 40.011719 15.101562 42.402344 15.460938 42.402344 15.460938 C 42.402344 15.460938 43.6875 9.148438 49.746094 12.964844 C 49.746094 12.964844 53.039062 13.25 53.871094 15.816406 C 54.703125 18.386719 52.78125 20.117188 52.78125 20.117188 C 52.78125 20.117188 52.433594 17.914062 50.980469 18.121094 C 49.925781 18.269531 50.773438 19.257812 47.863281 19.144531 C 46.066406 19.078125 45.382812 17.96875 44.480469 18.707031 C 43.578125 19.445312 44.480469 19.773438 44.226562 22.878906 C 44.074219 24.785156 42.769531 25.089844 43.078125 26.515625 Z M 43.078125 26.515625 "/><path style=" stroke:none;fill-rule:nonzero;fill:#e4e7f3;fill-opacity:1;" d="M 48.484375 28.472656 L 50.90625 28.425781 C 50.90625 28.429688 49.914062 30.28125 48.484375 28.472656 Z M 48.484375 28.472656 "/><path style=" stroke:none;fill-rule:nonzero;fill:#282a50;fill-opacity:1;" d="M 49.195312 31.769531 C 47.996094 31.769531 46.605469 31.039062 45.347656 29.742188 C 45.328125 29.722656 45.328125 29.691406 45.351562 29.671875 C 45.371094 29.652344 45.402344 29.652344 45.421875 29.675781 C 46.71875 31.011719 48.15625 31.738281 49.363281 31.664062 C 49.734375 31.644531 49.925781 31.621094 50.226562 31.515625 C 50.253906 31.507812 50.28125 31.519531 50.289062 31.546875 C 50.300781 31.574219 50.289062 31.601562 50.261719 31.613281 C 49.949219 31.722656 49.75 31.742188 49.367188 31.769531 C 49.308594 31.769531 49.253906 31.769531 49.195312 31.769531 Z M 49.195312 31.769531 "/><path style=" stroke:none;fill-rule:nonzero;fill:#9f635f;fill-opacity:1;" d="M 43.171875 23.671875 C 43.171875 23.671875 41.074219 22.761719 41.460938 24.65625 C 41.84375 26.546875 43.789062 27.066406 43.789062 27.066406 Z M 43.171875 23.671875 "/><path style=" stroke:none;fill-rule:nonzero;fill:#282a50;fill-opacity:1;" d="M 42.8125 24.363281 C 42.8125 24.363281 41.257812 24.167969 43.097656 25.957031 Z M 42.8125 24.363281 "/><path style=" stroke:none;fill-rule:nonzero;fill:#282a50;fill-opacity:1;" d="M 51.320312 23.765625 C 51.40625 23.769531 51.472656 23.828125 51.527344 23.933594 C 51.578125 24.039062 51.601562 24.164062 51.589844 24.308594 C 51.582031 24.453125 51.542969 24.574219 51.476562 24.671875 C 51.410156 24.773438 51.335938 24.820312 51.25 24.8125 C 51.167969 24.808594 51.097656 24.75 51.046875 24.644531 C 50.992188 24.539062 50.972656 24.414062 50.980469 24.269531 C 50.988281 24.125 51.027344 24.003906 51.09375 23.902344 C 51.160156 23.804688 51.238281 23.757812 51.320312 23.765625 Z M 51.320312 23.765625 "/><path style=" stroke:none;fill-rule:nonzero;fill:#282a50;fill-opacity:1;" d="M 47.714844 23.945312 C 47.796875 23.953125 47.867188 24.007812 47.921875 24.113281 C 47.972656 24.222656 47.996094 24.347656 47.984375 24.492188 C 47.976562 24.636719 47.9375 24.757812 47.871094 24.855469 C 47.804688 24.953125 47.730469 25 47.644531 24.996094 C 47.558594 24.988281 47.492188 24.933594 47.4375 24.828125 C 47.386719 24.71875 47.363281 24.59375 47.375 24.449219 C 47.382812 24.304688 47.421875 24.183594 47.488281 24.085938 C 47.554688 23.988281 47.628906 23.941406 47.714844 23.945312 Z M 47.714844 23.945312 "/><path style=" stroke:none;fill-rule:nonzero;fill:#282a50;fill-opacity:1;" d="M 50.765625 22.648438 C 50.765625 22.648438 51.542969 21.867188 52.351562 22.148438 Z M 50.765625 22.648438 "/><path style=" stroke:none;fill-rule:nonzero;fill:#282a50;fill-opacity:1;" d="M 46.199219 22.78125 C 46.269531 22.757812 47.359375 22.398438 48.136719 23.015625 Z M 46.199219 22.78125 "/><path style=" stroke:none;fill-rule:nonzero;fill:#282a50;fill-opacity:1;" d="M 49.800781 26.804688 C 49.722656 26.804688 49.636719 26.796875 49.542969 26.78125 C 49.515625 26.777344 49.496094 26.753906 49.5 26.726562 C 49.503906 26.699219 49.527344 26.679688 49.554688 26.683594 C 49.933594 26.742188 50.175781 26.675781 50.226562 26.496094 C 50.285156 26.3125 50.121094 26.019531 49.902344 25.917969 C 49.878906 25.90625 49.867188 25.878906 49.878906 25.851562 C 49.890625 25.828125 49.921875 25.816406 49.945312 25.828125 C 50.183594 25.9375 50.402344 26.269531 50.324219 26.527344 C 50.289062 26.640625 50.175781 26.804688 49.800781 26.804688 Z M 49.800781 26.804688 "/><path style=" stroke:none;fill-rule:nonzero;fill:#282a50;fill-opacity:1;" d="M 66.496094 48.691406 C 66.496094 48.691406 66.492188 48.691406 66.488281 48.691406 C 66.453125 48.6875 66.429688 48.652344 66.433594 48.617188 C 66.65625 46.847656 66.824219 44.449219 66.824219 44.425781 C 66.828125 44.390625 66.855469 44.363281 66.894531 44.363281 C 66.929688 44.367188 66.957031 44.398438 66.953125 44.433594 C 66.949219 44.457031 66.78125 46.863281 66.5625 48.636719 C 66.554688 48.667969 66.527344 48.691406 66.496094 48.691406 Z M 66.496094 48.691406 "/><path style=" stroke:none;fill-rule:nonzero;fill:#e4e7f3;fill-opacity:1;" d="M 41.886719 65.285156 L 43.707031 59.71875 L 43.800781 59.75 L 41.980469 65.316406 Z M 41.886719 65.285156 "/><path style=" stroke:none;fill-rule:nonzero;fill:#282a50;fill-opacity:1;" d="M 35.417969 19.640625 L 23.816406 19.640625 C 23.265625 19.640625 22.820312 20.085938 22.820312 20.632812 L 22.820312 26.59375 C 22.820312 27.144531 23.265625 27.589844 23.816406 27.589844 L 27.734375 27.589844 L 29.617188 29.988281 L 31.496094 27.589844 L 35.417969 27.589844 C 35.96875 27.589844 36.414062 27.144531 36.414062 26.59375 L 36.414062 20.632812 C 36.410156 20.085938 35.96875 19.640625 35.417969 19.640625 Z M 35.417969 19.640625 "/><path style=" stroke:none;fill-rule:nonzero;fill:#ffffff;fill-opacity:1;" d="M 27.226562 23.613281 C 27.226562 23.765625 27.171875 23.894531 27.066406 24.003906 C 26.957031 24.109375 26.828125 24.164062 26.675781 24.164062 C 26.527344 24.164062 26.394531 24.109375 26.289062 24.003906 C 26.179688 23.894531 26.128906 23.765625 26.128906 23.613281 C 26.128906 23.464844 26.179688 23.332031 26.289062 23.226562 C 26.394531 23.121094 26.527344 23.066406 26.675781 23.066406 C 26.828125 23.066406 26.957031 23.121094 27.066406 23.226562 C 27.171875 23.332031 27.226562 23.464844 27.226562 23.613281 Z M 27.226562 23.613281 "/><path style=" stroke:none;fill-rule:nonzero;fill:#ffffff;fill-opacity:1;" d="M 30.164062 23.613281 C 30.164062 23.765625 30.113281 23.894531 30.003906 24.003906 C 29.898438 24.109375 29.769531 24.164062 29.617188 24.164062 C 29.464844 24.164062 29.335938 24.109375 29.230469 24.003906 C 29.121094 23.894531 29.066406 23.765625 29.066406 23.613281 C 29.066406 23.464844 29.121094 23.332031 29.230469 23.226562 C 29.335938 23.121094 29.464844 23.066406 29.617188 23.066406 C 29.769531 23.066406 29.898438 23.121094 30.003906 23.226562 C 30.113281 23.332031 30.164062 23.464844 30.164062 23.613281 Z M 30.164062 23.613281 "/><path style=" stroke:none;fill-rule:nonzero;fill:#ffffff;fill-opacity:1;" d="M 33.105469 23.613281 C 33.105469 23.765625 33.050781 23.894531 32.945312 24.003906 C 32.835938 24.109375 32.707031 24.164062 32.558594 24.164062 C 32.40625 24.164062 32.277344 24.109375 32.167969 24.003906 C 32.0625 23.894531 32.007812 23.765625 32.007812 23.613281 C 32.007812 23.464844 32.0625 23.332031 32.167969 23.226562 C 32.277344 23.121094 32.40625 23.066406 32.558594 23.066406 C 32.707031 23.066406 32.835938 23.121094 32.945312 23.226562 C 33.050781 23.332031 33.105469 23.464844 33.105469 23.613281 Z M 33.105469 23.613281 "/><path style=" stroke:none;fill-rule:nonzero;fill:#ffffff;fill-opacity:1;" d="M 94.6875 18.089844 L 94.679688 20.351562 L 94.617188 36.878906 C 94.617188 37.730469 93.878906 38.464844 93.023438 38.464844 L 61.316406 38.464844 C 60.554688 38.464844 59.972656 37.878906 59.976562 37.121094 L 60.039062 20.351562 L 60.046875 18.328125 C 60.046875 17.476562 60.785156 16.746094 61.640625 16.746094 L 93.34375 16.746094 C 94.105469 16.746094 94.691406 17.332031 94.6875 18.089844 Z M 94.6875 18.089844 "/><path style=" stroke:none;fill-rule:nonzero;fill:#ffffff;fill-opacity:1;" d="M 93.019531 38.5625 L 61.316406 38.5625 C 60.921875 38.5625 60.558594 38.414062 60.289062 38.144531 C 60.019531 37.875 59.875 37.511719 59.875 37.117188 L 59.945312 18.328125 C 59.945312 17.417969 60.722656 16.648438 61.640625 16.648438 L 93.339844 16.648438 C 93.738281 16.648438 94.101562 16.796875 94.371094 17.0625 C 94.636719 17.332031 94.785156 17.695312 94.785156 18.089844 L 94.777344 20.351562 L 94.714844 36.878906 C 94.710938 37.792969 93.9375 38.5625 93.019531 38.5625 Z M 61.640625 16.84375 C 60.832031 16.84375 60.144531 17.523438 60.144531 18.328125 L 60.074219 37.117188 C 60.074219 37.457031 60.199219 37.773438 60.429688 38.003906 C 60.660156 38.234375 60.976562 38.359375 61.316406 38.359375 L 93.019531 38.359375 C 93.816406 38.359375 94.515625 37.667969 94.519531 36.875 L 94.589844 18.089844 C 94.589844 17.75 94.460938 17.433594 94.230469 17.203125 C 94 16.972656 93.683594 16.84375 93.34375 16.84375 Z M 61.640625 16.84375 "/><path style=" stroke:none;fill-rule:nonzero;fill:#ffffff;fill-opacity:1;" d="M 61.316406 37.671875 C 61.160156 37.671875 61.019531 37.625 60.917969 37.542969 C 60.820312 37.460938 60.765625 37.347656 60.765625 37.21875 L 60.835938 21.714844 C 60.839844 21.375 61.222656 21.0625 61.640625 21.0625 L 93.34375 21.0625 C 93.542969 21.0625 93.671875 21.132812 93.742188 21.191406 C 93.8125 21.246094 93.894531 21.351562 93.894531 21.515625 L 93.824219 37.015625 C 93.820312 37.359375 93.441406 37.671875 93.019531 37.671875 Z M 61.316406 37.671875 "/><path style=" stroke:none;fill-rule:nonzero;fill:#282a50;fill-opacity:1;" d="M 93.019531 37.761719 L 61.316406 37.761719 C 61.136719 37.761719 60.980469 37.707031 60.863281 37.613281 C 60.738281 37.511719 60.675781 37.375 60.675781 37.214844 L 60.746094 21.714844 C 60.75 21.324219 61.171875 20.96875 61.640625 20.96875 L 93.339844 20.96875 C 93.570312 20.96875 93.714844 21.050781 93.796875 21.117188 C 93.882812 21.191406 93.980469 21.316406 93.980469 21.515625 L 93.910156 37.015625 C 93.914062 37.40625 93.488281 37.761719 93.019531 37.761719 Z M 61.640625 21.152344 C 61.273438 21.152344 60.929688 21.425781 60.929688 21.714844 L 60.859375 37.21875 C 60.859375 37.320312 60.898438 37.40625 60.980469 37.472656 C 61.0625 37.542969 61.179688 37.582031 61.320312 37.582031 L 93.019531 37.582031 C 93.386719 37.582031 93.734375 37.308594 93.734375 37.015625 L 93.804688 21.515625 C 93.804688 21.414062 93.765625 21.324219 93.683594 21.261719 C 93.625 21.210938 93.519531 21.152344 93.34375 21.152344 Z M 61.640625 21.152344 "/><g clip-rule="nonzero" clip-path="url(#3c16f59882)"><path style=" stroke:none;fill-rule:nonzero;fill:#ffffff;fill-opacity:1;" d="M 94.125 23.523438 L 77.261719 23.523438 C 74.65625 23.523438 72.546875 25.632812 72.546875 28.238281 C 72.546875 30.84375 74.65625 32.957031 77.261719 32.957031 L 76.839844 35.246094 L 81.441406 32.957031 L 94.125 32.957031 C 96.730469 32.957031 98.839844 30.84375 98.839844 28.238281 C 98.839844 25.632812 96.730469 23.523438 94.125 23.523438 Z M 94.125 23.523438 "/><path style=" stroke:none;fill-rule:nonzero;fill:#282a50;fill-opacity:1;" d="M 76.707031 35.421875 L 77.140625 33.054688 C 74.542969 32.992188 72.445312 30.855469 72.445312 28.238281 C 72.445312 25.585938 74.605469 23.425781 77.261719 23.425781 L 94.125 23.425781 C 96.777344 23.425781 98.9375 25.585938 98.9375 28.238281 C 98.9375 30.894531 96.777344 33.054688 94.125 33.054688 L 81.464844 33.054688 Z M 77.261719 23.621094 C 74.714844 23.621094 72.644531 25.695312 72.644531 28.238281 C 72.644531 30.785156 74.714844 32.855469 77.261719 32.855469 L 77.378906 32.855469 L 76.976562 35.070312 L 81.421875 32.855469 L 94.125 32.855469 C 96.671875 32.855469 98.742188 30.785156 98.742188 28.238281 C 98.742188 25.695312 96.671875 23.621094 94.125 23.621094 Z M 77.261719 23.621094 "/></g><path style=" stroke:none;fill-rule:nonzero;fill:#282a50;fill-opacity:1;" d="M 77.160156 30.457031 C 75.941406 30.457031 74.949219 29.464844 74.949219 28.25 C 74.949219 27.03125 75.941406 26.039062 77.160156 26.039062 C 78.375 26.039062 79.367188 27.03125 79.367188 28.25 C 79.367188 29.464844 78.375 30.457031 77.160156 30.457031 Z M 77.160156 26.238281 C 76.050781 26.238281 75.148438 27.140625 75.148438 28.25 C 75.148438 29.355469 76.050781 30.257812 77.160156 30.257812 C 78.265625 30.257812 79.167969 29.355469 79.167969 28.25 C 79.167969 27.140625 78.265625 26.238281 77.160156 26.238281 Z M 77.160156 26.238281 "/><path style=" stroke:none;fill-rule:nonzero;fill:#282a50;fill-opacity:1;" d="M 77.160156 28.46875 C 76.726562 28.46875 76.378906 28.117188 76.378906 27.6875 C 76.378906 27.257812 76.726562 26.90625 77.160156 26.90625 C 77.589844 26.90625 77.9375 27.257812 77.9375 27.6875 C 77.9375 28.117188 77.589844 28.46875 77.160156 28.46875 Z M 77.160156 27.074219 C 76.820312 27.074219 76.542969 27.347656 76.542969 27.6875 C 76.542969 28.027344 76.820312 28.304688 77.160156 28.304688 C 77.496094 28.304688 77.773438 28.027344 77.773438 27.6875 C 77.773438 27.347656 77.496094 27.074219 77.160156 27.074219 Z M 77.160156 27.074219 "/><path style=" stroke:none;fill-rule:nonzero;fill:#282a50;fill-opacity:1;" d="M 75.355469 29.226562 L 75.175781 29.132812 C 75.292969 28.910156 75.523438 28.769531 75.773438 28.769531 L 78.542969 28.769531 C 78.792969 28.769531 79.019531 28.910156 79.136719 29.132812 L 78.960938 29.226562 C 78.878906 29.066406 78.71875 28.972656 78.542969 28.972656 L 75.773438 28.972656 C 75.597656 28.96875 75.4375 29.066406 75.355469 29.226562 Z M 75.355469 29.226562 "/><path style=" stroke:none;fill-rule:nonzero;fill:#282a50;fill-opacity:1;" d="M 91.859375 28.742188 L 95.675781 28.742188 L 95.675781 29.003906 L 91.859375 29.003906 Z M 91.859375 28.742188 "/><path style=" stroke:none;fill-rule:nonzero;fill:#282a50;fill-opacity:1;" d="M 80.945312 28.742188 L 90.945312 28.742188 L 90.945312 29.003906 L 80.945312 29.003906 Z M 80.945312 28.742188 "/><path style=" stroke:none;fill-rule:nonzero;fill:#282a50;fill-opacity:1;" d="M 87.894531 29.882812 L 95.675781 29.882812 L 95.675781 30.144531 L 87.894531 30.144531 Z M 87.894531 29.882812 "/><path style=" stroke:none;fill-rule:nonzero;fill:#282a50;fill-opacity:1;" d="M 80.945312 29.882812 L 86.980469 29.882812 L 86.980469 30.144531 L 80.945312 30.144531 Z M 80.945312 29.882812 "/><path style=" stroke:none;fill-rule:nonzero;fill:#ecbf48;fill-opacity:1;" d="M 82.609375 25.566406 L 82.863281 26.085938 C 82.875 26.109375 82.902344 26.128906 82.929688 26.132812 L 83.5 26.21875 C 83.570312 26.226562 83.601562 26.316406 83.546875 26.367188 L 83.132812 26.769531 C 83.113281 26.789062 83.105469 26.816406 83.109375 26.847656 L 83.207031 27.414062 C 83.222656 27.484375 83.148438 27.539062 83.082031 27.507812 L 82.570312 27.238281 C 82.542969 27.226562 82.515625 27.226562 82.492188 27.238281 L 81.980469 27.507812 C 81.914062 27.539062 81.839844 27.484375 81.851562 27.414062 L 81.953125 26.847656 C 81.957031 26.816406 81.949219 26.789062 81.925781 26.769531 L 81.511719 26.367188 C 81.460938 26.316406 81.492188 26.226562 81.5625 26.21875 L 82.132812 26.132812 C 82.160156 26.128906 82.183594 26.109375 82.199219 26.085938 L 82.453125 25.566406 C 82.484375 25.503906 82.574219 25.503906 82.609375 25.566406 Z M 82.609375 25.566406 "/><path style=" stroke:none;fill-rule:nonzero;fill:#ecbf48;fill-opacity:1;" d="M 85.496094 25.566406 L 85.753906 26.085938 C 85.765625 26.109375 85.789062 26.128906 85.820312 26.132812 L 86.390625 26.21875 C 86.460938 26.226562 86.488281 26.316406 86.4375 26.367188 L 86.023438 26.769531 C 86.003906 26.789062 85.996094 26.816406 86 26.847656 L 86.097656 27.414062 C 86.113281 27.484375 86.039062 27.539062 85.972656 27.507812 L 85.460938 27.238281 C 85.433594 27.226562 85.40625 27.226562 85.378906 27.238281 L 84.867188 27.507812 C 84.804688 27.539062 84.730469 27.484375 84.742188 27.414062 L 84.839844 26.847656 C 84.847656 26.816406 84.835938 26.789062 84.816406 26.769531 L 84.402344 26.367188 C 84.351562 26.316406 84.382812 26.226562 84.453125 26.21875 L 85.023438 26.132812 C 85.050781 26.128906 85.074219 26.109375 85.085938 26.085938 L 85.34375 25.566406 C 85.375 25.503906 85.464844 25.503906 85.496094 25.566406 Z M 85.496094 25.566406 "/><path style=" stroke:none;fill-rule:nonzero;fill:#ecbf48;fill-opacity:1;" d="M 88.386719 25.566406 L 88.644531 26.085938 C 88.65625 26.109375 88.679688 26.128906 88.707031 26.132812 L 89.28125 26.21875 C 89.351562 26.226562 89.378906 26.316406 89.328125 26.367188 L 88.914062 26.769531 C 88.894531 26.789062 88.882812 26.816406 88.890625 26.847656 L 88.988281 27.414062 C 89 27.484375 88.925781 27.539062 88.863281 27.507812 L 88.351562 27.238281 C 88.324219 27.226562 88.292969 27.226562 88.269531 27.238281 L 87.757812 27.507812 C 87.695312 27.539062 87.621094 27.484375 87.632812 27.414062 L 87.730469 26.847656 C 87.738281 26.816406 87.726562 26.789062 87.707031 26.769531 L 87.292969 26.367188 C 87.242188 26.316406 87.269531 26.226562 87.339844 26.21875 L 87.914062 26.132812 C 87.941406 26.128906 87.964844 26.109375 87.976562 26.085938 L 88.234375 25.566406 C 88.265625 25.503906 88.355469 25.503906 88.386719 25.566406 Z M 88.386719 25.566406 "/><path style=" stroke:none;fill-rule:nonzero;fill:#ecbf48;fill-opacity:1;" d="M 91.277344 25.566406 L 91.535156 26.085938 C 91.546875 26.109375 91.570312 26.128906 91.601562 26.132812 L 92.171875 26.21875 C 92.242188 26.226562 92.273438 26.316406 92.21875 26.367188 L 91.804688 26.769531 C 91.785156 26.789062 91.777344 26.816406 91.78125 26.847656 L 91.878906 27.414062 C 91.894531 27.484375 91.820312 27.539062 91.753906 27.507812 L 91.242188 27.238281 C 91.214844 27.226562 91.1875 27.226562 91.164062 27.238281 L 90.648438 27.507812 C 90.585938 27.539062 90.511719 27.484375 90.523438 27.414062 L 90.621094 26.847656 C 90.628906 26.816406 90.617188 26.789062 90.597656 26.769531 L 90.183594 26.367188 C 90.132812 26.316406 90.164062 26.226562 90.234375 26.21875 L 90.804688 26.132812 C 90.832031 26.128906 90.855469 26.109375 90.871094 26.085938 L 91.125 25.566406 C 91.15625 25.503906 91.246094 25.503906 91.277344 25.566406 Z M 91.277344 25.566406 "/><path style=" stroke:none;fill-rule:nonzero;fill:#e4e7f3;fill-opacity:1;" d="M 94.167969 25.566406 L 94.425781 26.085938 C 94.4375 26.109375 94.460938 26.128906 94.488281 26.132812 L 95.0625 26.21875 C 95.132812 26.226562 95.160156 26.316406 95.109375 26.367188 L 94.695312 26.769531 C 94.675781 26.789062 94.667969 26.816406 94.671875 26.847656 L 94.769531 27.414062 C 94.78125 27.484375 94.707031 27.539062 94.644531 27.507812 L 94.132812 27.238281 C 94.105469 27.226562 94.078125 27.226562 94.050781 27.238281 L 93.539062 27.507812 C 93.476562 27.539062 93.402344 27.484375 93.414062 27.414062 L 93.511719 26.847656 C 93.519531 26.816406 93.507812 26.789062 93.488281 26.769531 L 93.074219 26.367188 C 93.023438 26.316406 93.050781 26.226562 93.121094 26.21875 L 93.695312 26.132812 C 93.722656 26.128906 93.746094 26.109375 93.757812 26.085938 L 94.015625 25.566406 C 94.046875 25.503906 94.136719 25.503906 94.167969 25.566406 Z M 94.167969 25.566406 "/><path style=" stroke:none;fill-rule:nonzero;fill:#282a50;fill-opacity:1;" d="M 94.6875 18.089844 L 94.679688 20.351562 L 60.039062 20.351562 L 60.046875 18.328125 C 60.046875 17.476562 60.785156 16.746094 61.640625 16.746094 L 93.34375 16.746094 C 94.105469 16.746094 94.691406 17.332031 94.6875 18.089844 Z M 94.6875 18.089844 "/><path style=" stroke:none;fill-rule:nonzero;fill:#ffffff;fill-opacity:1;" d="M 62.59375 18.542969 C 62.59375 18.65625 62.554688 18.75 62.472656 18.832031 C 62.394531 18.910156 62.296875 18.953125 62.183594 18.953125 C 62.070312 18.953125 61.972656 18.910156 61.894531 18.832031 C 61.8125 18.75 61.773438 18.65625 61.773438 18.542969 C 61.773438 18.429688 61.8125 18.332031 61.894531 18.25 C 61.972656 18.171875 62.070312 18.132812 62.183594 18.132812 C 62.296875 18.132812 62.394531 18.171875 62.472656 18.25 C 62.554688 18.332031 62.59375 18.429688 62.59375 18.542969 Z M 62.59375 18.542969 "/><path style=" stroke:none;fill-rule:nonzero;fill:#ffffff;fill-opacity:1;" d="M 66.453125 18.542969 C 66.453125 18.65625 66.414062 18.75 66.332031 18.832031 C 66.253906 18.910156 66.15625 18.953125 66.042969 18.953125 C 65.929688 18.953125 65.835938 18.910156 65.753906 18.832031 C 65.675781 18.75 65.632812 18.65625 65.632812 18.542969 C 65.632812 18.429688 65.675781 18.332031 65.753906 18.25 C 65.835938 18.171875 65.929688 18.132812 66.042969 18.132812 C 66.15625 18.132812 66.253906 18.171875 66.332031 18.25 C 66.414062 18.332031 66.453125 18.429688 66.453125 18.542969 Z M 66.453125 18.542969 "/><path style=" stroke:none;fill-rule:nonzero;fill:#ffffff;fill-opacity:1;" d="M 64.523438 18.542969 C 64.523438 18.65625 64.484375 18.75 64.40625 18.832031 C 64.324219 18.910156 64.226562 18.953125 64.113281 18.953125 C 64 18.953125 63.90625 18.910156 63.824219 18.832031 C 63.746094 18.75 63.707031 18.65625 63.707031 18.542969 C 63.707031 18.429688 63.746094 18.332031 63.824219 18.25 C 63.90625 18.171875 64 18.132812 64.113281 18.132812 C 64.226562 18.132812 64.324219 18.171875 64.40625 18.25 C 64.484375 18.332031 64.523438 18.429688 64.523438 18.542969 Z M 64.523438 18.542969 "/><path style=" stroke:none;fill-rule:nonzero;fill:#282a50;fill-opacity:1;" d="M 66.226562 29.777344 L 68.9375 29.777344 L 68.9375 30.0625 L 66.226562 30.0625 Z M 66.226562 29.777344 "/><path style=" stroke:none;fill-rule:nonzero;fill:#282a50;fill-opacity:1;" d="M 62.847656 29.777344 L 65.660156 29.777344 L 65.660156 30.0625 L 62.847656 30.0625 Z M 62.847656 29.777344 "/><path style=" stroke:none;fill-rule:nonzero;fill:#e4e7f3;fill-opacity:1;" d="M 62.847656 31.273438 L 68.9375 31.273438 L 68.9375 31.554688 L 62.847656 31.554688 Z M 62.847656 31.273438 "/><path style=" stroke:none;fill-rule:nonzero;fill:#282a50;fill-opacity:1;" d="M 62.847656 32.765625 L 68.9375 32.765625 L 68.9375 33.050781 L 62.847656 33.050781 Z M 62.847656 32.765625 "/><path style=" stroke:none;fill-rule:nonzero;fill:#e4e7f3;fill-opacity:1;" d="M 62.847656 34.261719 L 66.03125 34.261719 L 66.03125 34.542969 L 62.847656 34.542969 Z M 62.847656 34.261719 "/><path style=" stroke:none;fill-rule:nonzero;fill:#282a50;fill-opacity:1;" d="M 68.777344 25.3125 C 68.777344 25.707031 68.699219 26.089844 68.546875 26.457031 C 68.398438 26.824219 68.179688 27.144531 67.902344 27.425781 C 67.621094 27.707031 67.296875 27.921875 66.929688 28.074219 C 66.5625 28.226562 66.183594 28.304688 65.785156 28.304688 C 65.390625 28.304688 65.007812 28.226562 64.640625 28.074219 C 64.277344 27.921875 63.953125 27.707031 63.671875 27.425781 C 63.390625 27.144531 63.175781 26.824219 63.023438 26.457031 C 62.871094 26.089844 62.796875 25.707031 62.796875 25.3125 C 62.796875 24.914062 62.871094 24.53125 63.023438 24.167969 C 63.175781 23.800781 63.390625 23.476562 63.671875 23.195312 C 63.953125 22.914062 64.277344 22.699219 64.640625 22.546875 C 65.007812 22.394531 65.390625 22.320312 65.785156 22.320312 C 66.183594 22.320312 66.5625 22.394531 66.929688 22.546875 C 67.296875 22.699219 67.621094 22.914062 67.902344 23.195312 C 68.179688 23.476562 68.398438 23.800781 68.546875 24.167969 C 68.699219 24.53125 68.777344 24.914062 68.777344 25.3125 Z M 68.777344 25.3125 "/><path style=" stroke:none;fill-rule:nonzero;fill:#ffffff;fill-opacity:1;" d="M 65.03125 26.167969 C 65 26.167969 64.96875 26.164062 64.941406 26.148438 C 64.878906 26.121094 64.832031 26.0625 64.816406 25.996094 L 64.636719 25.023438 C 64.613281 24.90625 64.691406 24.792969 64.808594 24.769531 C 64.925781 24.75 65.039062 24.828125 65.058594 24.945312 L 65.183594 25.617188 L 67.15625 24.457031 C 67.257812 24.398438 67.390625 24.433594 67.453125 24.535156 C 67.511719 24.636719 67.476562 24.765625 67.375 24.828125 L 65.140625 26.144531 C 65.105469 26.15625 65.066406 26.167969 65.03125 26.167969 Z M 65.03125 26.167969 "/><g style="fill:#000000;fill-opacity:1;"><g transform="translate(86.284322, 35.823662)"><path style="stroke:none" d="M 1.15625 -1.5 L 1.15625 -1.25 L 0.5 -1.25 L 0.5 -0.859375 L 1.09375 -0.859375 L 1.09375 -0.609375 L 0.5 -0.609375 L 0.5 0 L 0.203125 0 L 0.203125 -1.5 Z M 1.15625 -1.5 "/></g></g><g style="fill:#000000;fill-opacity:1;"><g transform="translate(87.416268, 35.823662)"><path style="stroke:none" d="M 1.4375 0 L 1.125 0 L 1.015625 -0.34375 L 0.4375 -0.34375 L 0.328125 0 L 0.015625 0 L 0.546875 -1.5 L 0.921875 -1.5 Z M 0.71875 -1.1875 L 0.515625 -0.59375 L 0.9375 -0.59375 L 0.734375 -1.1875 Z M 0.71875 -1.1875 "/></g></g><g style="fill:#000000;fill-opacity:1;"><g transform="translate(88.85133, 35.823662)"><path style="stroke:none" d="M 1.203125 0.375 C 1.066406 0.375 0.953125 0.34375 0.859375 0.28125 C 0.773438 0.21875 0.71875 0.128906 0.6875 0.015625 C 0.570312 -0.00390625 0.472656 -0.046875 0.390625 -0.109375 C 0.304688 -0.171875 0.238281 -0.253906 0.1875 -0.359375 C 0.144531 -0.460938 0.125 -0.59375 0.125 -0.75 C 0.125 -0.925781 0.148438 -1.070312 0.203125 -1.1875 C 0.265625 -1.300781 0.347656 -1.382812 0.453125 -1.4375 C 0.554688 -1.5 0.679688 -1.53125 0.828125 -1.53125 C 0.960938 -1.53125 1.082031 -1.5 1.1875 -1.4375 C 1.289062 -1.382812 1.367188 -1.300781 1.421875 -1.1875 C 1.484375 -1.070312 1.515625 -0.925781 1.515625 -0.75 C 1.515625 -0.53125 1.46875 -0.359375 1.375 -0.234375 C 1.28125 -0.109375 1.144531 -0.0351562 0.96875 -0.015625 L 0.96875 0.015625 C 0.988281 0.046875 1.019531 0.0703125 1.0625 0.09375 C 1.101562 0.113281 1.148438 0.125 1.203125 0.125 C 1.253906 0.125 1.296875 0.117188 1.328125 0.109375 L 1.34375 0.109375 L 1.390625 0.34375 C 1.367188 0.351562 1.335938 0.359375 1.296875 0.359375 C 1.265625 0.367188 1.234375 0.375 1.203125 0.375 Z M 0.828125 -0.234375 C 0.953125 -0.234375 1.046875 -0.273438 1.109375 -0.359375 C 1.179688 -0.441406 1.21875 -0.570312 1.21875 -0.75 C 1.21875 -0.925781 1.179688 -1.054688 1.109375 -1.140625 C 1.046875 -1.222656 0.953125 -1.265625 0.828125 -1.265625 C 0.691406 -1.265625 0.585938 -1.222656 0.515625 -1.140625 C 0.453125 -1.054688 0.421875 -0.925781 0.421875 -0.75 C 0.421875 -0.570312 0.453125 -0.441406 0.515625 -0.359375 C 0.585938 -0.273438 0.691406 -0.234375 0.828125 -0.234375 Z M 0.828125 -0.234375 "/></g></g></g></svg>