<svg xmlns="http://www.w3.org/2000/svg" xmlns:xlink="http://www.w3.org/1999/xlink" width="100" zoomAndPan="magnify" viewBox="0 0 75 74.999997" height="100" preserveAspectRatio="xMidYMid meet" version="1.2"><defs><clipPath id="2ddfad2ebd"><path d="M 11.550781 6.53125 L 65.550781 6.53125 L 65.550781 60.53125 L 11.550781 60.53125 Z M 11.550781 6.53125 "/></clipPath></defs><g id="77fe135fed"><rect x="0" width="75" y="0" height="74.999997" style="fill:#ffffff;fill-opacity:1;stroke:none;"/><rect x="0" width="75" y="0" height="74.999997" style="fill:#ffffff;fill-opacity:1;stroke:none;"/><g clip-rule="nonzero" clip-path="url(#2ddfad2ebd)"><path style=" stroke:none;fill-rule:nonzero;fill:#e04444;fill-opacity:1;" d="M 38.550781 6.53125 C 37.664062 6.53125 36.785156 6.574219 35.902344 6.660156 C 35.023438 6.75 34.148438 6.878906 33.28125 7.050781 C 32.414062 7.222656 31.558594 7.4375 30.710938 7.695312 C 29.867188 7.949219 29.035156 8.25 28.21875 8.585938 C 27.402344 8.925781 26.601562 9.304688 25.824219 9.71875 C 25.042969 10.136719 24.285156 10.589844 23.550781 11.082031 C 22.8125 11.574219 22.105469 12.097656 21.421875 12.660156 C 20.738281 13.222656 20.082031 13.816406 19.457031 14.441406 C 18.832031 15.066406 18.238281 15.71875 17.679688 16.402344 C 17.117188 17.085938 16.589844 17.796875 16.101562 18.53125 C 15.609375 19.265625 15.15625 20.023438 14.738281 20.804688 C 14.320312 21.582031 13.945312 22.382812 13.605469 23.199219 C 13.265625 24.015625 12.96875 24.847656 12.710938 25.695312 C 12.457031 26.539062 12.242188 27.398438 12.070312 28.265625 C 11.894531 29.132812 11.765625 30.003906 11.679688 30.886719 C 11.59375 31.765625 11.550781 32.648438 11.550781 33.53125 C 11.550781 34.417969 11.59375 35.296875 11.679688 36.179688 C 11.765625 37.058594 11.894531 37.933594 12.070312 38.800781 C 12.242188 39.667969 12.457031 40.523438 12.710938 41.371094 C 12.96875 42.214844 13.265625 43.046875 13.605469 43.863281 C 13.945312 44.679688 14.320312 45.480469 14.738281 46.257812 C 15.15625 47.039062 15.609375 47.796875 16.101562 48.53125 C 16.589844 49.265625 17.117188 49.976562 17.679688 50.660156 C 18.238281 51.34375 18.832031 52 19.457031 52.625 C 20.082031 53.25 20.738281 53.84375 21.421875 54.402344 C 22.105469 54.964844 22.8125 55.488281 23.550781 55.980469 C 24.285156 56.472656 25.042969 56.925781 25.824219 57.34375 C 26.601562 57.761719 27.402344 58.136719 28.21875 58.476562 C 29.035156 58.816406 29.867188 59.113281 30.710938 59.371094 C 31.558594 59.625 32.414062 59.839844 33.28125 60.011719 C 34.148438 60.183594 35.023438 60.316406 35.902344 60.402344 C 36.785156 60.488281 37.664062 60.53125 38.550781 60.53125 C 39.433594 60.53125 40.316406 60.488281 41.195312 60.402344 C 42.078125 60.316406 42.949219 60.183594 43.816406 60.011719 C 44.683594 59.839844 45.542969 59.625 46.386719 59.371094 C 47.234375 59.113281 48.066406 58.816406 48.882812 58.476562 C 49.699219 58.136719 50.496094 57.761719 51.277344 57.34375 C 52.058594 56.925781 52.816406 56.472656 53.550781 55.980469 C 54.285156 55.488281 54.996094 54.964844 55.679688 54.402344 C 56.363281 53.84375 57.015625 53.25 57.640625 52.625 C 58.265625 52 58.859375 51.34375 59.421875 50.660156 C 59.980469 49.976562 60.507812 49.265625 61 48.53125 C 61.492188 47.796875 61.945312 47.039062 62.363281 46.257812 C 62.777344 45.480469 63.15625 44.679688 63.496094 43.863281 C 63.832031 43.046875 64.128906 42.214844 64.386719 41.371094 C 64.644531 40.523438 64.859375 39.667969 65.03125 38.800781 C 65.203125 37.933594 65.332031 37.058594 65.421875 36.179688 C 65.507812 35.296875 65.550781 34.417969 65.550781 33.53125 C 65.550781 32.648438 65.503906 31.765625 65.417969 30.886719 C 65.328125 30.007812 65.199219 29.132812 65.027344 28.265625 C 64.851562 27.398438 64.636719 26.542969 64.378906 25.699219 C 64.125 24.851562 63.824219 24.019531 63.488281 23.203125 C 63.148438 22.386719 62.769531 21.589844 62.351562 20.808594 C 61.9375 20.03125 61.480469 19.273438 60.992188 18.539062 C 60.5 17.804688 59.972656 17.09375 59.410156 16.410156 C 58.851562 15.726562 58.257812 15.074219 57.632812 14.449219 C 57.007812 13.824219 56.355469 13.230469 55.671875 12.667969 C 54.988281 12.109375 54.277344 11.582031 53.542969 11.089844 C 52.808594 10.601562 52.050781 10.144531 51.273438 9.730469 C 50.492188 9.3125 49.695312 8.933594 48.878906 8.59375 C 48.0625 8.257812 47.230469 7.957031 46.382812 7.703125 C 45.539062 7.445312 44.683594 7.230469 43.816406 7.054688 C 42.949219 6.882812 42.074219 6.753906 41.195312 6.664062 C 40.316406 6.578125 39.433594 6.53125 38.550781 6.53125 Z M 38.550781 49.730469 C 35.832031 49.730469 33.277344 49.082031 30.886719 47.789062 L 24.667969 49.65625 C 24.5 49.707031 24.328125 49.730469 24.148438 49.730469 C 24.007812 49.730469 23.871094 49.714844 23.734375 49.683594 C 23.597656 49.652344 23.46875 49.601562 23.339844 49.539062 C 23.214844 49.476562 23.097656 49.402344 22.992188 49.308594 C 22.882812 49.21875 22.789062 49.117188 22.703125 49.007812 C 22.621094 48.894531 22.550781 48.773438 22.496094 48.644531 C 22.441406 48.515625 22.402344 48.382812 22.375 48.242188 C 22.351562 48.105469 22.34375 47.964844 22.351562 47.824219 C 22.359375 47.683594 22.386719 47.546875 22.425781 47.414062 L 24.292969 41.195312 C 24.015625 40.679688 23.765625 40.148438 23.546875 39.605469 C 23.328125 39.0625 23.140625 38.507812 22.980469 37.945312 C 22.820312 37.382812 22.691406 36.808594 22.59375 36.234375 C 22.496094 35.65625 22.429688 35.074219 22.398438 34.488281 C 22.363281 33.902344 22.359375 33.320312 22.390625 32.734375 C 22.417969 32.148438 22.480469 31.566406 22.570312 30.988281 C 22.664062 30.410156 22.789062 29.839844 22.941406 29.273438 C 23.097656 28.707031 23.28125 28.152344 23.496094 27.609375 C 23.710938 27.0625 23.953125 26.53125 24.226562 26.011719 C 24.5 25.492188 24.796875 24.992188 25.125 24.503906 C 25.453125 24.019531 25.804688 23.550781 26.183594 23.105469 C 26.558594 22.65625 26.960938 22.230469 27.382812 21.824219 C 27.808594 21.421875 28.253906 21.039062 28.71875 20.683594 C 29.183594 20.328125 29.667969 20 30.167969 19.695312 C 30.667969 19.390625 31.183594 19.117188 31.714844 18.867188 C 32.246094 18.621094 32.789062 18.402344 33.34375 18.214844 C 33.898438 18.023438 34.460938 17.867188 35.03125 17.738281 C 35.605469 17.609375 36.183594 17.515625 36.765625 17.449219 C 37.347656 17.382812 37.929688 17.351562 38.515625 17.351562 C 39.101562 17.347656 39.6875 17.378906 40.269531 17.441406 C 40.851562 17.503906 41.429688 17.59375 42 17.71875 C 42.574219 17.84375 43.136719 18 43.695312 18.183594 C 44.25 18.371094 44.792969 18.585938 45.324219 18.832031 C 45.859375 19.074219 46.375 19.347656 46.878906 19.648438 C 47.378906 19.949219 47.867188 20.277344 48.332031 20.632812 C 48.800781 20.984375 49.246094 21.363281 49.671875 21.765625 C 50.097656 22.167969 50.5 22.589844 50.882812 23.035156 C 51.261719 23.484375 51.617188 23.949219 51.945312 24.433594 C 52.277344 24.917969 52.578125 25.417969 52.851562 25.933594 C 53.128906 26.453125 53.375 26.980469 53.59375 27.527344 C 53.808594 28.070312 53.996094 28.625 54.15625 29.1875 C 54.3125 29.753906 54.4375 30.324219 54.535156 30.902344 C 54.628906 31.480469 54.695312 32.0625 54.726562 32.648438 C 54.757812 33.230469 54.757812 33.816406 54.726562 34.402344 C 54.695312 34.988281 54.632812 35.566406 54.539062 36.144531 C 54.445312 36.722656 54.320312 37.296875 54.164062 37.859375 C 54.007812 38.425781 53.820312 38.980469 53.605469 39.523438 C 53.386719 40.070312 53.144531 40.597656 52.867188 41.117188 C 52.59375 41.636719 52.292969 42.136719 51.964844 42.621094 C 51.636719 43.105469 51.28125 43.574219 50.902344 44.019531 C 50.523438 44.464844 50.121094 44.890625 49.695312 45.292969 C 49.269531 45.695312 48.824219 46.074219 48.359375 46.429688 C 47.894531 46.785156 47.410156 47.113281 46.90625 47.414062 C 46.40625 47.714844 45.886719 47.992188 45.355469 48.238281 C 44.824219 48.480469 44.28125 48.699219 43.726562 48.886719 C 43.171875 49.074219 42.605469 49.230469 42.035156 49.355469 C 41.460938 49.480469 40.886719 49.574219 40.300781 49.636719 C 39.71875 49.699219 39.136719 49.730469 38.550781 49.730469 Z M 38.550781 49.730469 "/></g><path style=" stroke:none;fill-rule:nonzero;fill:#e04444;fill-opacity:1;" d="M 38.550781 20.933594 C 37.433594 20.929688 36.335938 21.074219 35.257812 21.363281 C 34.179688 21.65625 33.15625 22.082031 32.191406 22.644531 C 31.226562 23.207031 30.355469 23.882812 29.570312 24.679688 C 28.785156 25.476562 28.121094 26.359375 27.570312 27.332031 C 27.023438 28.304688 26.613281 29.332031 26.335938 30.414062 C 26.0625 31.496094 25.933594 32.597656 25.953125 33.714844 C 25.96875 34.832031 26.132812 35.925781 26.445312 36.996094 C 26.753906 38.070312 27.199219 39.085938 27.777344 40.039062 C 28.054688 40.496094 28.113281 40.980469 27.957031 41.488281 L 26.832031 45.246094 L 30.589844 44.121094 C 31.097656 43.964844 31.582031 44.027344 32.039062 44.300781 C 32.453125 44.550781 32.882812 44.777344 33.320312 44.980469 C 33.761719 45.183594 34.214844 45.359375 34.675781 45.511719 C 35.136719 45.660156 35.601562 45.785156 36.078125 45.878906 C 36.554688 45.976562 37.03125 46.046875 37.515625 46.085938 C 38 46.128906 38.484375 46.140625 38.96875 46.125 C 39.453125 46.109375 39.933594 46.070312 40.414062 45.996094 C 40.894531 45.925781 41.367188 45.828125 41.835938 45.703125 C 42.304688 45.578125 42.765625 45.425781 43.214844 45.25 C 43.667969 45.070312 44.105469 44.867188 44.53125 44.636719 C 44.960938 44.410156 45.375 44.15625 45.773438 43.878906 C 46.167969 43.601562 46.550781 43.304688 46.914062 42.984375 C 47.277344 42.664062 47.621094 42.324219 47.945312 41.960938 C 48.269531 41.601562 48.574219 41.222656 48.855469 40.828125 C 49.136719 40.433594 49.394531 40.023438 49.625 39.597656 C 49.859375 39.171875 50.066406 38.738281 50.25 38.289062 C 50.433594 37.839844 50.589844 37.378906 50.71875 36.914062 C 50.851562 36.445312 50.953125 35.972656 51.027344 35.496094 C 51.105469 35.015625 51.152344 34.535156 51.171875 34.050781 C 51.191406 33.566406 51.183594 33.082031 51.148438 32.597656 C 51.113281 32.113281 51.046875 31.632812 50.957031 31.15625 C 50.867188 30.679688 50.746094 30.210938 50.601562 29.75 C 50.457031 29.285156 50.285156 28.835938 50.085938 28.390625 C 49.890625 27.949219 49.667969 27.519531 49.417969 27.101562 C 49.171875 26.683594 48.902344 26.285156 48.605469 25.898438 C 48.3125 25.511719 48 25.144531 47.664062 24.796875 C 47.324219 24.445312 46.972656 24.117188 46.597656 23.808594 C 46.222656 23.5 45.832031 23.214844 45.425781 22.949219 C 45.015625 22.6875 44.597656 22.449219 44.160156 22.234375 C 43.726562 22.019531 43.28125 21.832031 42.824219 21.667969 C 42.367188 21.503906 41.902344 21.367188 41.429688 21.257812 C 40.957031 21.148438 40.480469 21.066406 40 21.011719 C 39.519531 20.957031 39.035156 20.929688 38.550781 20.933594 Z M 38.550781 43.511719 C 38.3125 43.511719 38.082031 43.46875 37.859375 43.375 C 37.640625 43.285156 37.445312 43.15625 37.277344 42.984375 C 37.109375 42.816406 36.976562 42.621094 36.886719 42.402344 C 36.796875 42.179688 36.75 41.953125 36.75 41.710938 C 36.75 41.472656 36.796875 41.246094 36.886719 41.023438 C 36.976562 40.804688 37.109375 40.609375 37.277344 40.441406 C 37.445312 40.269531 37.640625 40.140625 37.859375 40.050781 C 38.082031 39.957031 38.3125 39.914062 38.550781 39.914062 C 38.789062 39.914062 39.019531 39.957031 39.238281 40.050781 C 39.460938 40.140625 39.652344 40.269531 39.824219 40.441406 C 39.992188 40.609375 40.121094 40.804688 40.214844 41.023438 C 40.304688 41.246094 40.351562 41.472656 40.351562 41.710938 C 40.351562 41.953125 40.304688 42.179688 40.214844 42.402344 C 40.121094 42.621094 39.992188 42.816406 39.824219 42.984375 C 39.652344 43.15625 39.460938 43.285156 39.238281 43.375 C 39.019531 43.46875 38.789062 43.511719 38.550781 43.511719 Z M 41.15625 35.75 C 40.890625 35.902344 40.6875 36.109375 40.542969 36.375 C 40.398438 36.644531 40.332031 36.929688 40.351562 37.234375 C 40.351562 37.472656 40.304688 37.699219 40.214844 37.921875 C 40.121094 38.140625 39.992188 38.335938 39.824219 38.503906 C 39.652344 38.675781 39.460938 38.804688 39.238281 38.894531 C 39.019531 38.988281 38.789062 39.03125 38.550781 39.03125 C 38.3125 39.03125 38.082031 38.988281 37.859375 38.894531 C 37.640625 38.804688 37.445312 38.675781 37.277344 38.503906 C 37.109375 38.335938 36.976562 38.140625 36.886719 37.921875 C 36.796875 37.699219 36.75 37.472656 36.75 37.234375 C 36.738281 36.738281 36.800781 36.253906 36.929688 35.773438 C 37.058594 35.296875 37.253906 34.847656 37.511719 34.425781 C 37.769531 34.003906 38.082031 33.628906 38.449219 33.296875 C 38.816406 32.964844 39.222656 32.6875 39.664062 32.472656 C 39.960938 32.339844 40.222656 32.15625 40.453125 31.929688 C 40.683594 31.699219 40.867188 31.4375 41.003906 31.144531 C 41.140625 30.847656 41.21875 30.539062 41.246094 30.21875 C 41.273438 29.894531 41.242188 29.578125 41.152344 29.265625 C 41.027344 28.8125 40.800781 28.421875 40.46875 28.09375 C 40.140625 27.761719 39.75 27.535156 39.296875 27.410156 C 38.882812 27.292969 38.464844 27.273438 38.042969 27.355469 C 37.621094 27.4375 37.238281 27.613281 36.898438 27.875 C 36.566406 28.132812 36.308594 28.445312 36.125 28.820312 C 35.941406 29.199219 35.847656 29.59375 35.851562 30.011719 C 35.851562 30.25 35.804688 30.480469 35.714844 30.703125 C 35.621094 30.921875 35.492188 31.117188 35.324219 31.285156 C 35.152344 31.453125 34.960938 31.585938 34.738281 31.675781 C 34.519531 31.765625 34.289062 31.8125 34.050781 31.8125 C 33.8125 31.8125 33.582031 31.765625 33.359375 31.675781 C 33.140625 31.585938 32.945312 31.453125 32.777344 31.285156 C 32.609375 31.117188 32.476562 30.921875 32.386719 30.703125 C 32.296875 30.480469 32.25 30.25 32.25 30.011719 C 32.246094 29.039062 32.460938 28.113281 32.890625 27.234375 C 33.320312 26.359375 33.921875 25.625 34.695312 25.03125 C 35.476562 24.425781 36.351562 24.027344 37.316406 23.835938 C 38.285156 23.640625 39.246094 23.671875 40.199219 23.925781 C 40.730469 24.066406 41.234375 24.277344 41.714844 24.550781 C 42.191406 24.828125 42.625 25.160156 43.015625 25.546875 C 43.402344 25.9375 43.734375 26.371094 44.011719 26.847656 C 44.285156 27.328125 44.496094 27.832031 44.636719 28.363281 C 44.828125 29.085938 44.890625 29.820312 44.824219 30.5625 C 44.753906 31.308594 44.5625 32.015625 44.242188 32.691406 C 43.925781 33.367188 43.5 33.96875 42.96875 34.492188 C 42.4375 35.019531 41.832031 35.4375 41.15625 35.75 Z M 41.15625 35.75 "/><g style="fill:#737373;fill-opacity:1;"><g transform="translate(21.907436, 68.876035)"><path style="stroke:none" d="M 2.703125 -2.171875 L 2.703125 -3.484375 L 3.390625 -3.484375 L 3.390625 0 L 2.703125 0 L 2.703125 -1.59375 L 1.140625 -1.59375 L 1.140625 0 L 0.453125 0 L 0.453125 -3.484375 L 1.140625 -3.484375 L 1.140625 -2.171875 Z M 2.703125 -2.171875 "/></g></g><g style="fill:#737373;fill-opacity:1;"><g transform="translate(25.757064, 68.876035)"><path style="stroke:none" d="M 2.609375 -1.171875 L 0.90625 -1.171875 C 0.925781 -0.941406 0.988281 -0.773438 1.09375 -0.671875 C 1.207031 -0.566406 1.363281 -0.515625 1.5625 -0.515625 C 1.707031 -0.515625 1.828125 -0.539062 1.921875 -0.59375 C 2.023438 -0.65625 2.101562 -0.742188 2.15625 -0.859375 L 2.203125 -0.859375 L 2.640625 -0.578125 C 2.554688 -0.390625 2.425781 -0.238281 2.25 -0.125 C 2.082031 -0.0078125 1.851562 0.046875 1.5625 0.046875 C 1.289062 0.046875 1.054688 -0.00390625 0.859375 -0.109375 C 0.660156 -0.210938 0.503906 -0.363281 0.390625 -0.5625 C 0.285156 -0.769531 0.234375 -1.019531 0.234375 -1.3125 C 0.234375 -1.613281 0.289062 -1.863281 0.40625 -2.0625 C 0.519531 -2.269531 0.671875 -2.425781 0.859375 -2.53125 C 1.054688 -2.632812 1.273438 -2.6875 1.515625 -2.6875 C 1.890625 -2.6875 2.175781 -2.585938 2.375 -2.390625 C 2.570312 -2.191406 2.671875 -1.898438 2.671875 -1.515625 C 2.671875 -1.378906 2.664062 -1.273438 2.65625 -1.203125 Z M 2.03125 -1.59375 C 2.03125 -1.789062 1.984375 -1.9375 1.890625 -2.03125 C 1.804688 -2.125 1.679688 -2.171875 1.515625 -2.171875 C 1.179688 -2.171875 0.984375 -1.976562 0.921875 -1.59375 Z M 2.03125 -1.59375 "/></g></g><g style="fill:#737373;fill-opacity:1;"><g transform="translate(28.618629, 68.876035)"><path style="stroke:none" d="M 1.09375 0.046875 C 0.851562 0.046875 0.671875 -0.015625 0.546875 -0.140625 C 0.421875 -0.265625 0.359375 -0.457031 0.359375 -0.71875 L 0.359375 -3.6875 L 1.03125 -3.6875 L 1.03125 -0.75 C 1.03125 -0.59375 1.09375 -0.515625 1.21875 -0.515625 C 1.257812 -0.515625 1.300781 -0.519531 1.34375 -0.53125 L 1.375 -0.515625 L 1.4375 -0.015625 C 1.40625 0.00390625 1.359375 0.0195312 1.296875 0.03125 C 1.234375 0.0390625 1.164062 0.046875 1.09375 0.046875 Z M 1.09375 0.046875 "/></g></g><g style="fill:#737373;fill-opacity:1;"><g transform="translate(30.13175, 68.876035)"><path style="stroke:none" d="M 0.375 1.0625 L 0.375 -2.640625 L 1.046875 -2.640625 L 1.046875 -2.296875 L 1.09375 -2.28125 C 1.164062 -2.414062 1.265625 -2.515625 1.390625 -2.578125 C 1.523438 -2.648438 1.679688 -2.6875 1.859375 -2.6875 C 2.078125 -2.6875 2.265625 -2.632812 2.421875 -2.53125 C 2.578125 -2.4375 2.695312 -2.285156 2.78125 -2.078125 C 2.875 -1.867188 2.921875 -1.613281 2.921875 -1.3125 C 2.921875 -1.007812 2.875 -0.753906 2.78125 -0.546875 C 2.6875 -0.347656 2.554688 -0.195312 2.390625 -0.09375 C 2.222656 0 2.03125 0.046875 1.8125 0.046875 C 1.65625 0.046875 1.515625 0.0195312 1.390625 -0.03125 C 1.273438 -0.0820312 1.175781 -0.164062 1.09375 -0.28125 L 1.046875 -0.28125 L 1.046875 1.0625 Z M 1.640625 -0.515625 C 1.835938 -0.515625 1.984375 -0.578125 2.078125 -0.703125 C 2.179688 -0.828125 2.234375 -1.03125 2.234375 -1.3125 C 2.234375 -1.59375 2.179688 -1.796875 2.078125 -1.921875 C 1.984375 -2.054688 1.835938 -2.125 1.640625 -2.125 C 1.453125 -2.125 1.300781 -2.054688 1.1875 -1.921875 C 1.082031 -1.785156 1.03125 -1.582031 1.03125 -1.3125 C 1.03125 -1.039062 1.082031 -0.835938 1.1875 -0.703125 C 1.300781 -0.578125 1.453125 -0.515625 1.640625 -0.515625 Z M 1.640625 -0.515625 "/></g></g><g style="fill:#737373;fill-opacity:1;"><g transform="translate(33.284483, 68.876035)"><path style="stroke:none" d=""/></g></g><g style="fill:#737373;fill-opacity:1;"><g transform="translate(34.437224, 68.876035)"><path style="stroke:none" d="M 1.421875 0.046875 C 1.171875 0.046875 0.953125 0.00390625 0.765625 -0.078125 C 0.578125 -0.160156 0.429688 -0.28125 0.328125 -0.4375 C 0.222656 -0.601562 0.171875 -0.789062 0.171875 -1 C 0.171875 -1.238281 0.226562 -1.429688 0.34375 -1.578125 C 0.457031 -1.734375 0.628906 -1.859375 0.859375 -1.953125 L 0.859375 -2 C 0.753906 -2.132812 0.679688 -2.253906 0.640625 -2.359375 C 0.597656 -2.472656 0.578125 -2.59375 0.578125 -2.71875 C 0.578125 -2.882812 0.613281 -3.023438 0.6875 -3.140625 C 0.757812 -3.265625 0.867188 -3.363281 1.015625 -3.4375 C 1.160156 -3.507812 1.332031 -3.546875 1.53125 -3.546875 C 1.726562 -3.546875 1.894531 -3.507812 2.03125 -3.4375 C 2.164062 -3.375 2.269531 -3.285156 2.34375 -3.171875 C 2.414062 -3.066406 2.453125 -2.941406 2.453125 -2.796875 C 2.453125 -2.585938 2.390625 -2.410156 2.265625 -2.265625 C 2.148438 -2.117188 1.96875 -2 1.71875 -1.90625 L 1.71875 -1.859375 L 2.359375 -1 C 2.398438 -1.082031 2.425781 -1.175781 2.4375 -1.28125 C 2.445312 -1.394531 2.453125 -1.519531 2.453125 -1.65625 L 2.453125 -1.78125 L 3.015625 -1.78125 C 3.015625 -1.289062 2.921875 -0.894531 2.734375 -0.59375 C 2.765625 -0.5625 2.796875 -0.535156 2.828125 -0.515625 C 2.859375 -0.503906 2.890625 -0.5 2.921875 -0.5 C 2.960938 -0.5 2.992188 -0.5 3.015625 -0.5 C 3.035156 -0.507812 3.054688 -0.515625 3.078125 -0.515625 L 3.109375 -0.515625 L 3.203125 -0.03125 C 3.171875 -0.0078125 3.125 0.00390625 3.0625 0.015625 C 3.007812 0.0234375 2.945312 0.03125 2.875 0.03125 C 2.757812 0.03125 2.65625 0.015625 2.5625 -0.015625 C 2.476562 -0.0546875 2.398438 -0.117188 2.328125 -0.203125 L 2.265625 -0.203125 C 2.078125 -0.0351562 1.796875 0.046875 1.421875 0.046875 Z M 1.421875 -2.234375 C 1.566406 -2.304688 1.671875 -2.378906 1.734375 -2.453125 C 1.804688 -2.535156 1.84375 -2.632812 1.84375 -2.75 C 1.84375 -2.84375 1.8125 -2.914062 1.75 -2.96875 C 1.695312 -3.019531 1.625 -3.046875 1.53125 -3.046875 C 1.425781 -3.046875 1.34375 -3.015625 1.28125 -2.953125 C 1.226562 -2.898438 1.203125 -2.828125 1.203125 -2.734375 C 1.203125 -2.648438 1.21875 -2.570312 1.25 -2.5 C 1.28125 -2.4375 1.335938 -2.347656 1.421875 -2.234375 Z M 1.515625 -0.515625 C 1.660156 -0.515625 1.789062 -0.546875 1.90625 -0.609375 L 1.125 -1.59375 C 1.03125 -1.53125 0.960938 -1.457031 0.921875 -1.375 C 0.878906 -1.300781 0.859375 -1.207031 0.859375 -1.09375 C 0.859375 -0.976562 0.882812 -0.875 0.9375 -0.78125 C 0.988281 -0.695312 1.0625 -0.628906 1.15625 -0.578125 C 1.257812 -0.535156 1.378906 -0.515625 1.515625 -0.515625 Z M 1.515625 -0.515625 "/></g></g><g style="fill:#737373;fill-opacity:1;"><g transform="translate(37.697355, 68.876035)"><path style="stroke:none" d=""/></g></g><g style="fill:#737373;fill-opacity:1;"><g transform="translate(38.850096, 68.876035)"><path style="stroke:none" d="M 1.546875 0.046875 C 1.304688 0.046875 1.09375 0.0195312 0.90625 -0.03125 C 0.71875 -0.09375 0.554688 -0.171875 0.421875 -0.265625 C 0.296875 -0.367188 0.203125 -0.476562 0.140625 -0.59375 L 0.515625 -1.0625 L 0.578125 -1.0625 C 0.679688 -0.90625 0.8125 -0.78125 0.96875 -0.6875 C 1.132812 -0.59375 1.328125 -0.546875 1.546875 -0.546875 C 1.734375 -0.546875 1.875 -0.582031 1.96875 -0.65625 C 2.0625 -0.738281 2.109375 -0.847656 2.109375 -0.984375 C 2.109375 -1.066406 2.09375 -1.132812 2.0625 -1.1875 C 2.03125 -1.25 1.976562 -1.296875 1.90625 -1.328125 C 1.84375 -1.367188 1.75 -1.40625 1.625 -1.4375 L 1.171875 -1.546875 C 0.859375 -1.617188 0.625 -1.738281 0.46875 -1.90625 C 0.320312 -2.070312 0.25 -2.285156 0.25 -2.546875 C 0.25 -2.742188 0.296875 -2.914062 0.390625 -3.0625 C 0.492188 -3.21875 0.640625 -3.335938 0.828125 -3.421875 C 1.015625 -3.503906 1.238281 -3.546875 1.5 -3.546875 C 1.769531 -3.546875 2 -3.507812 2.1875 -3.4375 C 2.382812 -3.363281 2.546875 -3.253906 2.671875 -3.109375 L 2.34375 -2.640625 L 2.28125 -2.640625 C 2.175781 -2.742188 2.0625 -2.820312 1.9375 -2.875 C 1.8125 -2.925781 1.664062 -2.953125 1.5 -2.953125 C 1.3125 -2.953125 1.164062 -2.914062 1.0625 -2.84375 C 0.96875 -2.78125 0.921875 -2.691406 0.921875 -2.578125 C 0.921875 -2.460938 0.953125 -2.375 1.015625 -2.3125 C 1.085938 -2.25 1.210938 -2.195312 1.390625 -2.15625 L 1.84375 -2.0625 C 2.1875 -1.988281 2.429688 -1.863281 2.578125 -1.6875 C 2.734375 -1.519531 2.8125 -1.300781 2.8125 -1.03125 C 2.8125 -0.8125 2.765625 -0.617188 2.671875 -0.453125 C 2.578125 -0.296875 2.429688 -0.171875 2.234375 -0.078125 C 2.046875 0.00390625 1.816406 0.046875 1.546875 0.046875 Z M 1.546875 0.046875 "/></g></g><g style="fill:#737373;fill-opacity:1;"><g transform="translate(41.847699, 68.876035)"><path style="stroke:none" d="M 1.203125 0.046875 C 0.910156 0.046875 0.691406 -0.03125 0.546875 -0.1875 C 0.410156 -0.351562 0.34375 -0.585938 0.34375 -0.890625 L 0.34375 -2.640625 L 1 -2.640625 L 1 -0.96875 C 1 -0.8125 1.03125 -0.695312 1.09375 -0.625 C 1.164062 -0.550781 1.273438 -0.515625 1.421875 -0.515625 C 1.609375 -0.515625 1.75 -0.570312 1.84375 -0.6875 C 1.945312 -0.8125 2 -1 2 -1.25 L 2 -2.640625 L 2.671875 -2.640625 L 2.671875 0 L 2.03125 0 L 2.03125 -0.390625 L 1.984375 -0.40625 C 1.898438 -0.25 1.796875 -0.132812 1.671875 -0.0625 C 1.546875 0.0078125 1.390625 0.046875 1.203125 0.046875 Z M 1.203125 0.046875 "/></g></g><g style="fill:#737373;fill-opacity:1;"><g transform="translate(44.893034, 68.876035)"><path style="stroke:none" d="M 0.375 1.0625 L 0.375 -2.640625 L 1.046875 -2.640625 L 1.046875 -2.296875 L 1.09375 -2.28125 C 1.164062 -2.414062 1.265625 -2.515625 1.390625 -2.578125 C 1.523438 -2.648438 1.679688 -2.6875 1.859375 -2.6875 C 2.078125 -2.6875 2.265625 -2.632812 2.421875 -2.53125 C 2.578125 -2.4375 2.695312 -2.285156 2.78125 -2.078125 C 2.875 -1.867188 2.921875 -1.613281 2.921875 -1.3125 C 2.921875 -1.007812 2.875 -0.753906 2.78125 -0.546875 C 2.6875 -0.347656 2.554688 -0.195312 2.390625 -0.09375 C 2.222656 0 2.03125 0.046875 1.8125 0.046875 C 1.65625 0.046875 1.515625 0.0195312 1.390625 -0.03125 C 1.273438 -0.0820312 1.175781 -0.164062 1.09375 -0.28125 L 1.046875 -0.28125 L 1.046875 1.0625 Z M 1.640625 -0.515625 C 1.835938 -0.515625 1.984375 -0.578125 2.078125 -0.703125 C 2.179688 -0.828125 2.234375 -1.03125 2.234375 -1.3125 C 2.234375 -1.59375 2.179688 -1.796875 2.078125 -1.921875 C 1.984375 -2.054688 1.835938 -2.125 1.640625 -2.125 C 1.453125 -2.125 1.300781 -2.054688 1.1875 -1.921875 C 1.082031 -1.785156 1.03125 -1.582031 1.03125 -1.3125 C 1.03125 -1.039062 1.082031 -0.835938 1.1875 -0.703125 C 1.300781 -0.578125 1.453125 -0.515625 1.640625 -0.515625 Z M 1.640625 -0.515625 "/></g></g><g style="fill:#737373;fill-opacity:1;"><g transform="translate(48.045767, 68.876035)"><path style="stroke:none" d="M 0.375 1.0625 L 0.375 -2.640625 L 1.046875 -2.640625 L 1.046875 -2.296875 L 1.09375 -2.28125 C 1.164062 -2.414062 1.265625 -2.515625 1.390625 -2.578125 C 1.523438 -2.648438 1.679688 -2.6875 1.859375 -2.6875 C 2.078125 -2.6875 2.265625 -2.632812 2.421875 -2.53125 C 2.578125 -2.4375 2.695312 -2.285156 2.78125 -2.078125 C 2.875 -1.867188 2.921875 -1.613281 2.921875 -1.3125 C 2.921875 -1.007812 2.875 -0.753906 2.78125 -0.546875 C 2.6875 -0.347656 2.554688 -0.195312 2.390625 -0.09375 C 2.222656 0 2.03125 0.046875 1.8125 0.046875 C 1.65625 0.046875 1.515625 0.0195312 1.390625 -0.03125 C 1.273438 -0.0820312 1.175781 -0.164062 1.09375 -0.28125 L 1.046875 -0.28125 L 1.046875 1.0625 Z M 1.640625 -0.515625 C 1.835938 -0.515625 1.984375 -0.578125 2.078125 -0.703125 C 2.179688 -0.828125 2.234375 -1.03125 2.234375 -1.3125 C 2.234375 -1.59375 2.179688 -1.796875 2.078125 -1.921875 C 1.984375 -2.054688 1.835938 -2.125 1.640625 -2.125 C 1.453125 -2.125 1.300781 -2.054688 1.1875 -1.921875 C 1.082031 -1.785156 1.03125 -1.582031 1.03125 -1.3125 C 1.03125 -1.039062 1.082031 -0.835938 1.1875 -0.703125 C 1.300781 -0.578125 1.453125 -0.515625 1.640625 -0.515625 Z M 1.640625 -0.515625 "/></g></g><g style="fill:#737373;fill-opacity:1;"><g transform="translate(51.198501, 68.876035)"><path style="stroke:none" d="M 1.53125 0.046875 C 1.269531 0.046875 1.039062 -0.00390625 0.84375 -0.109375 C 0.65625 -0.210938 0.503906 -0.363281 0.390625 -0.5625 C 0.285156 -0.769531 0.234375 -1.019531 0.234375 -1.3125 C 0.234375 -1.601562 0.285156 -1.847656 0.390625 -2.046875 C 0.503906 -2.253906 0.65625 -2.410156 0.84375 -2.515625 C 1.039062 -2.628906 1.269531 -2.6875 1.53125 -2.6875 C 1.789062 -2.6875 2.015625 -2.628906 2.203125 -2.515625 C 2.398438 -2.410156 2.550781 -2.253906 2.65625 -2.046875 C 2.769531 -1.847656 2.828125 -1.601562 2.828125 -1.3125 C 2.828125 -1.019531 2.769531 -0.769531 2.65625 -0.5625 C 2.550781 -0.363281 2.398438 -0.210938 2.203125 -0.109375 C 2.015625 -0.00390625 1.789062 0.046875 1.53125 0.046875 Z M 1.53125 -0.515625 C 1.9375 -0.515625 2.140625 -0.78125 2.140625 -1.3125 C 2.140625 -1.59375 2.085938 -1.796875 1.984375 -1.921875 C 1.878906 -2.054688 1.726562 -2.125 1.53125 -2.125 C 1.125 -2.125 0.921875 -1.851562 0.921875 -1.3125 C 0.921875 -0.78125 1.125 -0.515625 1.53125 -0.515625 Z M 1.53125 -0.515625 "/></g></g><g style="fill:#737373;fill-opacity:1;"><g transform="translate(54.258156, 68.876035)"><path style="stroke:none" d="M 0.375 0 L 0.375 -2.640625 L 1.015625 -2.640625 L 1.015625 -2.25 L 1.078125 -2.234375 C 1.140625 -2.378906 1.222656 -2.484375 1.328125 -2.546875 C 1.429688 -2.617188 1.554688 -2.65625 1.703125 -2.65625 C 1.847656 -2.65625 1.960938 -2.628906 2.046875 -2.578125 L 1.921875 -2.015625 L 1.875 -2 C 1.832031 -2.019531 1.789062 -2.03125 1.75 -2.03125 C 1.71875 -2.039062 1.671875 -2.046875 1.609375 -2.046875 C 1.421875 -2.046875 1.28125 -1.976562 1.1875 -1.84375 C 1.09375 -1.71875 1.046875 -1.515625 1.046875 -1.234375 L 1.046875 0 Z M 0.375 0 "/></g></g><g style="fill:#737373;fill-opacity:1;"><g transform="translate(56.356014, 68.876035)"><path style="stroke:none" d="M 1.8125 -0.625 L 1.984375 -0.140625 C 1.910156 -0.078125 1.820312 -0.03125 1.71875 0 C 1.613281 0.03125 1.492188 0.046875 1.359375 0.046875 C 1.066406 0.046875 0.847656 -0.03125 0.703125 -0.1875 C 0.554688 -0.34375 0.484375 -0.566406 0.484375 -0.859375 L 0.484375 -2.109375 L 0.078125 -2.109375 L 0.078125 -2.640625 L 0.484375 -2.640625 L 0.484375 -3.15625 L 1.140625 -3.25 L 1.140625 -2.640625 L 1.890625 -2.640625 L 1.890625 -2.109375 L 1.140625 -2.109375 L 1.140625 -0.90625 C 1.140625 -0.78125 1.164062 -0.6875 1.21875 -0.625 C 1.269531 -0.5625 1.347656 -0.53125 1.453125 -0.53125 C 1.578125 -0.53125 1.679688 -0.5625 1.765625 -0.625 Z M 1.8125 -0.625 "/></g></g></g></svg>