<svg xmlns="http://www.w3.org/2000/svg" xmlns:xlink="http://www.w3.org/1999/xlink" width="100" zoomAndPan="magnify" viewBox="0 0 75 74.999997" height="100" preserveAspectRatio="xMidYMid meet" version="1.2"><defs><clipPath id="c694fa1315"><path d="M 7.039062 65 L 67 65 L 67 65.707031 L 7.039062 65.707031 Z M 7.039062 65 "/></clipPath><clipPath id="1ffb2b9e6f"><path d="M 10 16.207031 L 35 16.207031 L 35 61 L 10 61 Z M 10 16.207031 "/></clipPath><clipPath id="658157c535"><path d="M 51 55 L 59 55 L 59 65.707031 L 51 65.707031 Z M 51 55 "/></clipPath><clipPath id="530ffe85ae"><path d="M 57 58 L 59 58 L 59 65.707031 L 57 65.707031 Z M 57 58 "/></clipPath><clipPath id="1a0d99e887"><path d="M 57 54 L 65 54 L 65 65.707031 L 57 65.707031 Z M 57 54 "/></clipPath><clipPath id="4675601a4f"><path d="M 54 16.207031 L 59 16.207031 L 59 21 L 54 21 Z M 54 16.207031 "/></clipPath></defs><g id="bc52f768f5"><rect x="0" width="75" y="0" height="74.999997" style="fill:#ffffff;fill-opacity:1;stroke:none;"/><rect x="0" width="75" y="0" height="74.999997" style="fill:#ffffff;fill-opacity:1;stroke:none;"/><g clip-rule="nonzero" clip-path="url(#c694fa1315)"><path style=" stroke:none;fill-rule:nonzero;fill:#1a3a49;fill-opacity:1;" d="M 7.035156 65.117188 L 66.175781 65.117188 L 66.175781 65.675781 L 7.035156 65.675781 Z M 7.035156 65.117188 "/></g><g clip-rule="nonzero" clip-path="url(#1ffb2b9e6f)"><path style=" stroke:none;fill-rule:nonzero;fill:#a7abc6;fill-opacity:1;" d="M 12.660156 16.402344 L 31.644531 16.402344 C 33.011719 16.402344 34.117188 17.519531 34.117188 18.898438 L 34.117188 58.210938 C 34.117188 59.589844 33.011719 60.707031 31.644531 60.707031 L 12.660156 60.707031 C 11.292969 60.707031 10.1875 59.589844 10.1875 58.210938 L 10.1875 18.898438 C 10.1875 17.519531 11.292969 16.402344 12.660156 16.402344 Z M 12.660156 16.402344 "/><path style=" stroke:none;fill-rule:nonzero;fill:#d7daf4;fill-opacity:1;" d="M 13.277344 16.402344 L 32.265625 16.402344 C 33.628906 16.402344 34.738281 17.519531 34.738281 18.898438 L 34.738281 58.210938 C 34.738281 59.589844 33.628906 60.707031 32.265625 60.707031 L 13.277344 60.707031 C 11.914062 60.707031 10.804688 59.589844 10.804688 58.210938 L 10.804688 18.898438 C 10.804688 17.519531 11.914062 16.402344 13.277344 16.402344 Z M 13.277344 16.402344 "/></g><path style=" stroke:none;fill-rule:nonzero;fill:#ffffff;fill-opacity:1;" d="M 12.417969 20.433594 L 33.125 20.433594 L 33.125 56.84375 L 12.417969 56.84375 Z M 12.417969 20.433594 "/><path style=" stroke:none;fill-rule:nonzero;fill:#ffffff;fill-opacity:1;" d="M 23.308594 18.015625 C 23.308594 18.164062 23.257812 18.292969 23.152344 18.398438 C 23.046875 18.503906 22.921875 18.558594 22.773438 18.558594 C 22.625 18.558594 22.496094 18.503906 22.390625 18.398438 C 22.285156 18.292969 22.234375 18.164062 22.234375 18.015625 C 22.234375 17.863281 22.285156 17.738281 22.390625 17.632812 C 22.496094 17.523438 22.625 17.472656 22.773438 17.472656 C 22.921875 17.472656 23.046875 17.523438 23.152344 17.632812 C 23.257812 17.738281 23.308594 17.863281 23.308594 18.015625 Z M 23.308594 18.015625 "/><path style=" stroke:none;fill-rule:nonzero;fill:#ffffff;fill-opacity:1;" d="M 24.828125 19.214844 C 24.828125 19.292969 24.796875 19.367188 24.746094 19.417969 C 24.695312 19.46875 24.625 19.5 24.546875 19.5 L 20.996094 19.5 C 20.839844 19.5 20.714844 19.375 20.714844 19.214844 C 20.714844 19.140625 20.746094 19.066406 20.796875 19.015625 C 20.847656 18.964844 20.917969 18.933594 20.996094 18.933594 L 24.546875 18.933594 C 24.703125 18.933594 24.828125 19.058594 24.828125 19.214844 Z M 24.828125 19.214844 "/><path style=" stroke:none;fill-rule:nonzero;fill:#ffffff;fill-opacity:1;" d="M 23.78125 58.660156 C 23.78125 58.796875 23.753906 58.925781 23.703125 59.050781 C 23.652344 59.175781 23.578125 59.285156 23.484375 59.382812 C 23.390625 59.476562 23.28125 59.550781 23.15625 59.601562 C 23.035156 59.652344 22.90625 59.679688 22.773438 59.679688 C 22.636719 59.679688 22.507812 59.652344 22.386719 59.601562 C 22.261719 59.550781 22.152344 59.476562 22.058594 59.382812 C 21.964844 59.285156 21.890625 59.175781 21.839844 59.050781 C 21.789062 58.925781 21.761719 58.796875 21.761719 58.660156 C 21.761719 58.527344 21.789062 58.394531 21.839844 58.273438 C 21.890625 58.148438 21.964844 58.035156 22.058594 57.941406 C 22.152344 57.847656 22.261719 57.773438 22.386719 57.722656 C 22.507812 57.667969 22.636719 57.644531 22.773438 57.644531 C 22.90625 57.644531 23.035156 57.667969 23.15625 57.722656 C 23.28125 57.773438 23.390625 57.847656 23.484375 57.941406 C 23.578125 58.035156 23.652344 58.148438 23.703125 58.273438 C 23.753906 58.394531 23.78125 58.527344 23.78125 58.660156 Z M 23.78125 58.660156 "/><path style=" stroke:none;fill-rule:nonzero;fill:#47adf7;fill-opacity:1;" d="M 29.371094 39.945312 L 16.171875 39.945312 L 16.171875 29.617188 L 22.773438 23.472656 L 29.371094 29.617188 Z M 29.371094 39.945312 "/><path style=" stroke:none;fill-rule:nonzero;fill:#0e1738;fill-opacity:1;" d="M 30.328125 31.015625 L 22.773438 23.996094 L 15.214844 31.015625 L 14.699219 30.449219 L 22.773438 22.953125 L 30.84375 30.449219 Z M 30.328125 31.015625 "/><path style=" stroke:none;fill-rule:nonzero;fill:#0e1738;fill-opacity:1;" d="M 17.835938 33.171875 L 22.277344 33.171875 L 22.277344 39.945312 L 17.835938 39.945312 Z M 17.835938 33.171875 "/><path style=" stroke:none;fill-rule:nonzero;fill:#ffffff;fill-opacity:1;" d="M 23.449219 33.359375 L 25.476562 33.359375 L 25.476562 35.5 L 23.449219 35.5 Z M 23.449219 33.359375 "/><path style=" stroke:none;fill-rule:nonzero;fill:#ffffff;fill-opacity:1;" d="M 25.78125 33.359375 L 27.808594 33.359375 L 27.808594 35.5 L 25.78125 35.5 Z M 25.78125 33.359375 "/><path style=" stroke:none;fill-rule:nonzero;fill:#ffffff;fill-opacity:1;" d="M 23.449219 35.804688 L 25.476562 35.804688 L 25.476562 37.753906 L 23.449219 37.753906 Z M 23.449219 35.804688 "/><path style=" stroke:none;fill-rule:nonzero;fill:#ffffff;fill-opacity:1;" d="M 25.78125 35.804688 L 27.808594 35.804688 L 27.808594 37.753906 L 25.78125 37.753906 Z M 25.78125 35.804688 "/><path style=" stroke:none;fill-rule:nonzero;fill:#ffffff;fill-opacity:1;" d="M 24.253906 29.636719 C 24.253906 29.835938 24.214844 30.027344 24.140625 30.210938 C 24.0625 30.394531 23.957031 30.554688 23.820312 30.695312 C 23.679688 30.835938 23.519531 30.941406 23.339844 31.019531 C 23.15625 31.09375 22.96875 31.132812 22.773438 31.132812 C 22.574219 31.132812 22.386719 31.09375 22.207031 31.019531 C 22.023438 30.941406 21.863281 30.835938 21.726562 30.695312 C 21.585938 30.554688 21.480469 30.394531 21.402344 30.210938 C 21.328125 30.027344 21.292969 29.835938 21.292969 29.636719 C 21.292969 29.441406 21.328125 29.25 21.402344 29.066406 C 21.480469 28.882812 21.585938 28.722656 21.726562 28.582031 C 21.863281 28.441406 22.023438 28.332031 22.207031 28.257812 C 22.386719 28.183594 22.574219 28.144531 22.773438 28.144531 C 22.96875 28.144531 23.15625 28.183594 23.339844 28.257812 C 23.519531 28.332031 23.679688 28.441406 23.820312 28.582031 C 23.957031 28.722656 24.0625 28.882812 24.140625 29.066406 C 24.214844 29.25 24.253906 29.441406 24.253906 29.636719 Z M 24.253906 29.636719 "/><path style=" stroke:none;fill-rule:nonzero;fill:#fcc283;fill-opacity:1;" d="M 19.300781 36.777344 C 19.300781 36.894531 19.261719 36.996094 19.179688 37.078125 C 19.097656 37.160156 18.996094 37.203125 18.882812 37.203125 C 18.765625 37.203125 18.664062 37.160156 18.582031 37.078125 C 18.5 36.996094 18.460938 36.894531 18.460938 36.777344 C 18.460938 36.660156 18.5 36.5625 18.582031 36.480469 C 18.664062 36.394531 18.765625 36.355469 18.882812 36.355469 C 18.996094 36.355469 19.097656 36.394531 19.179688 36.480469 C 19.261719 36.5625 19.300781 36.660156 19.300781 36.777344 Z M 19.300781 36.777344 "/><path style=" stroke:none;fill-rule:nonzero;fill:#fe6081;fill-opacity:1;" d="M 15.234375 42.441406 L 30.308594 42.441406 L 30.308594 44.109375 L 15.234375 44.109375 Z M 15.234375 42.441406 "/><path style=" stroke:none;fill-rule:nonzero;fill:#d7daf4;fill-opacity:1;" d="M 15.234375 46.261719 L 30.308594 46.261719 L 30.308594 46.75 L 15.234375 46.75 Z M 15.234375 46.261719 "/><path style=" stroke:none;fill-rule:nonzero;fill:#d7daf4;fill-opacity:1;" d="M 15.234375 48.035156 L 30.308594 48.035156 L 30.308594 48.523438 L 15.234375 48.523438 Z M 15.234375 48.035156 "/><path style=" stroke:none;fill-rule:nonzero;fill:#d7daf4;fill-opacity:1;" d="M 15.234375 49.808594 L 15.925781 49.808594 L 15.925781 50.292969 L 15.234375 50.292969 Z M 15.234375 49.808594 "/><path style=" stroke:none;fill-rule:nonzero;fill:#d7daf4;fill-opacity:1;" d="M 17.714844 49.808594 L 22.363281 49.808594 L 22.363281 50.292969 L 17.714844 50.292969 Z M 17.714844 49.808594 "/><path style=" stroke:none;fill-rule:nonzero;fill:#d7daf4;fill-opacity:1;" d="M 24.082031 49.808594 L 26.285156 49.808594 L 26.285156 50.292969 L 24.082031 50.292969 Z M 24.082031 49.808594 "/><path style=" stroke:none;fill-rule:nonzero;fill:#37c092;fill-opacity:1;" d="M 18.714844 52.101562 L 26.828125 52.101562 L 26.828125 54.324219 L 18.714844 54.324219 Z M 18.714844 52.101562 "/><path style=" stroke:none;fill-rule:nonzero;fill:#06112d;fill-opacity:1;" d="M 53.058594 27.375 C 53.058594 27.375 53.058594 30.488281 54.746094 30.324219 C 56.15625 30.1875 55.207031 27.839844 55.207031 27.839844 L 53.898438 27.25 Z M 53.058594 27.375 "/><g clip-rule="nonzero" clip-path="url(#658157c535)"><path style=" stroke:none;fill-rule:nonzero;fill:#3a6dc9;fill-opacity:1;" d="M 51.785156 65.15625 L 57.480469 65.15625 L 57.621094 64.117188 L 58.394531 58.398438 L 58.757812 55.722656 L 58.761719 55.691406 L 52.992188 55.382812 Z M 51.785156 65.15625 "/></g><g clip-rule="nonzero" clip-path="url(#530ffe85ae)"><path style=" stroke:none;fill-rule:nonzero;fill:#1c5ab5;fill-opacity:1;" d="M 57.007812 65.15625 L 57.480469 65.15625 L 57.621094 64.117188 L 58.394531 58.398438 L 57.742188 58.082031 Z M 57.007812 65.15625 "/></g><g clip-rule="nonzero" clip-path="url(#1a0d99e887)"><path style=" stroke:none;fill-rule:nonzero;fill:#3a6dc9;fill-opacity:1;" d="M 58.167969 65.15625 L 57.742188 56.042969 L 64.609375 54.589844 L 64.882812 65.15625 Z M 58.167969 65.15625 "/></g><path style=" stroke:none;fill-rule:nonzero;fill:#37c092;fill-opacity:1;" d="M 56.015625 44.441406 C 56.015625 44.441406 55.507812 45.417969 54.820312 46.554688 C 54 47.902344 52.917969 49.480469 52.113281 49.90625 C 51.824219 50.058594 51.34375 50.113281 50.75 50.101562 C 48.371094 50.066406 44.253906 49.003906 44.253906 49.003906 L 43.621094 45.691406 L 49.613281 45.820312 L 53.226562 39.601562 Z M 56.015625 44.441406 "/><path style=" stroke:none;fill-rule:nonzero;fill:#238a6f;fill-opacity:1;" d="M 54.820312 46.550781 L 54.820312 46.554688 C 54 47.902344 52.917969 49.480469 52.113281 49.90625 C 51.824219 50.058594 51.34375 50.113281 50.75 50.101562 C 51.882812 48.832031 52.5625 42.261719 52.5625 42.261719 Z M 54.820312 46.550781 "/><path style=" stroke:none;fill-rule:nonzero;fill:#37c092;fill-opacity:1;" d="M 65.578125 58.46875 C 65.578125 58.566406 65.28125 58.644531 64.773438 58.714844 C 61.851562 59.097656 51.992188 59.019531 51.992188 58.46875 C 52.164062 56.375 52.535156 52.621094 52.59375 50.925781 C 52.6875 48.167969 52.054688 42.007812 53.058594 39.890625 C 53.449219 39.070312 54.558594 38.269531 55.601562 37.929688 L 55.601562 37.925781 C 55.746094 37.882812 55.882812 37.84375 56.003906 37.816406 C 57.324219 37.53125 59.5 37.3125 60.835938 37.511719 C 61.21875 37.570312 61.707031 37.636719 62.238281 37.777344 C 63.273438 38.050781 64.492188 37.9375 65.296875 39.332031 C 65.527344 39.730469 65.546875 40.914062 65.488281 42.519531 C 65.472656 42.964844 65.449219 43.445312 65.425781 43.949219 C 65.394531 44.523438 65.363281 45.132812 65.332031 45.765625 C 65.257812 47.238281 65.183594 48.832031 65.164062 50.40625 C 65.152344 51.734375 65.230469 53.125 65.320312 54.394531 C 65.359375 54.910156 65.398438 55.40625 65.4375 55.871094 C 65.523438 56.992188 65.597656 57.917969 65.578125 58.46875 Z M 65.578125 58.46875 "/><path style=" stroke:none;fill-rule:nonzero;fill:#238a6f;fill-opacity:1;" d="M 65.488281 42.519531 C 65.472656 42.964844 65.449219 43.445312 65.425781 43.949219 C 65.394531 44.523438 65.363281 45.132812 65.332031 45.765625 C 65.257812 47.238281 65.183594 48.832031 65.164062 50.40625 C 65.152344 51.734375 65.230469 53.125 65.320312 54.394531 C 61.855469 55.144531 53.566406 54.089844 53.566406 54.089844 L 52.910156 50.445312 L 60.789062 48.769531 C 60.789062 48.769531 61.21875 42.300781 61.566406 41.519531 C 62.1875 40.144531 63.394531 39.347656 63.394531 39.347656 Z M 65.488281 42.519531 "/><path style=" stroke:none;fill-rule:nonzero;fill:#fec3bd;fill-opacity:1;" d="M 57.894531 40.855469 C 59.386719 40.960938 60.925781 38.984375 61.394531 37.597656 C 61.070312 37.546875 60.828125 37.273438 60.816406 36.941406 L 60.710938 33.910156 L 59.652344 34.5 L 57.199219 35.863281 L 57.253906 36.941406 C 57.269531 37.3125 57.007812 37.632812 56.648438 37.695312 C 56.574219 37.707031 56.5 37.71875 56.429688 37.730469 C 56.324219 39.0625 56.695312 40.773438 57.894531 40.855469 Z M 57.894531 40.855469 "/><path style=" stroke:none;fill-rule:nonzero;fill:#f18b89;fill-opacity:1;" d="M 59.609375 34.933594 C 58.769531 36.222656 57.519531 36.824219 57.253906 36.941406 L 57.199219 35.863281 L 59.652344 34.5 C 59.738281 34.605469 59.730469 34.746094 59.609375 34.933594 Z M 59.609375 34.933594 "/><path style=" stroke:none;fill-rule:nonzero;fill:#fec3bd;fill-opacity:1;" d="M 61.453125 33.082031 C 61.453125 33.082031 61.167969 33.4375 60.710938 33.914062 C 59.644531 35.015625 57.628906 36.757812 56.003906 36.183594 C 53.855469 35.425781 54.011719 31.492188 54.351562 28.960938 C 54.519531 27.703125 54.734375 26.792969 54.734375 26.792969 L 56.625 26.703125 L 58.488281 26.703125 L 60.273438 29.234375 L 60.769531 31.585938 C 60.769531 31.585938 61.496094 29.484375 62.34375 30.398438 C 63.359375 31.484375 61.453125 33.082031 61.453125 33.082031 Z M 61.453125 33.082031 "/><path style=" stroke:none;fill-rule:nonzero;fill:#06112d;fill-opacity:1;" d="M 53.492188 28.636719 C 52.910156 28.105469 52.28125 25.847656 56.15625 24.378906 C 60.03125 22.914062 61.375 25.847656 61.375 25.847656 C 66.503906 29.273438 62.289062 34.070312 60.722656 34.734375 L 60.710938 33.914062 C 61.167969 33.4375 61.453125 33.082031 61.453125 33.082031 C 61.453125 33.082031 63.359375 31.484375 62.34375 30.398438 C 61.496094 29.484375 60.769531 31.585938 60.769531 31.585938 C 60.71875 31.722656 60.640625 32.125 60.503906 32.1875 C 60.261719 32.300781 60.035156 31.828125 59.996094 31.652344 C 59.929688 31.351562 59.980469 31.039062 59.953125 30.734375 C 59.925781 30.425781 59.789062 30.089844 59.5 29.988281 C 59.25 29.902344 58.972656 30.015625 58.710938 29.96875 C 58.390625 29.910156 58.160156 29.601562 58.085938 29.277344 C 58.007812 28.957031 58.058594 28.621094 58.109375 28.292969 C 57.667969 28.71875 57.042969 28.941406 56.4375 28.890625 C 56.199219 28.871094 55.96875 28.816406 55.730469 28.804688 C 55.320312 28.789062 54.917969 28.921875 54.511719 28.980469 C 53.890625 29.070312 53.21875 28.976562 52.714844 28.605469 C 52.207031 28.230469 51.902344 27.546875 52.085938 26.941406 C 52.21875 26.488281 52.582031 26.152344 52.941406 25.851562 C 54.113281 24.886719 55.425781 24.09375 56.824219 23.519531 C 57.210938 23.359375 57.613281 23.214844 58.03125 23.230469 C 58.445312 23.246094 58.878906 23.457031 59.046875 23.839844 C 59.515625 23.773438 59.992188 23.710938 60.457031 23.804688 C 60.917969 23.894531 61.371094 24.179688 61.542969 24.621094 C 61.722656 25.078125 61.570312 25.59375 61.394531 26.050781 "/><path style=" stroke:none;fill-rule:nonzero;fill:#06112d;fill-opacity:1;" d="M 57.292969 31.304688 C 57.359375 31.3125 57.414062 31.351562 57.453125 31.425781 C 57.492188 31.503906 57.507812 31.589844 57.496094 31.691406 C 57.488281 31.789062 57.457031 31.871094 57.402344 31.9375 C 57.347656 32.003906 57.289062 32.035156 57.222656 32.027344 C 57.15625 32.019531 57.105469 31.980469 57.066406 31.90625 C 57.023438 31.832031 57.011719 31.742188 57.019531 31.644531 C 57.03125 31.542969 57.0625 31.460938 57.113281 31.394531 C 57.167969 31.328125 57.226562 31.296875 57.292969 31.304688 Z M 57.292969 31.304688 "/><path style=" stroke:none;fill-rule:nonzero;fill:#06112d;fill-opacity:1;" d="M 57.652344 31.148438 C 57.636719 31.148438 57.621094 31.144531 57.609375 31.132812 C 57.25 30.8125 57.027344 30.984375 57.015625 30.988281 C 56.988281 31.011719 56.945312 31.007812 56.921875 30.980469 C 56.898438 30.949219 56.902344 30.90625 56.929688 30.882812 C 56.945312 30.871094 57.25 30.628906 57.699219 31.027344 C 57.726562 31.054688 57.730469 31.097656 57.707031 31.125 C 57.691406 31.140625 57.671875 31.148438 57.652344 31.148438 Z M 57.652344 31.148438 "/><path style=" stroke:none;fill-rule:nonzero;fill:#06112d;fill-opacity:1;" d="M 55.269531 31.199219 C 55.332031 31.207031 55.386719 31.246094 55.425781 31.320312 C 55.464844 31.398438 55.480469 31.484375 55.472656 31.585938 C 55.460938 31.683594 55.429688 31.765625 55.375 31.832031 C 55.324219 31.898438 55.265625 31.929688 55.199219 31.921875 C 55.132812 31.914062 55.078125 31.875 55.039062 31.800781 C 55 31.722656 54.984375 31.636719 54.992188 31.535156 C 55.003906 31.4375 55.035156 31.355469 55.089844 31.289062 C 55.140625 31.222656 55.203125 31.191406 55.269531 31.199219 Z M 55.269531 31.199219 "/><path style=" stroke:none;fill-rule:nonzero;fill:#06112d;fill-opacity:1;" d="M 55.628906 31.042969 C 55.613281 31.042969 55.59375 31.039062 55.582031 31.027344 C 55.226562 30.707031 55 30.878906 54.992188 30.882812 C 54.960938 30.90625 54.917969 30.902344 54.894531 30.875 C 54.871094 30.84375 54.875 30.800781 54.90625 30.777344 C 54.917969 30.765625 55.226562 30.523438 55.671875 30.921875 C 55.703125 30.949219 55.703125 30.992188 55.679688 31.019531 C 55.664062 31.035156 55.648438 31.042969 55.628906 31.042969 Z M 55.628906 31.042969 "/><path style=" stroke:none;fill-rule:nonzero;fill:#f18b89;fill-opacity:1;" d="M 55.738281 33.492188 C 55.722656 33.492188 55.703125 33.484375 55.691406 33.472656 C 55.601562 33.382812 55.550781 33.261719 55.554688 33.136719 C 55.554688 33.015625 55.609375 32.902344 55.703125 32.816406 C 55.738281 32.785156 55.777344 32.757812 55.8125 32.730469 C 55.835938 32.71875 55.859375 32.703125 55.878906 32.683594 C 56.015625 32.582031 56.109375 32.425781 56.15625 32.242188 C 56.199219 32.070312 56.195312 31.890625 56.195312 31.710938 C 56.195312 31.675781 56.222656 31.644531 56.261719 31.640625 C 56.300781 31.640625 56.332031 31.671875 56.332031 31.710938 C 56.332031 31.894531 56.335938 32.085938 56.289062 32.277344 C 56.234375 32.492188 56.125 32.671875 55.960938 32.796875 C 55.941406 32.8125 55.914062 32.828125 55.890625 32.847656 C 55.855469 32.871094 55.824219 32.894531 55.792969 32.921875 C 55.730469 32.980469 55.691406 33.058594 55.691406 33.140625 C 55.6875 33.226562 55.722656 33.308594 55.789062 33.375 C 55.816406 33.402344 55.816406 33.445312 55.789062 33.472656 C 55.773438 33.484375 55.757812 33.492188 55.738281 33.492188 Z M 55.738281 33.492188 "/><path style=" stroke:none;fill-rule:nonzero;fill:#f18b89;fill-opacity:1;" d="M 56.328125 34.53125 C 56.300781 34.53125 56.277344 34.527344 56.25 34.527344 C 56.210938 34.523438 56.183594 34.488281 56.1875 34.449219 C 56.191406 34.414062 56.226562 34.382812 56.261719 34.386719 C 56.535156 34.414062 56.820312 34.285156 56.984375 34.0625 C 57.007812 34.03125 57.050781 34.023438 57.078125 34.046875 C 57.109375 34.070312 57.117188 34.113281 57.09375 34.144531 C 56.917969 34.382812 56.625 34.53125 56.328125 34.53125 Z M 56.328125 34.53125 "/><path style=" stroke:none;fill-rule:nonzero;fill:#0e6bb9;fill-opacity:1;" d="M 41.050781 46.023438 L 42.597656 44.476562 L 45.105469 47.03125 L 43.558594 48.578125 Z M 41.050781 46.023438 "/><path style=" stroke:none;fill-rule:nonzero;fill:#0c8ff9;fill-opacity:1;" d="M 43.632812 49.296875 L 50.613281 56.378906 C 50.910156 56.683594 51.304688 56.835938 51.699219 56.835938 C 52.09375 56.839844 52.488281 56.6875 52.789062 56.386719 C 53.394531 55.78125 53.398438 54.800781 52.800781 54.191406 L 45.820312 47.109375 C 45.519531 46.804688 45.125 46.652344 44.730469 46.648438 C 44.335938 46.648438 43.945312 46.796875 43.640625 47.101562 C 43.039062 47.703125 43.03125 48.6875 43.632812 49.296875 Z M 43.632812 49.296875 "/><path style=" stroke:none;fill-rule:nonzero;fill:#0c8ff9;fill-opacity:1;" d="M 30.578125 45.335938 C 33.707031 48.523438 38.800781 48.542969 41.957031 45.386719 C 45.117188 42.230469 45.136719 37.089844 42.007812 33.902344 C 38.882812 30.71875 33.785156 30.695312 30.628906 33.851562 C 27.472656 37.007812 27.449219 42.152344 30.578125 45.335938 Z M 31.957031 43.886719 C 29.601562 41.488281 29.617188 37.617188 31.992188 35.242188 C 34.371094 32.867188 38.203125 32.882812 40.558594 35.277344 C 42.914062 37.675781 42.898438 41.546875 40.519531 43.921875 C 38.144531 46.300781 34.308594 46.28125 31.957031 43.886719 Z M 31.957031 43.886719 "/><path style=" stroke:none;fill-rule:nonzero;fill:#0e6bb9;fill-opacity:1;" d="M 40.941406 34.972656 C 38.398438 32.382812 34.253906 32.363281 31.6875 34.929688 C 29.121094 37.496094 29.101562 41.675781 31.644531 44.269531 C 34.191406 46.859375 38.332031 46.875 40.898438 44.308594 C 43.464844 41.742188 43.484375 37.5625 40.941406 34.972656 Z M 40.523438 43.921875 C 38.144531 46.300781 34.308594 46.28125 31.957031 43.882812 C 29.601562 41.488281 29.617188 37.617188 31.996094 35.242188 C 34.371094 32.867188 38.203125 32.882812 40.558594 35.28125 C 42.914062 37.675781 42.898438 41.546875 40.523438 43.921875 Z M 40.523438 43.921875 "/><path style=" stroke:none;fill-rule:nonzero;fill:#fe8b70;fill-opacity:1;" d="M 41.28125 39.582031 C 41.28125 39.914062 41.25 40.246094 41.183594 40.570312 C 41.121094 40.898438 41.023438 41.214844 40.898438 41.523438 C 40.773438 41.832031 40.617188 42.121094 40.433594 42.398438 C 40.25 42.675781 40.042969 42.933594 39.808594 43.167969 C 39.578125 43.402344 39.324219 43.613281 39.046875 43.796875 C 38.773438 43.984375 38.484375 44.140625 38.179688 44.265625 C 37.875 44.394531 37.5625 44.488281 37.238281 44.554688 C 36.914062 44.621094 36.585938 44.652344 36.257812 44.652344 C 35.925781 44.652344 35.601562 44.621094 35.277344 44.554688 C 34.953125 44.488281 34.640625 44.394531 34.335938 44.265625 C 34.03125 44.140625 33.742188 43.984375 33.464844 43.796875 C 33.191406 43.613281 32.9375 43.402344 32.707031 43.167969 C 32.472656 42.933594 32.261719 42.675781 32.082031 42.398438 C 31.898438 42.121094 31.742188 41.832031 31.617188 41.523438 C 31.488281 41.214844 31.394531 40.898438 31.332031 40.570312 C 31.265625 40.246094 31.234375 39.914062 31.234375 39.582031 C 31.234375 39.25 31.265625 38.917969 31.332031 38.59375 C 31.394531 38.265625 31.488281 37.949219 31.617188 37.640625 C 31.742188 37.335938 31.898438 37.042969 32.082031 36.765625 C 32.261719 36.488281 32.472656 36.234375 32.707031 35.996094 C 32.9375 35.761719 33.191406 35.550781 33.464844 35.367188 C 33.742188 35.183594 34.03125 35.027344 34.335938 34.898438 C 34.640625 34.769531 34.953125 34.675781 35.277344 34.609375 C 35.601562 34.542969 35.925781 34.511719 36.257812 34.511719 C 36.585938 34.511719 36.914062 34.542969 37.238281 34.609375 C 37.5625 34.675781 37.875 34.769531 38.179688 34.898438 C 38.484375 35.027344 38.773438 35.183594 39.046875 35.367188 C 39.324219 35.550781 39.578125 35.761719 39.808594 35.996094 C 40.042969 36.234375 40.25 36.488281 40.433594 36.765625 C 40.617188 37.042969 40.773438 37.335938 40.898438 37.640625 C 41.023438 37.949219 41.121094 38.265625 41.183594 38.59375 C 41.25 38.917969 41.28125 39.25 41.28125 39.582031 Z M 41.28125 39.582031 "/><path style=" stroke:none;fill-rule:nonzero;fill:#fcc283;fill-opacity:1;" d="M 40.242188 39.582031 C 40.242188 39.847656 40.21875 40.109375 40.167969 40.367188 C 40.117188 40.625 40.039062 40.878906 39.941406 41.121094 C 39.839844 41.367188 39.71875 41.597656 39.570312 41.816406 C 39.425781 42.035156 39.261719 42.238281 39.078125 42.425781 C 38.890625 42.613281 38.691406 42.78125 38.472656 42.925781 C 38.253906 43.074219 38.023438 43.199219 37.78125 43.300781 C 37.542969 43.398438 37.292969 43.476562 37.035156 43.527344 C 36.777344 43.578125 36.519531 43.605469 36.257812 43.605469 C 35.996094 43.605469 35.738281 43.578125 35.480469 43.527344 C 35.222656 43.476562 34.972656 43.398438 34.730469 43.300781 C 34.492188 43.199219 34.261719 43.074219 34.042969 42.925781 C 33.824219 42.78125 33.625 42.613281 33.4375 42.425781 C 33.253906 42.238281 33.089844 42.035156 32.941406 41.816406 C 32.796875 41.597656 32.675781 41.367188 32.574219 41.121094 C 32.472656 40.878906 32.398438 40.625 32.347656 40.367188 C 32.296875 40.109375 32.269531 39.847656 32.269531 39.582031 C 32.269531 39.316406 32.296875 39.054688 32.347656 38.796875 C 32.398438 38.539062 32.472656 38.285156 32.574219 38.042969 C 32.675781 37.800781 32.796875 37.566406 32.941406 37.347656 C 33.089844 37.128906 33.253906 36.925781 33.4375 36.738281 C 33.625 36.550781 33.824219 36.382812 34.042969 36.238281 C 34.261719 36.089844 34.492188 35.96875 34.730469 35.867188 C 34.972656 35.765625 35.222656 35.6875 35.480469 35.636719 C 35.738281 35.585938 35.996094 35.558594 36.257812 35.558594 C 36.519531 35.558594 36.777344 35.585938 37.035156 35.636719 C 37.292969 35.6875 37.542969 35.765625 37.78125 35.867188 C 38.023438 35.96875 38.253906 36.089844 38.472656 36.238281 C 38.691406 36.382812 38.890625 36.550781 39.078125 36.738281 C 39.261719 36.925781 39.425781 37.128906 39.570312 37.347656 C 39.71875 37.566406 39.839844 37.800781 39.941406 38.042969 C 40.039062 38.285156 40.117188 38.539062 40.167969 38.796875 C 40.21875 39.054688 40.242188 39.316406 40.242188 39.582031 Z M 40.242188 39.582031 "/><path style=" stroke:none;fill-rule:nonzero;fill:#fe8b70;fill-opacity:1;" d="M 35.804688 41.695312 L 35.804688 41.21875 C 35.535156 41.214844 35.253906 41.128906 35.089844 41.011719 L 35.199219 40.695312 C 35.371094 40.808594 35.613281 40.898438 35.875 40.898438 C 36.207031 40.898438 36.433594 40.703125 36.433594 40.433594 C 36.433594 40.171875 36.25 40.011719 35.902344 39.871094 C 35.425781 39.683594 35.128906 39.464844 35.128906 39.054688 C 35.128906 38.660156 35.40625 38.363281 35.839844 38.292969 L 35.839844 37.816406 L 36.128906 37.816406 L 36.128906 38.273438 C 36.410156 38.285156 36.601562 38.359375 36.738281 38.4375 L 36.621094 38.75 C 36.523438 38.695312 36.328125 38.589844 36.03125 38.589844 C 35.667969 38.589844 35.535156 38.808594 35.535156 38.996094 C 35.535156 39.242188 35.707031 39.367188 36.113281 39.535156 C 36.597656 39.734375 36.839844 39.980469 36.839844 40.402344 C 36.839844 40.773438 36.582031 41.125 36.101562 41.203125 L 36.101562 41.695312 Z M 35.804688 41.695312 "/><path style=" stroke:none;fill-rule:nonzero;fill:#ffffff;fill-opacity:0.3;" d="M 40.523438 43.921875 C 38.144531 46.300781 34.308594 46.28125 31.957031 43.882812 C 29.601562 41.488281 29.617188 37.617188 31.996094 35.242188 C 34.371094 32.867188 38.203125 32.882812 40.558594 35.28125 C 42.914062 37.675781 42.898438 41.546875 40.523438 43.921875 Z M 40.523438 43.921875 "/><path style=" stroke:none;fill-rule:nonzero;fill:#fec3bd;fill-opacity:1;" d="M 43.316406 48.277344 C 43.316406 48.386719 43.269531 48.5 43.179688 48.582031 L 42.648438 49.054688 C 42.472656 49.222656 42.195312 49.210938 42.03125 49.03125 C 41.867188 48.851562 41.875 48.574219 42.050781 48.40625 C 41.875 48.574219 41.597656 48.5625 41.433594 48.386719 C 41.269531 48.207031 41.277344 47.925781 41.453125 47.761719 C 41.277344 47.925781 41 47.917969 40.835938 47.738281 C 40.671875 47.558594 40.683594 47.28125 40.855469 47.113281 C 40.683594 47.28125 40.40625 47.269531 40.238281 47.089844 C 40.074219 46.914062 40.085938 46.632812 40.261719 46.46875 L 40.792969 45.996094 C 40.96875 45.828125 41.246094 45.839844 41.40625 46.019531 C 41.492188 46.105469 41.53125 46.222656 41.527344 46.335938 C 41.523438 46.445312 41.476562 46.558594 41.386719 46.640625 C 41.566406 46.476562 41.839844 46.488281 42.003906 46.664062 C 42.089844 46.753906 42.128906 46.867188 42.125 46.980469 C 42.121094 47.09375 42.074219 47.203125 41.984375 47.289062 L 42.214844 47.074219 C 42.390625 46.910156 42.667969 46.917969 42.832031 47.097656 C 42.914062 47.1875 42.953125 47.300781 42.949219 47.414062 C 42.945312 47.527344 42.898438 47.636719 42.8125 47.722656 L 42.582031 47.9375 C 42.757812 47.769531 43.035156 47.78125 43.199219 47.957031 C 43.28125 48.046875 43.320312 48.160156 43.316406 48.277344 Z M 43.316406 48.277344 "/><path style=" stroke:none;fill-rule:nonzero;fill:#fec3bd;fill-opacity:1;" d="M 49.53125 55.039062 C 50.15625 55.164062 53.660156 53.71875 53.660156 53.71875 L 53.175781 51.136719 C 53.175781 51.136719 50.160156 50.441406 49.8125 50.792969 C 49.46875 51.144531 50.621094 51.714844 50.621094 51.714844 C 50.328125 51.746094 48.542969 51.945312 48.808594 52.449219 C 48.902344 52.632812 49.371094 52.761719 49.570312 52.765625 C 48.996094 52.914062 48.214844 53.28125 48.328125 53.535156 C 48.488281 53.890625 49.183594 53.691406 49.421875 53.609375 C 49.179688 53.703125 48.496094 53.992188 48.722656 54.308594 C 48.859375 54.5 49.4375 54.335938 49.710938 54.28125 C 49.527344 54.394531 49.125 54.957031 49.53125 55.039062 Z M 49.53125 55.039062 "/><path style=" stroke:none;fill-rule:nonzero;fill:#37c092;fill-opacity:1;" d="M 64.792969 38.683594 C 64.792969 38.683594 62.640625 38.304688 61.660156 43.628906 C 61.460938 44.707031 60.953125 49.808594 60.953125 49.808594 L 52.910156 50.445312 L 53.566406 54.09375 C 56.53125 54.210938 62.867188 55.128906 64.882812 52.871094 C 66.621094 50.925781 67.785156 40.25 64.792969 38.683594 Z M 64.792969 38.683594 "/><path style=" stroke:none;fill-rule:nonzero;fill:#f7b3c2;fill-opacity:1;" d="M 45.191406 25.875 L 30.777344 25.875 C 30.519531 25.875 30.308594 25.664062 30.308594 25.402344 L 30.308594 22.289062 C 30.308594 22.023438 30.519531 21.8125 30.777344 21.8125 L 45.191406 21.8125 C 45.449219 21.8125 45.660156 22.023438 45.660156 22.289062 L 45.660156 25.402344 C 45.660156 25.664062 45.449219 25.875 45.191406 25.875 Z M 45.191406 25.875 "/><path style=" stroke:none;fill-rule:nonzero;fill:#ffffff;fill-opacity:1;" d="M 33.015625 22.933594 L 33.308594 23.53125 L 33.964844 23.628906 L 33.488281 24.097656 L 33.601562 24.757812 L 33.015625 24.445312 L 32.425781 24.757812 L 32.539062 24.097656 L 32.066406 23.628906 L 32.722656 23.53125 Z M 33.015625 22.933594 "/><path style=" stroke:none;fill-rule:nonzero;fill:#ffffff;fill-opacity:1;" d="M 35.5 22.933594 L 35.792969 23.53125 L 36.449219 23.628906 L 35.972656 24.097656 L 36.085938 24.757812 L 35.5 24.445312 L 34.914062 24.757812 L 35.023438 24.097656 L 34.550781 23.628906 L 35.207031 23.53125 Z M 35.5 22.933594 "/><path style=" stroke:none;fill-rule:nonzero;fill:#ffffff;fill-opacity:1;" d="M 37.984375 22.933594 L 38.277344 23.53125 L 38.933594 23.628906 L 38.460938 24.097656 L 38.570312 24.757812 L 37.984375 24.445312 L 37.398438 24.757812 L 37.507812 24.097656 L 37.035156 23.628906 L 37.691406 23.53125 Z M 37.984375 22.933594 "/><path style=" stroke:none;fill-rule:nonzero;fill:#ffffff;fill-opacity:1;" d="M 40.46875 22.933594 L 40.761719 23.53125 L 41.417969 23.628906 L 40.945312 24.097656 L 41.054688 24.757812 L 40.46875 24.445312 L 39.882812 24.757812 L 39.996094 24.097656 L 39.519531 23.628906 L 40.175781 23.53125 Z M 40.46875 22.933594 "/><path style=" stroke:none;fill-rule:nonzero;fill:#ffffff;fill-opacity:1;" d="M 42.953125 22.933594 L 43.246094 23.53125 L 43.902344 23.628906 L 43.429688 24.097656 L 43.542969 24.757812 L 42.953125 24.445312 L 42.367188 24.757812 L 42.480469 24.097656 L 42.003906 23.628906 L 42.660156 23.53125 Z M 42.953125 22.933594 "/><path style=" stroke:none;fill-rule:nonzero;fill:#f9dae0;fill-opacity:1;" d="M 41.308594 54.664062 C 41.308594 54.984375 41.246094 55.289062 41.128906 55.582031 C 41.007812 55.875 40.835938 56.132812 40.613281 56.359375 C 40.390625 56.582031 40.132812 56.757812 39.84375 56.878906 C 39.550781 57 39.25 57.0625 38.933594 57.0625 C 38.621094 57.0625 38.316406 57 38.027344 56.878906 C 37.734375 56.757812 37.476562 56.582031 37.253906 56.359375 C 37.03125 56.132812 36.863281 55.875 36.742188 55.582031 C 36.621094 55.289062 36.558594 54.984375 36.558594 54.664062 C 36.558594 54.347656 36.621094 54.042969 36.742188 53.75 C 36.863281 53.453125 37.03125 53.195312 37.253906 52.972656 C 37.476562 52.746094 37.734375 52.574219 38.027344 52.453125 C 38.316406 52.332031 38.621094 52.269531 38.933594 52.269531 C 39.25 52.269531 39.550781 52.332031 39.84375 52.453125 C 40.132812 52.574219 40.390625 52.746094 40.613281 52.972656 C 40.835938 53.195312 41.007812 53.453125 41.128906 53.75 C 41.246094 54.042969 41.308594 54.347656 41.308594 54.664062 Z M 41.308594 54.664062 "/><path style=" stroke:none;fill-rule:nonzero;fill:#ffffff;fill-opacity:1;" d="M 38.046875 55.734375 L 37.421875 54.765625 L 37.882812 54.460938 L 38.207031 54.964844 L 40.066406 53.746094 L 40.367188 54.210938 Z M 38.046875 55.734375 "/><g clip-rule="nonzero" clip-path="url(#4675601a4f)"><path style=" stroke:none;fill-rule:nonzero;fill:#d7daf4;fill-opacity:1;" d="M 58.066406 17.988281 C 58.164062 18.222656 58.21875 18.460938 58.226562 18.710938 C 58.238281 18.960938 58.203125 19.199219 58.128906 19.425781 C 58.050781 19.652344 57.933594 19.851562 57.777344 20.023438 C 57.625 20.195312 57.441406 20.324219 57.234375 20.414062 C 57.027344 20.503906 56.808594 20.542969 56.578125 20.535156 C 56.347656 20.53125 56.125 20.476562 55.910156 20.375 C 55.695312 20.273438 55.503906 20.128906 55.332031 19.949219 C 55.164062 19.769531 55.027344 19.5625 54.929688 19.328125 C 54.832031 19.097656 54.78125 18.855469 54.769531 18.605469 C 54.757812 18.359375 54.792969 18.121094 54.871094 17.890625 C 54.949219 17.664062 55.0625 17.464844 55.21875 17.292969 C 55.371094 17.125 55.554688 16.992188 55.761719 16.90625 C 55.96875 16.816406 56.1875 16.773438 56.417969 16.78125 C 56.648438 16.789062 56.871094 16.84375 57.085938 16.945312 C 57.300781 17.046875 57.496094 17.1875 57.664062 17.367188 C 57.835938 17.550781 57.96875 17.757812 58.066406 17.988281 Z M 58.066406 17.988281 "/></g><path style=" stroke:none;fill-rule:nonzero;fill:#ffffff;fill-opacity:1;" d="M 57.3125 18.3125 C 57.417969 18.5625 57.425781 18.8125 57.34375 19.058594 C 57.257812 19.300781 57.105469 19.472656 56.878906 19.570312 C 56.65625 19.664062 56.425781 19.65625 56.195312 19.546875 C 55.960938 19.4375 55.789062 19.257812 55.683594 19.007812 C 55.578125 18.753906 55.570312 18.507812 55.652344 18.261719 C 55.738281 18.015625 55.890625 17.84375 56.117188 17.75 C 56.339844 17.652344 56.570312 17.660156 56.804688 17.769531 C 57.035156 17.878906 57.207031 18.058594 57.3125 18.3125 Z M 57.3125 18.3125 "/><path style=" stroke:none;fill-rule:nonzero;fill:#d7daf4;fill-opacity:1;" d="M 55.476562 19.609375 L 50.722656 21.640625 C 50.484375 21.742188 50.210938 21.628906 50.109375 21.390625 C 50.007812 21.148438 50.117188 20.871094 50.355469 20.769531 L 55.109375 18.738281 Z M 55.476562 19.609375 "/><path style=" stroke:none;fill-rule:nonzero;fill:#d7daf4;fill-opacity:1;" d="M 50.878906 21.355469 L 52.242188 20.773438 L 52.441406 21.253906 L 51.082031 21.832031 Z M 50.878906 21.355469 "/><path style=" stroke:none;fill-rule:nonzero;fill:#d7daf4;fill-opacity:1;" d="M 50.878906 21.355469 L 51.398438 21.136719 L 51.757812 21.996094 L 51.242188 22.21875 Z M 50.878906 21.355469 "/><path style=" stroke:none;fill-rule:nonzero;fill:#d7daf4;fill-opacity:1;" d="M 51.722656 20.996094 L 52.242188 20.773438 L 52.601562 21.636719 L 52.085938 21.859375 Z M 51.722656 20.996094 "/></g></svg>